<svg id="Warstwa_1" data-name="Warstwa 1" xmlns="http://www.w3.org/2000/svg" viewBox="0 0 32.728 47.03">
  <defs>
    <style>
      .cls-1, .cls-3 {
        fill: #fff;
      }

      .cls-1, .cls-2, .cls-4 {
        fill-rule: evenodd;
      }

      .cls-2 {
        fill: none;
        stroke: #333;
        stroke-miterlimit: 22.926;
        stroke-width: 0.567px;
      }

      .cls-4, .cls-5 {
        fill: #333;
      }
    </style>
  </defs>
  <title>dekra_cert</title>
  <g>
    <path class="cls-1" d="M282.059,428.706c0-8.88.109-30.365.109-30.365,0-.038,32.008,0,32.008,0,.038,0,.044,24.742.044,30.365a16.081,16.081,0,1,1-32.161,0Z" transform="translate(-281.775 -398.04)"/>
    <path class="cls-2" d="M282.059,428.706c0-8.88.109-30.365.109-30.365,0-.038,32.008,0,32.008,0,.038,0,.044,24.742.044,30.365a16.081,16.081,0,1,1-32.161,0" transform="translate(-281.775 -398.04)"/>
    <circle class="cls-3" cx="16.361" cy="30.622" r="16.08"/>
    <path class="cls-2" d="M282.059,428.662a16.081,16.081,0,1,1,16.08,16.081,16.08,16.08,0,0,1-16.08-16.081" transform="translate(-281.775 -398.04)"/>
    <path class="cls-1" d="M288.4,429.239h.168a1.746,1.746,0,1,1,0,3.492H288.4v-3.492Zm-1.03,4.388h1.465a2.643,2.643,0,0,0,.007-5.284H287.37Z" transform="translate(-281.775 -398.04)"/>
    <polygon class="cls-1" points="13.002 31.199 13.002 30.302 10.268 30.302 10.268 35.588 13.002 35.588 13.002 34.691 11.299 34.691 11.299 33.26 12.939 33.26 12.939 32.363 11.299 32.363 11.299 31.199 13.002 31.199"/>
    <path class="cls-1" d="M305.617,431.672l.641-1.913h.014l.6,1.913Zm-1.816,1.956h1.087l.434-1.115h1.837l.407,1.115h1.1l-1.917-5.093a.514.514,0,0,0-.483-.333.521.521,0,0,0-.485.333Z" transform="translate(-281.775 -398.04)"/>
    <polygon class="cls-1" points="14.942 32.532 14.928 32.532 14.928 30.303 13.897 30.303 13.897 35.587 14.928 35.587 14.928 33.211 14.942 33.211 16.631 35.587 17.957 35.587 15.838 32.742 17.844 30.303 16.576 30.303 14.942 32.532"/>
    <path class="cls-1" d="M302.353,431.464l1.448,2.164h-1.248l-1.3-2.13v2.13h-1.03v-5.286H302a1.581,1.581,0,0,1,.354,3.122Zm-.546-2.28h-.551v1.591h.551a.8.8,0,0,0,0-1.591Z" transform="translate(-281.775 -398.04)"/>
    <path class="cls-4" d="M296.188,417.787l4.466,2.587a1.379,1.379,0,0,1,0,2.385l-6.121,3.545v-1.591l5.433-3.146-2.919-1.692v2.388l-1.374.8v-4.972a.343.343,0,0,1,.515-.3Z" transform="translate(-281.775 -398.04)"/>
    <path class="cls-4" d="M287.2,418.029l-.125.125,1.021,1.013.124-.126a.762.762,0,0,0,.249-.485.72.72,0,0,0-.218-.566.7.7,0,0,0-1.051.039Zm1.465.533a.943.943,0,0,1-.319.619l-.26.261-1.288-1.279.261-.263a.975.975,0,0,1,.623-.325.931.931,0,0,1,.983.987Z" transform="translate(-281.775 -398.04)"/>
    <polygon class="cls-4" points="7.605 20.158 6.474 18.737 7.209 18.152 7.328 18.301 6.751 18.76 7.087 19.182 7.648 18.735 7.766 18.881 7.203 19.33 7.646 19.885 8.223 19.425 8.34 19.573 7.605 20.158"/>
    <polygon class="cls-4" points="9.552 18.78 8.48 18.47 8.463 18.541 8.88 19.202 8.709 19.309 7.743 17.772 7.915 17.665 8.328 18.324 8.569 17.254 8.798 17.11 8.529 18.277 9.787 18.632 9.552 18.78"/>
    <path class="cls-4" d="M291.472,414.91l-.111.053.282.587.115-.056c.2-.093.322-.253.217-.472s-.309-.2-.5-.112Zm1.134,1.259-.84-.48-.045.023.343.717-.182.087-.785-1.638.263-.125a.753.753,0,0,1,.437-.1.492.492,0,0,1,.358.281.477.477,0,0,1-.2.643l.868.484Z" transform="translate(-281.775 -398.04)"/>
    <path class="cls-4" d="M293.307,414.365l-.059.788.582-.2-.523-.59Zm1.025,1.161-.366-.419-.735.25-.041.557-.209.071.18-2.07,1.383,1.54Z" transform="translate(-281.775 -398.04)"/>
    <path class="cls-4" d="M296.488,415.133a.939.939,0,1,1-.241-1.863.872.872,0,0,1,.556.106l.033.248a.8.8,0,0,0-.577-.163.749.749,0,0,0,.2,1.483.778.778,0,0,0,.51-.308l.034.248A.933.933,0,0,1,296.488,415.133Z" transform="translate(-281.775 -398.04)"/>
    <path class="cls-4" d="M297.887,414.025a.344.344,0,0,0-.329.3l.663-.01a.34.34,0,0,0-.334-.287Zm-.341.46a.364.364,0,0,0,.365.376.387.387,0,0,0,.345-.239l.165.086a.563.563,0,0,1-.513.329.6.6,0,0,1-.029-1.188.541.541,0,0,1,.549.584v.038Z" transform="translate(-281.775 -398.04)"/>
    <path class="cls-4" d="M299.44,414.126a.175.175,0,0,0-.111-.046.227.227,0,0,0-.1.017c-.129.06-.141.22-.149.342l-.041.6-.192-.015.077-1.125.193.012-.008.122a.3.3,0,0,1,.265-.131.333.333,0,0,1,.17.057Z" transform="translate(-281.775 -398.04)"/>
    <polygon class="cls-4" points="18.149 15.943 18.032 15.928 18.009 16.106 18.125 16.121 18.002 17.063 18.197 17.089 18.32 16.146 18.516 16.172 18.54 15.994 18.343 15.968 18.396 15.562 18.202 15.538 18.149 15.943"/>
    <path class="cls-4" d="M300.853,413.835a.139.139,0,0,1,.05-.273.139.139,0,1,1-.05.273Zm-.355,1.377.207-1.111.189.035-.205,1.111Z" transform="translate(-281.775 -398.04)"/>
    <path class="cls-4" d="M301.611,414.478l-.226.923-.187-.046.226-.923-.105-.025.045-.175.1.025.115-.468a.638.638,0,0,1,.08-.2.315.315,0,0,1,.341-.109.49.49,0,0,1,.131.057l-.046.19a.351.351,0,0,0-.119-.056c-.136-.034-.174.063-.2.177l-.112.46.274.067-.042.174Z" transform="translate(-281.775 -398.04)"/>
    <path class="cls-4" d="M302.471,414.23a.139.139,0,1,1,.173-.093.14.14,0,0,1-.173.093Zm-.506,1.329.328-1.082.186.057-.329,1.08Z" transform="translate(-281.775 -398.04)"/>
    <path class="cls-4" d="M303.1,415.985a.6.6,0,1,1,.43-1.111.631.631,0,0,1,.288.23l-.093.238a.447.447,0,0,0-.262-.3.4.4,0,0,0-.525.246.4.4,0,0,0,.219.532.45.45,0,0,0,.413-.051l-.093.239A.616.616,0,0,1,303.1,415.985Z" transform="translate(-281.775 -398.04)"/>
    <path class="cls-4" d="M304.693,415.593a.386.386,0,0,0-.521.2.39.39,0,0,0,.138.548.386.386,0,0,0,.528-.207.381.381,0,0,0-.145-.54Zm-.124,1.042.072-.141a.477.477,0,0,1-.435-.01.559.559,0,0,1-.211-.783.549.549,0,0,1,.75-.276.478.478,0,0,1,.266.347l.073-.143.173.088-.516,1.005Z" transform="translate(-281.775 -398.04)"/>
    <polygon class="cls-4" points="23.974 17.976 23.875 17.914 23.78 18.066 23.879 18.128 23.376 18.935 23.543 19.039 24.045 18.233 24.214 18.336 24.309 18.184 24.14 18.08 24.356 17.732 24.19 17.63 23.974 17.976"/>
    <path class="cls-4" d="M306.654,416.264a.139.139,0,1,1,.192-.034.138.138,0,0,1-.192.034Zm-.892,1.107.647-.927.159.111-.648.925Z" transform="translate(-281.775 -398.04)"/>
    <path class="cls-4" d="M307.346,417.34a.418.418,0,1,0,.042.578.4.4,0,0,0-.042-.578Zm-.643.782a.595.595,0,1,1,.837-.077A.591.591,0,0,1,306.7,418.122Z" transform="translate(-281.775 -398.04)"/>
    <path class="cls-4" d="M307.963,419.255l.477-.466c.127-.123.208-.239.06-.39-.176-.179-.353-.049-.5.09l-.4.4-.135-.139.808-.789.134.137-.1.1a.377.377,0,0,1,.344.118.389.389,0,0,1,.114.339.524.524,0,0,1-.168.256l-.5.491Z" transform="translate(-281.775 -398.04)"/>
    <circle class="cls-5" cx="16.346" cy="30.566" r="12.94"/>
    <path class="cls-1" d="M288.379,429.254h.17a1.756,1.756,0,1,1,0,3.511h-.17v-3.511Zm-1.036,4.414h1.474a2.659,2.659,0,0,0,.006-5.316h-1.48Z" transform="translate(-281.775 -398.04)"/>
    <polygon class="cls-1" points="13.019 31.213 13.019 30.311 10.269 30.311 10.269 35.628 13.019 35.628 13.019 34.725 11.305 34.725 11.305 33.286 12.955 33.286 12.955 32.385 11.305 32.385 11.305 31.213 13.019 31.213"/>
    <path class="cls-1" d="M306.837,428.545a.518.518,0,0,0-.488-.335.526.526,0,0,0-.487.336l-1.991,5.122h1.092l.439-1.121h1.847l.41,1.121h1.106l-1.928-5.123ZM305.7,431.7l.645-1.925h.015l.6,1.925Z" transform="translate(-281.775 -398.04)"/>
    <polygon class="cls-1" points="14.971 32.554 14.957 32.554 14.957 30.31 13.92 30.31 13.92 35.627 14.957 35.627 14.957 33.238 14.971 33.238 16.67 35.627 18.003 35.627 15.873 32.765 17.89 30.31 16.614 30.31 14.971 32.554"/>
    <path class="cls-1" d="M302.414,431.492l1.457,2.177h-1.254l-1.305-2.144v2.144h-1.036v-5.318h1.784a1.591,1.591,0,0,1,.354,3.141Zm-.549-2.294h-.553v1.6h.553a.8.8,0,0,0,0-1.6Z" transform="translate(-281.775 -398.04)"/>
    <path class="cls-1" d="M296.214,417.733l4.492,2.6a1.388,1.388,0,0,1,0,2.4l-6.156,3.566v-1.6l5.465-3.166-2.937-1.7v2.4l-1.382.8v-5a.344.344,0,0,1,.172-.3A.348.348,0,0,1,296.214,417.733Z" transform="translate(-281.775 -398.04)"/>
    <polygon class="cls-1" points="16.101 42.421 15.575 41.329 15.812 41.333 16.216 42.198 16.62 41.351 16.851 41.355 15.93 43.203 15.698 43.198 16.101 42.421"/>
    <path class="cls-1" d="M294.048,438.741l-.116.245a.719.719,0,0,0-.1-.218.428.428,0,0,0-.157-.123.394.394,0,0,0-.343-.006.45.45,0,0,0-.228.225.443.443,0,0,0-.027.334.387.387,0,0,0,.216.244.4.4,0,0,0,.2.044.682.682,0,0,0,.237-.067l-.116.244a.691.691,0,0,1-.4-.048.605.605,0,0,1-.347-.412.637.637,0,0,1,.412-.758.606.606,0,0,1,.476.035A.672.672,0,0,1,294.048,438.741Z" transform="translate(-281.775 -398.04)"/>
    <path class="cls-1" d="M295.234,439.7l-.875-.318a.469.469,0,0,0-.023.211.375.375,0,0,0,.08.184.365.365,0,0,0,.161.114.346.346,0,0,0,.208.016.617.617,0,0,0,.224-.126l.129.15a.764.764,0,0,1-.2.131.591.591,0,0,1-.426,0,.562.562,0,0,1-.356-.353.721.721,0,0,1,.337-.817.541.541,0,0,1,.44-.016.531.531,0,0,1,.329.305.657.657,0,0,1-.01.483l-.013.034Zm-.144-.236a.415.415,0,0,0-.008-.18.333.333,0,0,0-.214-.23.34.34,0,0,0-.247,0,.371.371,0,0,0-.191.166Z" transform="translate(-281.775 -398.04)"/>
    <path class="cls-1" d="M295.76,439.135l.2.051-.032.124a.562.562,0,0,1,.159-.089.255.255,0,0,1,.142,0,.382.382,0,0,1,.163.095l-.139.156a.232.232,0,0,0-.105-.07.239.239,0,0,0-.115,0,.222.222,0,0,0-.1.057.663.663,0,0,0-.116.271l-.154.61-.2-.05Z" transform="translate(-281.775 -398.04)"/>
    <polygon class="cls-1" points="14.978 41.246 14.855 41.23 14.828 41.418 14.952 41.434 14.813 42.43 15.016 42.458 15.154 41.464 15.364 41.493 15.389 41.304 15.181 41.275 15.24 40.852 15.037 40.822 14.978 41.246"/>
    <path class="cls-1" d="M299.132,439.509l.07,1-.2.014-.07-1-.113.007-.014-.189.114-.008-.035-.5a.5.5,0,0,1,.049-.306.335.335,0,0,1,.275-.148.558.558,0,0,1,.151.015l.014.208a.393.393,0,0,0-.138-.021.139.139,0,0,0-.125.066.468.468,0,0,0-.018.217l.032.459.3-.022.013.19Z" transform="translate(-281.775 -398.04)"/>
    <path class="cls-1" d="M299.96,439.206l.175,1.183-.2.029-.173-1.182.2-.03Zm-.187-.574a.143.143,0,0,1,.109.027.149.149,0,0,1,.03.206.147.147,0,0,1-.263-.069.133.133,0,0,1,.028-.106A.148.148,0,0,1,299.773,438.632Z" transform="translate(-281.775 -398.04)"/>
    <polygon class="cls-1" points="18.609 40.191 18.905 41.502 19.23 40.977 19.495 40.917 19.109 41.525 19.853 42.061 19.592 42.12 19.001 41.696 18.963 41.759 19.072 42.238 18.872 42.283 18.409 40.236 18.609 40.191"/>
    <path class="cls-1" d="M302.378,438.536l.193-.072.419,1.119-.192.072-.058-.155a.509.509,0,0,1-.315.332.533.533,0,0,1-.478-.038.644.644,0,0,1-.283-.353.617.617,0,0,1,.009-.513.556.556,0,0,1,.307-.273.531.531,0,0,1,.459.04l-.061-.159Zm-.3.283a.37.37,0,0,0-.225.225.448.448,0,0,0,.008.318.474.474,0,0,0,.237.277.365.365,0,0,0,.29.011.373.373,0,0,0,.237-.248.473.473,0,0,0-.02-.312.421.421,0,0,0-.233-.265A.393.393,0,0,0,302.074,438.819Z" transform="translate(-281.775 -398.04)"/>
    <polygon class="cls-1" points="21.061 39.876 21.227 40.271 21.11 40.321 21.183 40.495 21.299 40.448 21.686 41.375 21.875 41.296 21.488 40.367 21.684 40.286 21.61 40.111 21.416 40.192 21.251 39.798 21.061 39.876"/>
    <polygon class="cls-4" points="4.359 1.918 4.359 2.264 5.36 2.264 4.166 4.352 5.936 4.352 5.936 4.005 4.768 4.005 5.961 1.918 4.359 1.918"/>
    <path class="cls-4" d="M287.933,402.392h.394l.274-.591h1.04l.256.591h.4l-1.161-2.588-1.2,2.588Zm.822-.939.375-.824.362.824Z" transform="translate(-281.775 -398.04)"/>
    <path class="cls-4" d="M292.043,400.674a.7.7,0,0,0-.292-.573,1.069,1.069,0,0,0-.642-.142h-.431v2.433h.369v-1h.065l.694,1h.449l-.752-1.037a.675.675,0,0,0,.54-.681Zm-1,.4V400.3h.131a.606.606,0,0,1,.362.083.35.35,0,0,1,.146.289.388.388,0,0,1-.154.314.645.645,0,0,1-.369.083Z" transform="translate(-281.775 -398.04)"/>
    <polygon class="cls-4" points="10.928 1.918 10.928 2.264 11.929 2.264 10.735 4.352 12.505 4.352 12.505 4.005 11.338 4.005 12.531 1.918 10.928 1.918"/>
    <path class="cls-4" d="M296.612,402.733c0-.1.051-.164.256-.34l-1.161-2.588-1.2,2.588h.394l.274-.591h1.039l.256.591h.109c-.193.142-.288.282-.288.416a.339.339,0,0,0,.376.318.477.477,0,0,0,.271-.073l.05-.295a.535.535,0,0,1-.249.087.114.114,0,0,1-.123-.113Zm-1.289-1.279.376-.825.362.825Z" transform="translate(-281.775 -398.04)"/>
    <path class="cls-4" d="M298.66,400.2a1.384,1.384,0,0,0-.9-.237h-.511v2.434h.5a1.312,1.312,0,0,0,.892-.234,1.161,1.161,0,0,0,.488-.986,1.177,1.177,0,0,0-.47-.977Zm-.23,1.675a1,1,0,0,1-.65.175h-.164V400.3h.164a1.009,1.009,0,0,1,.65.171.862.862,0,0,1,.333.7A.848.848,0,0,1,298.43,401.871Z" transform="translate(-281.775 -398.04)"/>
    <polygon class="cls-4" points="17.899 1.918 17.899 2.264 18.898 2.264 17.705 4.352 19.475 4.352 19.475 4.005 18.307 4.005 19.5 1.918 17.899 1.918"/>
    <path class="cls-4" d="M301.472,402.392h.394l.274-.591h1.041l.255.591h.4l-1.162-2.588-1.2,2.588Zm.822-.939.376-.824.362.824Z" transform="translate(-281.775 -398.04)"/>
    <polygon class="cls-4" points="24.215 3.607 22.442 1.753 22.442 4.352 22.81 4.352 22.81 2.648 24.585 4.502 24.585 1.918 24.215 1.918 24.215 3.607"/>
    <rect class="cls-5" x="25.24" y="1.918" width="0.371" height="2.433"/>
    <polygon class="cls-4" points="27.609 2.264 27.609 1.918 26.267 1.918 26.267 4.352 27.609 4.352 27.609 4.005 26.635 4.005 26.635 3.195 27.582 3.195 27.582 2.848 26.635 2.848 26.635 2.264 27.609 2.264"/>
    <path class="cls-4" d="M290.076,405.753a1.489,1.489,0,0,1-.036.376.264.264,0,0,1-.259.183.414.414,0,0,1-.249-.092l-.183.315a.762.762,0,0,0,.432.124.614.614,0,0,0,.493-.22.968.968,0,0,0,.171-.686v-1.577h-.369Z" transform="translate(-281.775 -398.04)"/>
    <path class="cls-4" d="M290.737,406.611h.394l.273-.591h1.041l.255.591h.4l-1.161-2.587-1.2,2.587Zm.821-.938.376-.825.361.825Z" transform="translate(-281.775 -398.04)"/>
    <polygon class="cls-4" points="13.509 6.136 13.021 6.136 12.075 7.107 12.075 6.136 11.706 6.136 11.706 8.57 12.075 8.57 12.075 7.563 12.152 7.487 13.028 8.57 13.516 8.57 12.414 7.239 13.509 6.136"/>
    <path class="cls-4" d="M296.712,404.129a1.276,1.276,0,0,0-1.278,1.256,1.216,1.216,0,0,0,.307.843,1.321,1.321,0,0,0,.952.431,1.265,1.265,0,1,0,.019-2.53Zm-.014,2.183a.916.916,0,0,1-.625-.26.866.866,0,0,1-.271-.663.9.9,0,1,1,.9.923Z" transform="translate(-281.775 -398.04)"/>
    <path class="cls-4" d="M299.379,405.162a1.632,1.632,0,0,1-.39-.179.238.238,0,0,1-.118-.2.323.323,0,0,1,.355-.3c.168,0,.251.055.364.241l.3-.18a.707.707,0,0,0-.658-.408.682.682,0,0,0-.73.646c0,.274.161.475.5.617a1.847,1.847,0,0,1,.413.194.37.37,0,0,1,.168.32.4.4,0,0,1-.749.215.642.642,0,0,1-.069-.266l-.372.084a.808.808,0,0,0,.139.4.784.784,0,0,0,1.419-.453C299.948,405.547,299.774,405.327,299.379,405.162Z" transform="translate(-281.775 -398.04)"/>
    <polygon class="cls-4" points="17.169 5.771 17.345 5.917 17.986 5.482 17.677 5.264 17.169 5.771"/>
    <path class="cls-4" d="M300.343,405.407a1.256,1.256,0,0,0,1.259,1.252,1.3,1.3,0,0,0,.661-.182v-.442a.939.939,0,0,1-.657.278.918.918,0,0,1,0-1.836.968.968,0,0,1,.661.266v-.435a1.165,1.165,0,0,0-.636-.178A1.278,1.278,0,0,0,300.343,405.407Z" transform="translate(-281.775 -398.04)"/>
    <rect class="cls-5" x="21.02" y="6.137" width="0.368" height="2.434"/>
    <path class="cls-4" d="M305.773,407.064a.115.115,0,0,1-.125-.113c0-.1.052-.164.256-.339l-1.16-2.589-1.2,2.589h.4l.273-.592h1.041l.254.592h.111c-.194.142-.289.281-.289.415a.34.34,0,0,0,.376.318.466.466,0,0,0,.27-.073l.051-.3a.529.529,0,0,1-.248.088Zm-1.413-1.391.377-.825.36.825Z" transform="translate(-281.775 -398.04)"/>
    <path class="cls-4" d="M286.633,408.178h-.369v2.435h.369v-2.435Zm2.033.362a.7.7,0,0,0-.657-.408.68.68,0,0,0-.73.645c0,.274.161.475.5.618a2.078,2.078,0,0,1,.413.193.371.371,0,0,1,.167.321.4.4,0,0,1-.748.215.64.64,0,0,1-.07-.266l-.372.084a.8.8,0,0,0,.14.394.784.784,0,0,0,1.419-.453c0-.335-.175-.554-.569-.719a1.668,1.668,0,0,1-.391-.179.238.238,0,0,1-.117-.2.323.323,0,0,1,.355-.3c.168,0,.251.055.364.24l.3-.179Zm1.733-.408a1.276,1.276,0,0,0-1.277,1.255,1.217,1.217,0,0,0,.306.843,1.32,1.32,0,0,0,.953.431,1.265,1.265,0,1,0,.018-2.529Zm0,.347a.918.918,0,0,1-.011,1.835.922.922,0,0,1-.625-.259.869.869,0,0,1-.269-.664.9.9,0,0,1,.9-.912Zm3.113,2.219.85-1.158a1.046,1.046,0,0,0,.237-.61.822.822,0,0,0-.824-.791.813.813,0,0,0-.81.813.75.75,0,0,0,.726.763,1.272,1.272,0,0,0,.131-.01l-.58.792.27.2Zm.27-2.227a.46.46,0,1,1-.46.452.461.461,0,0,1,.46-.452Zm2.146-.332c-.493,0-.862.529-.862,1.241a1.594,1.594,0,0,0,.227.895.784.784,0,0,0,.635.379.792.792,0,0,0,.631-.379,1.812,1.812,0,0,0,0-1.756.784.784,0,0,0-.631-.38Zm0,.332a.4.4,0,0,1,.347.241,1.478,1.478,0,0,1,.153.683,1.516,1.516,0,0,1-.153.682.367.367,0,0,1-.69,0,1.6,1.6,0,0,1,0-1.365.391.391,0,0,1,.343-.241Zm2.146-.332c-.492,0-.861.529-.861,1.241a1.6,1.6,0,0,0,.226.895.718.718,0,0,0,1.266,0,1.811,1.811,0,0,0,0-1.756.781.781,0,0,0-.631-.38Zm0,.332a.4.4,0,0,1,.348.241,1.478,1.478,0,0,1,.153.683,1.516,1.516,0,0,1-.153.682.368.368,0,0,1-.691,0,1.487,1.487,0,0,1-.153-.693,1.472,1.472,0,0,1,.153-.672.39.39,0,0,1,.343-.241Zm1.774.051v2.092h.369v-2.436h-.588l-.2.344Zm1.694,1.7a.221.221,0,1,0,0,.442.221.221,0,0,0,0-.442Zm0-1.182a.218.218,0,1,0,.218.218.218.218,0,0,0-.218-.218Zm1.383,1.23.38-.446c.418-.5.521-.682.521-.944a.75.75,0,0,0-.785-.738.726.726,0,0,0-.634.328.883.883,0,0,0-.143.442h.365a.554.554,0,0,1,.084-.266.42.42,0,0,1,.756.234c0,.153-.089.3-.428.715l-.846,1.022h1.634v-.347Zm2.328-2.128c-.492,0-.861.529-.861,1.241a1.6,1.6,0,0,0,.226.895.782.782,0,0,0,.635.379.792.792,0,0,0,.631-.379,1.812,1.812,0,0,0,0-1.756.783.783,0,0,0-.631-.38Zm0,.332a.4.4,0,0,1,.348.241,1.477,1.477,0,0,1,.153.683,1.515,1.515,0,0,1-.153.682.368.368,0,0,1-.691,0,1.488,1.488,0,0,1-.153-.693,1.458,1.458,0,0,1,.153-.672.39.39,0,0,1,.343-.241Zm2.147-.332c-.494,0-.861.529-.861,1.241a1.6,1.6,0,0,0,.225.895.784.784,0,0,0,.636.379.793.793,0,0,0,.631-.379,1.819,1.819,0,0,0,0-1.756.784.784,0,0,0-.631-.38Zm0,.332a.4.4,0,0,1,.346.241,1.463,1.463,0,0,1,.154.683,1.5,1.5,0,0,1-.154.682.367.367,0,0,1-.689,0,1.474,1.474,0,0,1-.153-.693,1.458,1.458,0,0,1,.153-.672.39.39,0,0,1,.343-.241Zm1.708.876a.607.607,0,0,0-.329.573.739.739,0,0,0,.778.734.718.718,0,0,0,.752-.738.621.621,0,0,0-.319-.569.611.611,0,0,0,.268-.511.682.682,0,0,0-.7-.7.689.689,0,0,0-.712.694.61.61,0,0,0,.267.514Zm.442-.876a.365.365,0,1,1-.362.362.364.364,0,0,1,.362-.362Zm-.008,1.04a.4.4,0,1,1-.4.4A.407.407,0,0,1,309.523,409.511Z" transform="translate(-281.775 -398.04)"/>
  </g>
</svg>
