<svg id="Warstwa_1" data-name="Warstwa 1" xmlns="http://www.w3.org/2000/svg" viewBox="0 0 110.909 46.191">
  <defs>
    <style>
      .cls-1 {
        fill: #fff;
        fill-rule: evenodd;
      }
    </style>
  </defs>
  <title>deutche</title>
  <g>
    <path class="cls-1" d="M265.444,425.618a5.672,5.672,0,0,1-3.2.71H257.6c-.139,0-.216-.062-.216-.169v-.37c0-.14.046-.263.278-.263h.154c.493,0,.662-.262.662-1.016v-6.641c0-.755-.169-1.016-.662-1.016h-.154c-.232,0-.278-.124-.278-.262v-.277c0-.171.046-.263.278-.263h4.621a6.968,6.968,0,0,1,2.973.524,4.837,4.837,0,0,1,2.5,4.56,4.914,4.914,0,0,1-2.311,4.483Zm-1.617-8.333a4.681,4.681,0,0,0-2.311-.387h-.709a.15.15,0,0,0-.154.171v7.856c0,.37.231.556.647.556h.508c1.233,0,3.606-.231,3.606-4.361C265.414,419.2,264.953,417.884,263.827,417.285Z" transform="translate(-242.683 -398.459)"/>
    <path class="cls-1" d="M277.742,426.328H274.2c-.139,0-.217-.062-.217-.169v-.37a.292.292,0,0,1,.247-.262l.154-.016c.263-.047.339-.184.339-.369a4.326,4.326,0,0,0-.154-.663l-.523-1.879a.378.378,0,0,0-.109-.2.915.915,0,0,0-.261-.031h-2.589a.9.9,0,0,0-.247.031.417.417,0,0,0-.107.215l-.554,1.864a3,3,0,0,0-.155.663c0,.185.078.322.34.369l.154.016a.266.266,0,0,1,.246.262v.37c0,.107-.077.169-.216.169h-2.511c-.139,0-.216-.062-.216-.169V425.8c0-.123.031-.262.232-.277l.138-.016c.292-.047.523-.322.694-.817l2.541-7.826c.293-.924.4-.986.863-.986h1.495c.384,0,.523.139.77,1.033l2.342,7.811c.169.507.43.738.693.785l.138.016c.2.015.231.154.231.277v.355c0,.107-.077.169-.215.169Zm-4.067-5.053-1.11-3.959c-.015-.078-.046-.186-.123-.186s-.107.123-.123.186l-1.186,3.959a.908.908,0,0,0-.047.2c0,.077.077.107.216.107h2.2c.139,0,.216-.03.216-.107A.978.978,0,0,0,273.675,421.275Z" transform="translate(-242.683 -398.459)"/>
    <path class="cls-1" d="M286.511,426.328h-1.587c-.308,0-.416-.016-.539-.246l-2.234-3.421c-.215-.309-.185-.385-.385-.385h-.061c-.047,0-.139.046-.139.185v2.049c0,.755.169,1.016.662,1.016h.077c.231,0,.278.124.278.263v.369c0,.108-.077.17-.216.17h-3.682c-.139,0-.216-.062-.216-.17v-.369a.248.248,0,0,1,.278-.263h.154c.493,0,.662-.245.662-1.016v-7.071c0-.725-.154-1.063-.6-1.063h-.215a.262.262,0,0,1-.278-.263v-.277a.255.255,0,0,1,.278-.262h2.064c.308,0,.339-.047.508-.047h.077c.077,0,.17.032.17.14v5.839c0,.138.077.185.139.185h.309a.476.476,0,0,0,.338-.185l1.771-1.819a.445.445,0,0,0,.17-.276c0-.062-.046-.139-.108-.139l-.216-.015c-.169-.017-.262-.094-.262-.262v-.262c0-.123.047-.263.277-.263h2.25a.255.255,0,0,1,.277.263v.276c0,.109-.077.216-.277.263l-.247.046c-.307.046-.539.23-.97.662l-1.325,1.326c-.077.077-.139.138-.139.214a.29.29,0,0,0,.076.171l2.22,3.219c.169.246.431.616.662.616a.255.255,0,0,1,.278.263v.276A.263.263,0,0,1,286.511,426.328Z" transform="translate(-242.683 -398.459)"/>
    <path class="cls-1" d="M295.5,426.328h-1.587c-.308,0-.415-.016-.538-.246l-2.235-3.421c-.215-.309-.184-.385-.385-.385h-.062c-.045,0-.138.046-.138.185v2.049c0,.755.169,1.016.662,1.016h.078c.23,0,.277.124.277.263v.369c0,.108-.077.17-.215.17H287.67c-.139,0-.216-.062-.216-.17v-.369a.247.247,0,0,1,.277-.263h.155c.493,0,.662-.245.662-1.016v-7.071c0-.725-.154-1.063-.6-1.063h-.216a.262.262,0,0,1-.277-.263v-.277a.255.255,0,0,1,.277-.262H289.8c.307,0,.338-.047.507-.047h.077c.077,0,.17.032.17.14v5.839c0,.138.077.185.138.185H291a.474.474,0,0,0,.338-.185l1.771-1.819a.442.442,0,0,0,.171-.276c0-.062-.047-.139-.109-.139l-.216-.015c-.169-.017-.261-.094-.261-.262v-.262c0-.123.046-.263.277-.263h2.249a.255.255,0,0,1,.277.263v.276c0,.109-.077.216-.277.263l-.247.046c-.307.046-.539.23-.97.662l-1.325,1.326c-.077.077-.139.138-.139.214a.287.287,0,0,0,.077.171l2.219,3.219c.169.246.431.616.662.616a.255.255,0,0,1,.278.263v.276A.263.263,0,0,1,295.5,426.328Z" transform="translate(-242.683 -398.459)"/>
    <path class="cls-1" d="M299.4,426.467c-1.818,0-2.8-.417-2.8-.863v-1.387a.262.262,0,0,1,.262-.278h.385c.108,0,.185.093.246.293a1.721,1.721,0,0,0,1.958,1.418c1.155,0,1.771-.539,1.771-1.463a1.67,1.67,0,0,0-.955-1.587l-1.694-1.033a2.978,2.978,0,0,1-1.788-2.774c0-1.8,1.079-2.864,3.559-2.864,1.6,0,2.573.416,2.573.862v1.356a.262.262,0,0,1-.262.278h-.4c-.169,0-.185-.108-.231-.278a1.533,1.533,0,0,0-1.741-1.4c-1.186,0-1.648.585-1.648,1.371,0,.848.338,1.156,1.047,1.571l1.511.847a2.978,2.978,0,0,1,1.94,2.99C303.126,425.6,301.678,426.467,299.4,426.467Z" transform="translate(-242.683 -398.459)"/>
    <path class="cls-1" d="M292.339,432.753a3.444,3.444,0,0,1-.162,1.108,2.014,2.014,0,0,1-.474.786,1.982,1.982,0,0,1-.765.467,3.411,3.411,0,0,1-1.079.154h-1.034a.282.282,0,0,1-.165-.058.247.247,0,0,1-.078-.207v-4.356a.243.243,0,0,1,.078-.2.266.266,0,0,1,.165-.06h1.106a3.1,3.1,0,0,1,1.071.165,1.961,1.961,0,0,1,.734.473,1.992,1.992,0,0,1,.45.745,3.012,3.012,0,0,1,.153.988Zm-.683.027a2.675,2.675,0,0,0-.1-.738,1.606,1.606,0,0,0-.308-.591,1.426,1.426,0,0,0-.531-.389,2.086,2.086,0,0,0-.826-.139h-.661v3.8h.668a2.338,2.338,0,0,0,.789-.117,1.3,1.3,0,0,0,.536-.359,1.55,1.55,0,0,0,.323-.606A3.077,3.077,0,0,0,291.655,432.78Z" transform="translate(-242.683 -398.459)"/>
    <path class="cls-1" d="M296.159,433.327a.262.262,0,0,1-.074.21.256.256,0,0,1-.169.062h-2.238a2.1,2.1,0,0,0,.057.51.985.985,0,0,0,.191.388.83.83,0,0,0,.344.249,1.355,1.355,0,0,0,.519.089,2.152,2.152,0,0,0,.433-.04,2.576,2.576,0,0,0,.328-.09,2.287,2.287,0,0,0,.227-.089.412.412,0,0,1,.135-.039.08.08,0,0,1,.048.014.071.071,0,0,1,.032.039.3.3,0,0,1,.017.075.923.923,0,0,1,.006.114c0,.032,0,.06,0,.084a.481.481,0,0,1-.01.065.148.148,0,0,1-.018.051.216.216,0,0,1-.034.043.588.588,0,0,1-.123.068,1.722,1.722,0,0,1-.264.092,3.357,3.357,0,0,1-.376.082,2.713,2.713,0,0,1-.454.036,2.09,2.09,0,0,1-.735-.118,1.348,1.348,0,0,1-.53-.347,1.5,1.5,0,0,1-.325-.577,2.7,2.7,0,0,1-.109-.808,2.516,2.516,0,0,1,.113-.786,1.649,1.649,0,0,1,.327-.594,1.411,1.411,0,0,1,.515-.372,1.838,1.838,0,0,1,1.357,0,1.284,1.284,0,0,1,.462.346,1.366,1.366,0,0,1,.266.51,2.219,2.219,0,0,1,.086.624v.113Zm-.627-.184a1.135,1.135,0,0,0-.218-.77.828.828,0,0,0-.682-.279.932.932,0,0,0-.407.085.867.867,0,0,0-.292.232,1.054,1.054,0,0,0-.183.333,1.5,1.5,0,0,0-.072.4Z" transform="translate(-242.683 -398.459)"/>
    <path class="cls-1" d="M300.009,435.173a.1.1,0,0,1-.014.051.088.088,0,0,1-.046.035.294.294,0,0,1-.089.023.882.882,0,0,1-.134.007.97.97,0,0,1-.142-.007.266.266,0,0,1-.086-.023.091.091,0,0,1-.044-.035.1.1,0,0,1-.01-.051v-.45a2.118,2.118,0,0,1-.575.468,1.238,1.238,0,0,1-.574.148,1.307,1.307,0,0,1-.572-.113,1.006,1.006,0,0,1-.375-.308,1.237,1.237,0,0,1-.206-.453,2.68,2.68,0,0,1-.062-.629v-2.061a.09.09,0,0,1,.013-.051.128.128,0,0,1,.051-.038.356.356,0,0,1,.1-.022c.041,0,.091-.006.151-.006s.112,0,.151.006a.331.331,0,0,1,.1.022.134.134,0,0,1,.051.038.082.082,0,0,1,.015.051v1.979a2.063,2.063,0,0,0,.044.476.925.925,0,0,0,.131.308.642.642,0,0,0,.226.2.7.7,0,0,0,.317.069.8.8,0,0,0,.466-.166,2.7,2.7,0,0,0,.492-.488v-2.374a.089.089,0,0,1,.013-.051.125.125,0,0,1,.051-.038.366.366,0,0,1,.1-.022c.04,0,.092-.006.154-.006s.111,0,.15.006a.311.311,0,0,1,.095.022.179.179,0,0,1,.051.038.078.078,0,0,1,.017.051Z" transform="translate(-242.683 -398.459)"/>
    <path class="cls-1" d="M302.919,434.924a.734.734,0,0,1-.016.174.179.179,0,0,1-.045.094.3.3,0,0,1-.09.057.807.807,0,0,1-.138.042c-.051.012-.106.021-.164.029a1.438,1.438,0,0,1-.174.012,1.375,1.375,0,0,1-.452-.069.75.75,0,0,1-.31-.212.874.874,0,0,1-.176-.36,2.126,2.126,0,0,1-.055-.511v-1.986h-.475a.1.1,0,0,1-.09-.06.413.413,0,0,1-.035-.2.61.61,0,0,1,.01-.122.3.3,0,0,1,.025-.08.087.087,0,0,1,.039-.045.119.119,0,0,1,.054-.013h.472v-.808a.1.1,0,0,1,.014-.05.112.112,0,0,1,.049-.039.343.343,0,0,1,.1-.025,1.333,1.333,0,0,1,.152-.007,1.363,1.363,0,0,1,.154.007.327.327,0,0,1,.095.025.123.123,0,0,1,.048.039.09.09,0,0,1,.016.05v.808h.872a.106.106,0,0,1,.052.013.1.1,0,0,1,.04.045.353.353,0,0,1,.025.08.9.9,0,0,1,.007.122.426.426,0,0,1-.034.2.1.1,0,0,1-.09.06h-.872v1.895a1.087,1.087,0,0,0,.1.531.393.393,0,0,0,.372.179.613.613,0,0,0,.155-.017,1.132,1.132,0,0,0,.121-.035l.091-.035a.14.14,0,0,1,.067-.019.062.062,0,0,1,.036.011.061.061,0,0,1,.026.035.533.533,0,0,1,.018.072A.747.747,0,0,1,302.919,434.924Z" transform="translate(-242.683 -398.459)"/>
    <path class="cls-1" d="M305.875,434.248a1.1,1.1,0,0,1-.1.465.939.939,0,0,1-.275.343,1.188,1.188,0,0,1-.422.211,1.913,1.913,0,0,1-.54.073,2.13,2.13,0,0,1-.346-.029,2.174,2.174,0,0,1-.294-.071,1.968,1.968,0,0,1-.221-.091.594.594,0,0,1-.131-.086.2.2,0,0,1-.061-.1.718.718,0,0,1-.019-.185.792.792,0,0,1,.008-.121.358.358,0,0,1,.019-.079.075.075,0,0,1,.032-.043.091.091,0,0,1,.047-.013.263.263,0,0,1,.123.051c.054.033.12.071.2.11a1.677,1.677,0,0,0,.282.112,1.208,1.208,0,0,0,.374.052,1.152,1.152,0,0,0,.287-.035.729.729,0,0,0,.222-.1.434.434,0,0,0,.145-.167.531.531,0,0,0,.051-.243.383.383,0,0,0-.074-.241.678.678,0,0,0-.194-.174,1.479,1.479,0,0,0-.271-.133l-.312-.123c-.106-.044-.212-.092-.314-.145a1.172,1.172,0,0,1-.272-.2.879.879,0,0,1-.195-.28.931.931,0,0,1-.074-.388.98.98,0,0,1,.077-.383.869.869,0,0,1,.233-.32,1.154,1.154,0,0,1,.386-.223,1.79,1.79,0,0,1,.814-.06,1.838,1.838,0,0,1,.246.058,1.072,1.072,0,0,1,.186.073.662.662,0,0,1,.117.07.2.2,0,0,1,.053.052.164.164,0,0,1,.019.052c0,.018.007.041.011.07a1.011,1.011,0,0,1,0,.1c0,.043,0,.08,0,.111a.241.241,0,0,1-.019.078.089.089,0,0,1-.032.043.063.063,0,0,1-.042.014.219.219,0,0,1-.1-.042,1.124,1.124,0,0,0-.165-.088,1.817,1.817,0,0,0-.24-.089,1.079,1.079,0,0,0-.315-.042.973.973,0,0,0-.279.036.512.512,0,0,0-.2.1.434.434,0,0,0-.117.155.483.483,0,0,0-.039.2.4.4,0,0,0,.075.247.717.717,0,0,0,.2.175,1.533,1.533,0,0,0,.276.136c.1.041.208.081.314.126a3.246,3.246,0,0,1,.317.143,1.152,1.152,0,0,1,.278.192.849.849,0,0,1,.194.272A.892.892,0,0,1,305.875,434.248Z" transform="translate(-242.683 -398.459)"/>
    <path class="cls-1" d="M309.208,434.656c0,.044,0,.08,0,.112a.47.47,0,0,1-.012.08.342.342,0,0,1-.024.055.366.366,0,0,1-.06.073.9.9,0,0,1-.161.116,1.583,1.583,0,0,1-.255.126,1.962,1.962,0,0,1-.306.087,1.7,1.7,0,0,1-.345.035,1.657,1.657,0,0,1-.649-.121,1.223,1.223,0,0,1-.473-.353,1.574,1.574,0,0,1-.291-.57,2.756,2.756,0,0,1-.1-.781,2.719,2.719,0,0,1,.122-.862,1.653,1.653,0,0,1,.336-.59,1.334,1.334,0,0,1,.5-.341,1.684,1.684,0,0,1,.625-.111,1.484,1.484,0,0,1,.315.03,1.655,1.655,0,0,1,.281.078,1.2,1.2,0,0,1,.228.114.922.922,0,0,1,.147.109.641.641,0,0,1,.062.071.266.266,0,0,1,.028.064.305.305,0,0,1,.015.08c0,.03,0,.067,0,.113a.451.451,0,0,1-.034.208.1.1,0,0,1-.083.057.221.221,0,0,1-.131-.062,1.834,1.834,0,0,0-.186-.138,1.3,1.3,0,0,0-.275-.137,1.018,1.018,0,0,0-.378-.064.792.792,0,0,0-.69.347,1.764,1.764,0,0,0-.239,1,2.353,2.353,0,0,0,.062.577,1.236,1.236,0,0,0,.183.413.77.77,0,0,0,.3.247,1.052,1.052,0,0,0,.78.012,1.564,1.564,0,0,0,.28-.148c.08-.054.147-.1.2-.147a.24.24,0,0,1,.127-.067.1.1,0,0,1,.046.014.132.132,0,0,1,.031.053.406.406,0,0,1,.019.09A1.225,1.225,0,0,1,309.208,434.656Z" transform="translate(-242.683 -398.459)"/>
    <path class="cls-1" d="M312.952,435.173a.086.086,0,0,1-.015.051.111.111,0,0,1-.049.035.316.316,0,0,1-.094.023,1.117,1.117,0,0,1-.152.007,1.152,1.152,0,0,1-.154-.007.325.325,0,0,1-.095-.023.1.1,0,0,1-.048-.035.081.081,0,0,1-.016-.051v-1.99a1.978,1.978,0,0,0-.044-.468.963.963,0,0,0-.133-.305.555.555,0,0,0-.225-.2.7.7,0,0,0-.319-.068.8.8,0,0,0-.468.166,2.557,2.557,0,0,0-.491.486v2.375a.087.087,0,0,1-.015.051.1.1,0,0,1-.049.035.318.318,0,0,1-.1.023,1.125,1.125,0,0,1-.154.007,1.112,1.112,0,0,1-.151-.007.334.334,0,0,1-.1-.023.1.1,0,0,1-.05-.035.1.1,0,0,1-.012-.051v-5.043a.109.109,0,0,1,.012-.053.1.1,0,0,1,.05-.038.367.367,0,0,1,.1-.022,1.457,1.457,0,0,1,.305,0,.349.349,0,0,1,.1.022.1.1,0,0,1,.049.038.091.091,0,0,1,.015.053v2.033a2,2,0,0,1,.54-.419,1.184,1.184,0,0,1,.548-.139,1.287,1.287,0,0,1,.571.116,1.028,1.028,0,0,1,.376.307,1.232,1.232,0,0,1,.206.452,2.731,2.731,0,0,1,.062.624Z" transform="translate(-242.683 -398.459)"/>
    <path class="cls-1" d="M316.98,433.327a.262.262,0,0,1-.074.21.255.255,0,0,1-.169.062H314.5a2.158,2.158,0,0,0,.056.51.987.987,0,0,0,.191.388.837.837,0,0,0,.344.249,1.356,1.356,0,0,0,.52.089,2.165,2.165,0,0,0,.433-.04,2.6,2.6,0,0,0,.327-.09,2.447,2.447,0,0,0,.228-.089.4.4,0,0,1,.134-.039.081.081,0,0,1,.049.014.074.074,0,0,1,.031.039.262.262,0,0,1,.017.075.9.9,0,0,1,.006.114c0,.032,0,.06,0,.084a.462.462,0,0,1-.01.065.128.128,0,0,1-.018.051.236.236,0,0,1-.034.043.6.6,0,0,1-.122.068,1.735,1.735,0,0,1-.265.092,3.346,3.346,0,0,1-.376.082,2.709,2.709,0,0,1-.454.036,2.087,2.087,0,0,1-.735-.118,1.347,1.347,0,0,1-.53-.347,1.485,1.485,0,0,1-.324-.577,2.669,2.669,0,0,1-.11-.808,2.516,2.516,0,0,1,.113-.786,1.668,1.668,0,0,1,.327-.594,1.42,1.42,0,0,1,.515-.372,1.658,1.658,0,0,1,.676-.132,1.636,1.636,0,0,1,.681.128,1.276,1.276,0,0,1,.462.346,1.352,1.352,0,0,1,.266.51,2.212,2.212,0,0,1,.086.624v.113Zm-.627-.184a1.131,1.131,0,0,0-.218-.77.828.828,0,0,0-.682-.279.933.933,0,0,0-.407.085.874.874,0,0,0-.292.232,1.029,1.029,0,0,0-.182.333,1.431,1.431,0,0,0-.072.4Z" transform="translate(-242.683 -398.459)"/>
    <path class="cls-1" d="M292.241,443.044a.446.446,0,0,1,.032.134.1.1,0,0,1-.028.077.2.2,0,0,1-.1.033,1.6,1.6,0,0,1-.187.008c-.078,0-.141,0-.188-.006a.44.44,0,0,1-.1-.018.139.139,0,0,1-.054-.036.386.386,0,0,1-.031-.057l-.419-1.19H289.13l-.4,1.175a.222.222,0,0,1-.031.059.146.146,0,0,1-.055.041.36.36,0,0,1-.1.024,1.355,1.355,0,0,1-.172.008,1.651,1.651,0,0,1-.179-.009.181.181,0,0,1-.1-.037.093.093,0,0,1-.026-.076.5.5,0,0,1,.032-.135l1.639-4.538a.214.214,0,0,1,.039-.067.165.165,0,0,1,.072-.041.591.591,0,0,1,.121-.021c.049,0,.112-.006.187-.006s.147,0,.2.006a.649.649,0,0,1,.129.021.149.149,0,0,1,.075.044.18.18,0,0,1,.042.069l1.638,4.538Zm-2.1-4.006h0l-.841,2.435h1.7Z" transform="translate(-242.683 -398.459)"/>
    <path class="cls-1" d="M295.766,443.175a.091.091,0,0,1-.016.053.113.113,0,0,1-.051.038.342.342,0,0,1-.1.022,1.262,1.262,0,0,1-.163.008c-.068,0-.124,0-.168-.006a.448.448,0,0,1-.111-.019.192.192,0,0,1-.074-.037.332.332,0,0,1-.051-.059l-1.434-1.88v1.885a.1.1,0,0,1-.015.051.109.109,0,0,1-.05.035.315.315,0,0,1-.094.022,1.122,1.122,0,0,1-.155.008,1.075,1.075,0,0,1-.15-.008.361.361,0,0,1-.1-.022.1.1,0,0,1-.049-.035.1.1,0,0,1-.013-.051v-5.044a.1.1,0,0,1,.013-.053.106.106,0,0,1,.049-.038.4.4,0,0,1,.1-.021.9.9,0,0,1,.15-.009.941.941,0,0,1,.155.009.346.346,0,0,1,.094.021.113.113,0,0,1,.05.038.1.1,0,0,1,.015.053v3.073l1.283-1.411a.318.318,0,0,1,.064-.063.4.4,0,0,1,.082-.042.5.5,0,0,1,.111-.023c.043,0,.1-.005.155-.005s.115,0,.159.005a.544.544,0,0,1,.1.02.118.118,0,0,1,.056.033.08.08,0,0,1,.018.054.193.193,0,0,1-.025.091.492.492,0,0,1-.081.106l-1.23,1.231L295.675,443a.729.729,0,0,1,.07.1A.16.16,0,0,1,295.766,443.175Z" transform="translate(-242.683 -398.459)"/>
    <path class="cls-1" d="M299.273,443.175a.093.093,0,0,1-.015.053.114.114,0,0,1-.051.038.342.342,0,0,1-.1.022,1.245,1.245,0,0,1-.162.008c-.068,0-.124,0-.169-.006a.438.438,0,0,1-.11-.019.2.2,0,0,1-.075-.037.3.3,0,0,1-.05-.059l-1.434-1.88v1.885a.089.089,0,0,1-.016.051.105.105,0,0,1-.049.035.323.323,0,0,1-.094.022,1.134,1.134,0,0,1-.155.008,1.065,1.065,0,0,1-.15-.008.341.341,0,0,1-.1-.022.106.106,0,0,1-.05-.035.1.1,0,0,1-.012-.051v-5.044a.1.1,0,0,1,.012-.053.11.11,0,0,1,.05-.038.376.376,0,0,1,.1-.021.893.893,0,0,1,.15-.009.95.95,0,0,1,.155.009.356.356,0,0,1,.094.021.109.109,0,0,1,.049.038.094.094,0,0,1,.016.053v3.073l1.282-1.411a.331.331,0,0,1,.064-.063.425.425,0,0,1,.082-.042.52.52,0,0,1,.111-.023c.043,0,.095-.005.156-.005s.115,0,.158.005a.562.562,0,0,1,.1.02.118.118,0,0,1,.056.033.084.084,0,0,1,.017.054.193.193,0,0,1-.025.091.456.456,0,0,1-.081.106L297.8,441.2,299.183,443a.753.753,0,0,1,.069.1A.159.159,0,0,1,299.273,443.175Z" transform="translate(-242.683 -398.459)"/>
    <path class="cls-1" d="M301.975,440c0,.056,0,.1,0,.14a.365.365,0,0,1-.015.089.119.119,0,0,1-.029.049.058.058,0,0,1-.046.016.188.188,0,0,1-.074-.016c-.029-.01-.062-.023-.1-.034s-.076-.022-.122-.033a.771.771,0,0,0-.147-.015.5.5,0,0,0-.185.038.722.722,0,0,0-.191.125,1.622,1.622,0,0,0-.209.23c-.074.1-.153.213-.242.352v2.234a.093.093,0,0,1-.015.052.113.113,0,0,1-.049.035.349.349,0,0,1-.095.022,1.1,1.1,0,0,1-.154.008,1.064,1.064,0,0,1-.151-.008.383.383,0,0,1-.1-.022.114.114,0,0,1-.049-.035.1.1,0,0,1-.013-.052v-3.4a.115.115,0,0,1,.011-.052.121.121,0,0,1,.046-.037.259.259,0,0,1,.087-.023c.035,0,.082-.005.139-.005s.1,0,.138.005a.228.228,0,0,1,.085.023.12.12,0,0,1,.043.037.1.1,0,0,1,.014.052v.494a2.668,2.668,0,0,1,.262-.332,1.447,1.447,0,0,1,.232-.2.74.74,0,0,1,.217-.1.883.883,0,0,1,.217-.029c.033,0,.07,0,.112.006s.084.011.13.021a1.054,1.054,0,0,1,.122.034.368.368,0,0,1,.078.037.143.143,0,0,1,.03.036.2.2,0,0,1,.013.045.394.394,0,0,1,.008.076C301.974,439.9,301.975,439.946,301.975,440Z" transform="translate(-242.683 -398.459)"/>
    <path class="cls-1" d="M305.482,441.332a.266.266,0,0,1-.074.21.254.254,0,0,1-.169.062H303a2.156,2.156,0,0,0,.056.51.981.981,0,0,0,.191.388.834.834,0,0,0,.344.249,1.357,1.357,0,0,0,.52.089,2.155,2.155,0,0,0,.433-.04,2.645,2.645,0,0,0,.327-.09,2.394,2.394,0,0,0,.228-.089.405.405,0,0,1,.134-.039.082.082,0,0,1,.049.014.084.084,0,0,1,.032.039.318.318,0,0,1,.016.074.908.908,0,0,1,.007.115c0,.032,0,.06-.005.084a.5.5,0,0,1-.01.065.129.129,0,0,1-.018.051.206.206,0,0,1-.034.043.563.563,0,0,1-.122.068,1.732,1.732,0,0,1-.265.092,3.494,3.494,0,0,1-.376.082,2.712,2.712,0,0,1-.454.036,2.09,2.09,0,0,1-.735-.118,1.348,1.348,0,0,1-.53-.347,1.477,1.477,0,0,1-.324-.577,2.667,2.667,0,0,1-.11-.808,2.518,2.518,0,0,1,.113-.786,1.671,1.671,0,0,1,.327-.594,1.409,1.409,0,0,1,.515-.372,1.656,1.656,0,0,1,.676-.132,1.639,1.639,0,0,1,.681.128,1.268,1.268,0,0,1,.462.346,1.352,1.352,0,0,1,.266.51,2.219,2.219,0,0,1,.086.624v.113Zm-.627-.184a1.136,1.136,0,0,0-.217-.77.832.832,0,0,0-.683-.279.922.922,0,0,0-.406.085.871.871,0,0,0-.293.232,1.043,1.043,0,0,0-.182.333,1.4,1.4,0,0,0-.072.4Z" transform="translate(-242.683 -398.459)"/>
    <path class="cls-1" d="M309.34,443.18a.1.1,0,0,1-.014.053.092.092,0,0,1-.046.036.377.377,0,0,1-.084.02.92.92,0,0,1-.128.007.989.989,0,0,1-.133-.007.429.429,0,0,1-.086-.02.111.111,0,0,1-.05-.036.1.1,0,0,1-.014-.053v-.45a2.261,2.261,0,0,1-.558.453,1.269,1.269,0,0,1-.631.163,1.308,1.308,0,0,1-.639-.145,1.227,1.227,0,0,1-.428-.393,1.745,1.745,0,0,1-.24-.581,3.206,3.206,0,0,1-.075-.705,3.052,3.052,0,0,1,.095-.79,1.771,1.771,0,0,1,.278-.6,1.257,1.257,0,0,1,.459-.383,1.43,1.43,0,0,1,.632-.133,1.142,1.142,0,0,1,.545.129,1.976,1.976,0,0,1,.49.383v-1.973a.109.109,0,0,1,.013-.052.083.083,0,0,1,.051-.037.511.511,0,0,1,.1-.023,1.03,1.03,0,0,1,.149-.009,1.093,1.093,0,0,1,.155.009.417.417,0,0,1,.094.023.1.1,0,0,1,.051.037.088.088,0,0,1,.018.052v5.028Zm-.627-2.39a2.453,2.453,0,0,0-.49-.477.85.85,0,0,0-.492-.165.706.706,0,0,0-.4.113.874.874,0,0,0-.27.3,1.435,1.435,0,0,0-.15.418,2.379,2.379,0,0,0-.047.476,3.064,3.064,0,0,0,.039.5,1.437,1.437,0,0,0,.138.436.844.844,0,0,0,.26.305.686.686,0,0,0,.408.115.812.812,0,0,0,.239-.033.908.908,0,0,0,.237-.114,1.847,1.847,0,0,0,.253-.2,3.085,3.085,0,0,0,.279-.313Z" transform="translate(-242.683 -398.459)"/>
    <path class="cls-1" d="M311.171,438.634a.41.41,0,0,1-.083.3.626.626,0,0,1-.607,0,.575.575,0,0,1,0-.591.626.626,0,0,1,.605,0,.4.4,0,0,1,.082.293Zm-.072,4.545a.084.084,0,0,1-.016.051.1.1,0,0,1-.048.035.342.342,0,0,1-.1.023,1.272,1.272,0,0,1-.154.007,1.242,1.242,0,0,1-.151-.007.365.365,0,0,1-.1-.023.1.1,0,0,1-.049-.035.1.1,0,0,1-.013-.051v-3.4a.1.1,0,0,1,.013-.05.1.1,0,0,1,.049-.037.571.571,0,0,1,.1-.023c.039,0,.091-.007.151-.007s.114,0,.154.007a.525.525,0,0,1,.1.023.1.1,0,0,1,.048.037.086.086,0,0,1,.016.05Z" transform="translate(-242.683 -398.459)"/>
    <path class="cls-1" d="M315.205,439.684a.19.19,0,0,1,.156.052.222.222,0,0,1,.041.147v3.3a.1.1,0,0,1-.015.052.105.105,0,0,1-.052.034.325.325,0,0,1-.095.024,1.226,1.226,0,0,1-.147.006,1.345,1.345,0,0,1-.156-.006.342.342,0,0,1-.1-.024.1.1,0,0,1-.051-.034.1.1,0,0,1-.014-.052V440.2H313.02v1.9a1.105,1.105,0,0,0,.1.531.394.394,0,0,0,.372.178.559.559,0,0,0,.155-.017.942.942,0,0,0,.121-.036.879.879,0,0,0,.09-.035.164.164,0,0,1,.069-.017.054.054,0,0,1,.035.01.062.062,0,0,1,.026.034.3.3,0,0,1,.017.073.608.608,0,0,1,.008.114.871.871,0,0,1-.014.171.218.218,0,0,1-.046.094.264.264,0,0,1-.09.059.715.715,0,0,1-.139.042,1.584,1.584,0,0,1-.337.041,1.353,1.353,0,0,1-.453-.069.752.752,0,0,1-.31-.211.893.893,0,0,1-.175-.36,2.074,2.074,0,0,1-.055-.512V440.2h-.476a.1.1,0,0,1-.09-.06.425.425,0,0,1-.034-.2.694.694,0,0,1,.009-.121.371.371,0,0,1,.025-.08.083.083,0,0,1,.039-.046.123.123,0,0,1,.055-.013h.472v-.807a.107.107,0,0,1,.013-.051.127.127,0,0,1,.049-.039.389.389,0,0,1,.1-.024,1.066,1.066,0,0,1,.15-.008,1.132,1.132,0,0,1,.156.008.33.33,0,0,1,.093.024.154.154,0,0,1,.05.039.1.1,0,0,1,.015.051v.807Zm.268-1.049a.4.4,0,0,0-.081-.294.444.444,0,0,0-.3-.077.453.453,0,0,0-.307.079.581.581,0,0,0,0,.592.626.626,0,0,0,.607,0A.416.416,0,0,0,315.473,438.635Z" transform="translate(-242.683 -398.459)"/>
    <path class="cls-1" d="M319.457,441.332a.267.267,0,0,1-.074.21.257.257,0,0,1-.169.062h-2.238a2.1,2.1,0,0,0,.057.51.981.981,0,0,0,.191.388.828.828,0,0,0,.344.249,1.354,1.354,0,0,0,.519.089,2.146,2.146,0,0,0,.433-.04,2.657,2.657,0,0,0,.328-.09,2.287,2.287,0,0,0,.227-.089.416.416,0,0,1,.135-.039.086.086,0,0,1,.049.014.083.083,0,0,1,.031.039.325.325,0,0,1,.017.074.932.932,0,0,1,.006.115c0,.032,0,.06,0,.084a.493.493,0,0,1-.01.065.142.142,0,0,1-.018.051.257.257,0,0,1-.034.043.58.58,0,0,1-.123.068,1.714,1.714,0,0,1-.264.092,3.485,3.485,0,0,1-.376.082,2.709,2.709,0,0,1-.454.036,2.083,2.083,0,0,1-.735-.118,1.349,1.349,0,0,1-.53-.347,1.5,1.5,0,0,1-.325-.577,2.7,2.7,0,0,1-.109-.808,2.509,2.509,0,0,1,.113-.786,1.658,1.658,0,0,1,.327-.594,1.414,1.414,0,0,1,.514-.372,1.664,1.664,0,0,1,.677-.132,1.641,1.641,0,0,1,.681.128,1.283,1.283,0,0,1,.462.346,1.362,1.362,0,0,1,.266.51,2.253,2.253,0,0,1,.086.624v.113Zm-.627-.184a1.143,1.143,0,0,0-.218-.77.83.83,0,0,0-.682-.279.929.929,0,0,0-.407.085.867.867,0,0,0-.292.232,1.066,1.066,0,0,0-.183.333,1.464,1.464,0,0,0-.072.4Z" transform="translate(-242.683 -398.459)"/>
    <path class="cls-1" d="M322.382,440c0,.056,0,.1,0,.14a.38.38,0,0,1-.014.089.117.117,0,0,1-.03.049.055.055,0,0,1-.045.016.186.186,0,0,1-.074-.016c-.029-.01-.062-.023-.1-.034s-.077-.022-.123-.033a.751.751,0,0,0-.146-.015.5.5,0,0,0-.185.038.705.705,0,0,0-.191.125,1.542,1.542,0,0,0-.209.23c-.074.1-.153.213-.242.352v2.234a.1.1,0,0,1-.015.052.119.119,0,0,1-.049.035.358.358,0,0,1-.1.022,1.1,1.1,0,0,1-.154.008,1.066,1.066,0,0,1-.151-.008.371.371,0,0,1-.1-.022.1.1,0,0,1-.049-.035.1.1,0,0,1-.013-.052v-3.4a.116.116,0,0,1,.011-.052.121.121,0,0,1,.046-.037.259.259,0,0,1,.086-.023c.036,0,.083-.005.14-.005s.1,0,.138.005a.24.24,0,0,1,.085.023.126.126,0,0,1,.043.037.105.105,0,0,1,.014.052v.494a2.668,2.668,0,0,1,.262-.332,1.447,1.447,0,0,1,.232-.2.74.74,0,0,1,.217-.1.883.883,0,0,1,.217-.029c.032,0,.07,0,.112.006s.084.011.13.021a1.054,1.054,0,0,1,.122.034.36.36,0,0,1,.078.037.143.143,0,0,1,.03.036.209.209,0,0,1,.013.045.437.437,0,0,1,.007.076C322.381,439.9,322.382,439.946,322.382,440Z" transform="translate(-242.683 -398.459)"/>
    <path class="cls-1" d="M325.994,443.179a.1.1,0,0,1-.014.051.083.083,0,0,1-.046.035.294.294,0,0,1-.089.023.871.871,0,0,1-.133.007.965.965,0,0,1-.143-.007.267.267,0,0,1-.086-.023.089.089,0,0,1-.044-.035.1.1,0,0,1-.01-.051v-.45a2.113,2.113,0,0,1-.575.468,1.234,1.234,0,0,1-.574.148,1.3,1.3,0,0,1-.572-.113,1,1,0,0,1-.375-.308,1.236,1.236,0,0,1-.206-.453,2.7,2.7,0,0,1-.062-.629v-2.061a.09.09,0,0,1,.013-.051.13.13,0,0,1,.051-.038.418.418,0,0,1,.1-.022c.041,0,.091-.006.151-.006s.112,0,.151.006a.391.391,0,0,1,.1.022.142.142,0,0,1,.051.038.085.085,0,0,1,.015.051v1.979a2.069,2.069,0,0,0,.044.476.919.919,0,0,0,.131.308.646.646,0,0,0,.226.2.7.7,0,0,0,.317.069.8.8,0,0,0,.466-.166,2.7,2.7,0,0,0,.492-.488v-2.374a.1.1,0,0,1,.013-.051.147.147,0,0,1,.051-.038.44.44,0,0,1,.1-.022c.04,0,.092-.006.154-.006s.111,0,.151.006a.346.346,0,0,1,.094.022.212.212,0,0,1,.052.038.085.085,0,0,1,.016.051Z" transform="translate(-242.683 -398.459)"/>
    <path class="cls-1" d="M330.063,443.179a.089.089,0,0,1-.016.051.1.1,0,0,1-.049.035.311.311,0,0,1-.094.023,1.108,1.108,0,0,1-.151.007,1.152,1.152,0,0,1-.155-.007.324.324,0,0,1-.094-.023.1.1,0,0,1-.048-.035.081.081,0,0,1-.016-.051v-1.99a1.977,1.977,0,0,0-.045-.468.943.943,0,0,0-.132-.3.566.566,0,0,0-.225-.2.7.7,0,0,0-.319-.068.794.794,0,0,0-.468.166,2.569,2.569,0,0,0-.492.486v2.375a.088.088,0,0,1-.014.051.107.107,0,0,1-.049.035.317.317,0,0,1-.095.023,1.14,1.14,0,0,1-.154.007,1.124,1.124,0,0,1-.152-.007.354.354,0,0,1-.1-.023.1.1,0,0,1-.049-.035.1.1,0,0,1-.012-.051v-3.4a.11.11,0,0,1,.01-.051.108.108,0,0,1,.046-.038.329.329,0,0,1,.087-.022c.035,0,.081-.006.139-.006s.1,0,.138.006a.288.288,0,0,1,.085.022.132.132,0,0,1,.043.038.092.092,0,0,1,.013.051v.45a2.1,2.1,0,0,1,.572-.471,1.237,1.237,0,0,1,.576-.149,1.281,1.281,0,0,1,.572.116,1.033,1.033,0,0,1,.376.307,1.223,1.223,0,0,1,.2.452,2.637,2.637,0,0,1,.063.62Z" transform="translate(-242.683 -398.459)"/>
    <path class="cls-1" d="M334.03,439.936a.384.384,0,0,1-.036.192.1.1,0,0,1-.092.057h-.487a.783.783,0,0,1,.185.3,1.118,1.118,0,0,1,.052.341,1.339,1.339,0,0,1-.094.52,1.039,1.039,0,0,1-.27.384,1.225,1.225,0,0,1-.417.241,1.671,1.671,0,0,1-.536.082,1.417,1.417,0,0,1-.394-.054.827.827,0,0,1-.289-.139.618.618,0,0,0-.112.156.427.427,0,0,0-.043.2.258.258,0,0,0,.123.219.6.6,0,0,0,.326.1l.888.038a1.867,1.867,0,0,1,.464.069,1.193,1.193,0,0,1,.366.178.824.824,0,0,1,.242.283.832.832,0,0,1,.087.391,1.049,1.049,0,0,1-.1.446,1.022,1.022,0,0,1-.3.371,1.446,1.446,0,0,1-.514.252,2.615,2.615,0,0,1-.74.093,3.054,3.054,0,0,1-.7-.07,1.488,1.488,0,0,1-.473-.19.745.745,0,0,1-.268-.29.807.807,0,0,1-.083-.363.923.923,0,0,1,.031-.242.836.836,0,0,1,.091-.223,1.1,1.1,0,0,1,.155-.2,1.919,1.919,0,0,1,.213-.192.677.677,0,0,1-.273-.237.581.581,0,0,1-.088-.309.882.882,0,0,1,.094-.413,1.392,1.392,0,0,1,.233-.324,1.114,1.114,0,0,1-.184-.314,1.194,1.194,0,0,1-.069-.426,1.315,1.315,0,0,1,.1-.521,1.116,1.116,0,0,1,.272-.388,1.16,1.16,0,0,1,.417-.243,1.588,1.588,0,0,1,.53-.086,2.175,2.175,0,0,1,.288.018,1.646,1.646,0,0,1,.252.047H333.9a.1.1,0,0,1,.1.062.425.425,0,0,1,.032.19Zm-.661,3.586a.377.377,0,0,0-.179-.336.888.888,0,0,0-.484-.128l-.88-.03a1.53,1.53,0,0,0-.2.18,1,1,0,0,0-.122.162.552.552,0,0,0-.063.152.685.685,0,0,0-.016.156.4.4,0,0,0,.249.371,1.553,1.553,0,0,0,.694.127,1.686,1.686,0,0,0,.474-.056.877.877,0,0,0,.307-.145.527.527,0,0,0,.168-.207.609.609,0,0,0,.051-.246Zm-.313-2.691a.732.732,0,0,0-.191-.541.718.718,0,0,0-.541-.2.782.782,0,0,0-.315.061.654.654,0,0,0-.224.166.713.713,0,0,0-.131.245.928.928,0,0,0-.043.288.662.662,0,0,0,.724.72.813.813,0,0,0,.32-.057.583.583,0,0,0,.225-.163.67.67,0,0,0,.132-.24A.893.893,0,0,0,333.056,440.831Z" transform="translate(-242.683 -398.459)"/>
    <path class="cls-1" d="M336.963,442.254a1.08,1.08,0,0,1-.1.465.939.939,0,0,1-.274.343,1.192,1.192,0,0,1-.422.211,1.91,1.91,0,0,1-.541.073,2.133,2.133,0,0,1-.345-.029,2.1,2.1,0,0,1-.294-.071,1.853,1.853,0,0,1-.221-.091.6.6,0,0,1-.132-.086.205.205,0,0,1-.06-.105.657.657,0,0,1-.019-.184.859.859,0,0,1,.007-.122.484.484,0,0,1,.019-.079.078.078,0,0,1,.032-.043.1.1,0,0,1,.047-.013.259.259,0,0,1,.123.051c.054.033.12.071.2.111a1.825,1.825,0,0,0,.281.111,1.214,1.214,0,0,0,.374.052,1.163,1.163,0,0,0,.287-.035.739.739,0,0,0,.222-.1.445.445,0,0,0,.146-.168.537.537,0,0,0,.051-.242.384.384,0,0,0-.075-.241.673.673,0,0,0-.194-.174,1.448,1.448,0,0,0-.271-.133l-.311-.123c-.107-.044-.212-.092-.314-.145a1.238,1.238,0,0,1-.274-.2.894.894,0,0,1-.194-.28.927.927,0,0,1-.074-.388.965.965,0,0,1,.078-.383.87.87,0,0,1,.232-.32,1.164,1.164,0,0,1,.386-.223,1.661,1.661,0,0,1,.543-.082,1.643,1.643,0,0,1,.271.022,1.735,1.735,0,0,1,.247.058,1.164,1.164,0,0,1,.186.073.667.667,0,0,1,.116.07.211.211,0,0,1,.054.052.216.216,0,0,1,.018.052c0,.018.008.041.012.07a.91.91,0,0,1,.005.1c0,.043,0,.08-.005.111a.267.267,0,0,1-.019.078.1.1,0,0,1-.032.043.063.063,0,0,1-.042.014.214.214,0,0,1-.1-.042,1.122,1.122,0,0,0-.166-.088,1.808,1.808,0,0,0-.24-.089,1.079,1.079,0,0,0-.315-.042.973.973,0,0,0-.279.036.524.524,0,0,0-.2.1.434.434,0,0,0-.117.155.5.5,0,0,0-.039.2.4.4,0,0,0,.075.248.722.722,0,0,0,.2.175,1.514,1.514,0,0,0,.276.136c.1.041.208.081.314.126a3.457,3.457,0,0,1,.317.143,1.116,1.116,0,0,1,.278.192.854.854,0,0,1,.194.272A.889.889,0,0,1,336.963,442.254Z" transform="translate(-242.683 -398.459)"/>
    <path class="cls-1" d="M339.987,442.254a1.08,1.08,0,0,1-.1.465.944.944,0,0,1-.274.343,1.19,1.19,0,0,1-.423.211,1.9,1.9,0,0,1-.54.073,2.123,2.123,0,0,1-.64-.1,1.988,1.988,0,0,1-.221-.091.6.6,0,0,1-.131-.086.213.213,0,0,1-.061-.105.721.721,0,0,1-.018-.184.811.811,0,0,1,.007-.122.355.355,0,0,1,.019-.079.08.08,0,0,1,.032-.043.091.091,0,0,1,.047-.013.258.258,0,0,1,.123.051c.054.033.12.071.2.111a1.79,1.79,0,0,0,.283.111,1.2,1.2,0,0,0,.373.052,1.155,1.155,0,0,0,.287-.035.729.729,0,0,0,.222-.1.436.436,0,0,0,.145-.168.526.526,0,0,0,.051-.242.385.385,0,0,0-.074-.241.677.677,0,0,0-.194-.174,1.475,1.475,0,0,0-.271-.133l-.312-.123c-.106-.044-.211-.092-.314-.145a1.178,1.178,0,0,1-.272-.2.88.88,0,0,1-.195-.28.927.927,0,0,1-.074-.388.98.98,0,0,1,.077-.383.884.884,0,0,1,.233-.32,1.154,1.154,0,0,1,.386-.223,1.658,1.658,0,0,1,.543-.082,1.64,1.64,0,0,1,.271.022,1.723,1.723,0,0,1,.246.058,1.082,1.082,0,0,1,.186.073.677.677,0,0,1,.117.07.186.186,0,0,1,.053.052.148.148,0,0,1,.019.052c0,.018.007.041.011.07a.734.734,0,0,1,.006.1.907.907,0,0,1-.006.111.269.269,0,0,1-.018.078.1.1,0,0,1-.033.043.061.061,0,0,1-.041.014.215.215,0,0,1-.1-.042,1.114,1.114,0,0,0-.166-.088,1.792,1.792,0,0,0-.24-.089,1.078,1.078,0,0,0-.315-.042.969.969,0,0,0-.279.036.514.514,0,0,0-.2.1.436.436,0,0,0-.117.155.482.482,0,0,0-.039.2.4.4,0,0,0,.075.248.714.714,0,0,0,.2.175,1.552,1.552,0,0,0,.275.136c.1.041.209.081.315.126a3.322,3.322,0,0,1,.317.143,1.137,1.137,0,0,1,.278.192.855.855,0,0,1,.194.272A.889.889,0,0,1,339.987,442.254Z" transform="translate(-242.683 -398.459)"/>
    <path class="cls-1" d="M342.558,442.93a.738.738,0,0,1-.016.174.183.183,0,0,1-.045.094.314.314,0,0,1-.09.057.876.876,0,0,1-.138.042c-.051.012-.106.021-.164.029a1.422,1.422,0,0,1-.174.012,1.377,1.377,0,0,1-.452-.069.748.748,0,0,1-.31-.212.872.872,0,0,1-.176-.36,2.128,2.128,0,0,1-.055-.512V440.2h-.475a.1.1,0,0,1-.091-.06.432.432,0,0,1-.034-.2.7.7,0,0,1,.009-.121.4.4,0,0,1,.025-.08.093.093,0,0,1,.039-.045.118.118,0,0,1,.055-.013h.472v-.808a.11.11,0,0,1,.013-.051.133.133,0,0,1,.049-.038.363.363,0,0,1,.1-.025,1.333,1.333,0,0,1,.152-.007,1.358,1.358,0,0,1,.154.007.313.313,0,0,1,.094.025.127.127,0,0,1,.049.038.092.092,0,0,1,.016.051v.808h.872a.1.1,0,0,1,.052.013.1.1,0,0,1,.039.045.258.258,0,0,1,.025.08.726.726,0,0,1,.008.121.411.411,0,0,1-.035.2.1.1,0,0,1-.089.06h-.872V442.1a1.086,1.086,0,0,0,.1.531.392.392,0,0,0,.372.178.615.615,0,0,0,.155-.016.9.9,0,0,0,.121-.036c.035-.012.065-.025.09-.035a.154.154,0,0,1,.068-.018.061.061,0,0,1,.036.011.058.058,0,0,1,.026.035.454.454,0,0,1,.017.072A.608.608,0,0,1,342.558,442.93Z" transform="translate(-242.683 -398.459)"/>
    <path class="cls-1" d="M346.2,441.332a.267.267,0,0,1-.074.21.254.254,0,0,1-.169.062h-2.237a2.146,2.146,0,0,0,.056.51.979.979,0,0,0,.191.388.833.833,0,0,0,.344.249,1.356,1.356,0,0,0,.52.089,2.155,2.155,0,0,0,.433-.04,2.6,2.6,0,0,0,.327-.09,2.43,2.43,0,0,0,.228-.089.4.4,0,0,1,.134-.039.082.082,0,0,1,.049.014.086.086,0,0,1,.032.039.323.323,0,0,1,.016.074.954.954,0,0,1,.006.115c0,.032,0,.06,0,.084a.5.5,0,0,1-.01.065.127.127,0,0,1-.018.051.2.2,0,0,1-.034.043.583.583,0,0,1-.122.068,1.732,1.732,0,0,1-.265.092,3.5,3.5,0,0,1-.376.082,2.712,2.712,0,0,1-.454.036,2.09,2.09,0,0,1-.735-.118,1.35,1.35,0,0,1-.53-.347,1.485,1.485,0,0,1-.324-.577,2.667,2.667,0,0,1-.11-.808,2.482,2.482,0,0,1,.114-.786,1.654,1.654,0,0,1,.326-.594,1.417,1.417,0,0,1,.515-.372,1.659,1.659,0,0,1,.676-.132,1.638,1.638,0,0,1,.681.128,1.265,1.265,0,0,1,.462.346,1.35,1.35,0,0,1,.266.51,2.219,2.219,0,0,1,.086.624v.113Zm-.627-.184a1.136,1.136,0,0,0-.217-.77.833.833,0,0,0-.683-.279.924.924,0,0,0-.406.085.873.873,0,0,0-.293.232,1.048,1.048,0,0,0-.182.333,1.431,1.431,0,0,0-.072.4Z" transform="translate(-242.683 -398.459)"/>
    <path class="cls-1" d="M347.767,443.179a.088.088,0,0,1-.015.051.1.1,0,0,1-.049.035.315.315,0,0,1-.094.023,1.148,1.148,0,0,1-.155.007,1.108,1.108,0,0,1-.151-.007.357.357,0,0,1-.1-.023.082.082,0,0,1-.062-.086v-5.043a.11.11,0,0,1,.013-.053.1.1,0,0,1,.049-.038.408.408,0,0,1,.1-.022,1.075,1.075,0,0,1,.151-.008,1.111,1.111,0,0,1,.155.008.358.358,0,0,1,.094.022.1.1,0,0,1,.049.038.092.092,0,0,1,.015.053Z" transform="translate(-242.683 -398.459)"/>
    <path class="cls-1" d="M349.541,443.179a.082.082,0,0,1-.016.051.1.1,0,0,1-.049.035.311.311,0,0,1-.094.023,1.125,1.125,0,0,1-.154.007,1.094,1.094,0,0,1-.151-.007.349.349,0,0,1-.1-.023.1.1,0,0,1-.049-.035.1.1,0,0,1-.013-.051v-5.043a.089.089,0,0,1,.062-.091.4.4,0,0,1,.1-.022,1.06,1.06,0,0,1,.151-.008,1.089,1.089,0,0,1,.154.008.351.351,0,0,1,.094.022.1.1,0,0,1,.049.038.085.085,0,0,1,.016.053Z" transform="translate(-242.683 -398.459)"/>
    <path class="cls-1" d="M353.592,441.332a.267.267,0,0,1-.074.21.257.257,0,0,1-.169.062h-2.238a2.1,2.1,0,0,0,.057.51.983.983,0,0,0,.191.388.827.827,0,0,0,.344.249,1.355,1.355,0,0,0,.519.089,2.147,2.147,0,0,0,.433-.04,2.662,2.662,0,0,0,.328-.09,2.284,2.284,0,0,0,.227-.089.417.417,0,0,1,.135-.039.081.081,0,0,1,.048.014.075.075,0,0,1,.032.039.315.315,0,0,1,.017.074.934.934,0,0,1,.006.115c0,.032,0,.06,0,.084a.462.462,0,0,1-.01.065.144.144,0,0,1-.018.051.222.222,0,0,1-.034.043.571.571,0,0,1-.123.068,1.718,1.718,0,0,1-.264.092,3.485,3.485,0,0,1-.376.082,2.709,2.709,0,0,1-.454.036,2.087,2.087,0,0,1-.735-.118,1.349,1.349,0,0,1-.53-.347,1.5,1.5,0,0,1-.325-.577,2.7,2.7,0,0,1-.109-.808,2.514,2.514,0,0,1,.113-.786,1.66,1.66,0,0,1,.327-.594,1.415,1.415,0,0,1,.514-.372,1.664,1.664,0,0,1,.677-.132,1.64,1.64,0,0,1,.681.128,1.283,1.283,0,0,1,.462.346,1.362,1.362,0,0,1,.266.51,2.212,2.212,0,0,1,.086.624v.113Zm-.627-.184a1.135,1.135,0,0,0-.218-.77.83.83,0,0,0-.682-.279.929.929,0,0,0-.407.085.866.866,0,0,0-.292.232,1.066,1.066,0,0,0-.183.333,1.472,1.472,0,0,0-.072.4Z" transform="translate(-242.683 -398.459)"/>
    <path class="cls-1" d="M274.421,404.739a17.874,17.874,0,0,0-13.011-2.345,19.226,19.226,0,0,0-10.3,5.787c-.1.12-.2.243-.31.363l-.073.089,1.852,1.535a18.07,18.07,0,0,1,9.3-5.88,18.6,18.6,0,0,1,19.152,7.845A19.42,19.42,0,0,0,274.421,404.739Z" transform="translate(-242.683 -398.459)"/>
    <path class="cls-1" d="M248.631,409.445c.878-1.254,1.5-1.995,1.5-1.995a20.95,20.95,0,0,1,11.578-6.721c2.831-.5,9.147-1.11,14.884,2.336a22.542,22.542,0,0,1,8.415,8.426,22.014,22.014,0,0,0-6.767-8.574c-5.078-4.11-12.13-4.971-16.8-4.206s-11.777,4.1-15.431,10.375c-.045.082-.089.159-.136.24l2.065,1.2C248.152,410.16,248.383,409.8,248.631,409.445Z" transform="translate(-242.683 -398.459)"/>
    <path class="cls-1" d="M271.5,407.264a14.739,14.739,0,0,0-10.162-1.153,15.831,15.831,0,0,0-8.635,5.822c-.161.235-.316.478-.46.727-.077.119-.151.238-.223.357l2.09,1.2A14.207,14.207,0,0,1,261.865,408a15.088,15.088,0,0,1,9.723.609,15.4,15.4,0,0,1,5.452,3.914A15.642,15.642,0,0,0,271.5,407.264Z" transform="translate(-242.683 -398.459)"/>
    <path class="cls-1" d="M274.421,437.232a17.876,17.876,0,0,1-13.011,2.347,19.213,19.213,0,0,1-10.3-5.789c-.1-.117-.2-.243-.31-.363l-.073-.087,1.852-1.536a18.07,18.07,0,0,0,9.3,5.879,18.6,18.6,0,0,0,19.152-7.842A19.386,19.386,0,0,1,274.421,437.232Z" transform="translate(-242.683 -398.459)"/>
    <path class="cls-1" d="M248.631,432.526c.878,1.255,1.5,2,1.5,2a20.932,20.932,0,0,0,11.578,6.719c2.831.494,9.147,1.111,14.884-2.335a22.547,22.547,0,0,0,8.415-8.42,22.012,22.012,0,0,1-6.767,8.566c-5.078,4.112-12.13,4.973-16.8,4.208s-11.777-4.1-15.431-10.373c-.045-.083-.089-.162-.136-.242l2.065-1.193C248.152,431.815,248.383,432.172,248.631,432.526Z" transform="translate(-242.683 -398.459)"/>
    <path class="cls-1" d="M271.5,434.708a14.744,14.744,0,0,1-10.162,1.153,15.871,15.871,0,0,1-8.635-5.82c-.161-.235-.316-.476-.46-.727-.077-.117-.151-.238-.223-.357l2.09-1.195a14.192,14.192,0,0,0,7.757,6.206,15.067,15.067,0,0,0,9.723-.609,15.391,15.391,0,0,0,5.452-3.911A15.636,15.636,0,0,1,271.5,434.708Z" transform="translate(-242.683 -398.459)"/>
    <path class="cls-1" d="M251.7,411.34l-1.973-1.375c-.026.038-.053.077-.079.118l-.007.011a19.347,19.347,0,0,0,0,21.786l.007.01.079.119,1.973-1.374a16.929,16.929,0,0,1,0-19.3Z" transform="translate(-242.683 -398.459)"/>
    <path class="cls-1" d="M246.672,428.971a20.836,20.836,0,0,1,0-15.966l.005-.012c.156-.373.331-.749.519-1.127l-2.14-1.038c-.231.46-.445.913-.634,1.367a.186.186,0,0,0-.015.036c-.024.06-.055.122-.078.184v-.005a23.174,23.174,0,0,0,0,17.156v0c.023.06.054.12.078.181a.167.167,0,0,0,.015.038c.189.453.4.906.634,1.365l2.14-1.037c-.188-.378-.363-.753-.519-1.128Z" transform="translate(-242.683 -398.459)"/>
    <path class="cls-1" d="M253.206,425.9a13.536,13.536,0,0,1,0-9.825h0c.1-.258.212-.517.333-.779l-2.191-1c-.157.338-.3.673-.421,1l0,0c-.022.061-.041.121-.063.18-.008.024-.02.047-.027.072h0a16.179,16.179,0,0,0,0,10.88h0c.007.025.019.047.027.072.022.059.041.122.063.18l0,0c.125.331.264.668.421,1l2.191-1c-.121-.26-.231-.52-.333-.777Z" transform="translate(-242.683 -398.459)"/>
  </g>
</svg>
