<svg id="Warstwa_1" data-name="Warstwa 1" xmlns="http://www.w3.org/2000/svg" viewBox="0 0 300.521 218.547">
  <defs>
    <style>
      .cls-1 {
        fill: #fff;
        fill-rule: evenodd;
      }
    </style>
  </defs>
  <title>esta_awards</title>
  <g>
    <path class="cls-1" d="M704.405,984.058c.148.357.607.762.988,1.473a4.406,4.406,0,0,1,.793,2.545,3.961,3.961,0,0,1-3.758,4.137h-.061a3.379,3.379,0,0,1-2.319-.932,4.159,4.159,0,0,1-1.381-3.2,5.231,5.231,0,0,1,1.7-3.651c1.774-1.951,4.529-3.072,4.529-7.431,0-1-.014-1.717-.032-2.24h2.606l3.285-10.164-2.887-12.022H697.549L693.9,964.479s2.641,8.839,3.112,10.194v.081h.034c0,.015.009.015.009,0h2.214v1.88a1.994,1.994,0,0,1-.63,1.562c-.521.525-6.418,3.79-6.816,10.327s3.86,11.944,10.614,10.961c8.483-1.239,9.442-10.7,6.37-14.777S703.8,982.625,704.405,984.058Z" transform="translate(-436.337 -781.053)"/>
    <polygon class="cls-1" points="257.488 123.13 245.098 109.748 240.878 171.481 263.531 171.481 263.517 103.195 257.488 123.13"/>
    <polygon class="cls-1" points="270.626 79.689 284.959 72.472 291.73 171.498 269.075 171.498 269.111 84.699 270.626 79.689"/>
    <path class="cls-1" d="M537.087,995.02l.8,2.558h1.032l-2.555-8.133h-1.152l-2.555,8.133h1l.778-2.558Zm-2.455-.821.733-2.353c.154-.492.268-1,.378-1.47h.022c.11.468.223.954.387,1.484l.746,2.339Zm5.353,3.379h.953v-3.512a1.488,1.488,0,0,1,.079-.516,1.376,1.376,0,0,1,1.209-1.064c.746,0,1.12.663,1.12,1.594v3.5h.957V993.97a1.861,1.861,0,0,1,.079-.53,1.3,1.3,0,0,1,1.164-.954c.778,0,1.164.663,1.164,1.8v3.293h.957v-3.427c0-2.028-1.054-2.534-1.779-2.534a1.726,1.726,0,0,0-1.177.411,2.311,2.311,0,0,0-.611.759h-.022a1.6,1.6,0,0,0-1.507-1.17,1.845,1.845,0,0,0-1.7,1.074h-.035l-.044-.951h-.856c.022.482.047.965.047,1.58v4.258Zm8.891-.277a2.9,2.9,0,0,0,1.511.41,1.768,1.768,0,0,0,2-1.761c0-.869-.488-1.375-1.41-1.751-.7-.3-1.01-.517-1.01-1a.8.8,0,0,1,.888-.793,1.969,1.969,0,0,1,1.1.349l.233-.773a2.332,2.332,0,0,0-1.309-.363,1.72,1.72,0,0,0-1.854,1.714c0,.7.456,1.269,1.432,1.655.711.287.988.554.988,1.06s-.334.869-1.032.869a2.621,2.621,0,0,1-1.3-.41l-.233.8Zm4.985-6.648v1.087h-.831v.807h.831v3.184a2.419,2.419,0,0,0,.378,1.532,1.342,1.342,0,0,0,1.054.448,2.4,2.4,0,0,0,.865-.147l-.044-.807a1.7,1.7,0,0,1-.567.072c-.545,0-.733-.411-.733-1.132v-3.15h1.4v-.807h-1.4v-1.4l-.954.315Zm7.773,4.2a2.871,2.871,0,0,0,.032-.5c0-1.074-.453-2.739-2.219-2.739-1.567,0-2.521,1.375-2.521,3.136s.988,2.958,2.644,2.958a4.033,4.033,0,0,0,1.8-.376l-.176-.759a3.235,3.235,0,0,1-1.488.3,1.79,1.79,0,0,1-1.844-2.025Zm-3.764-.763c.078-.735.5-1.71,1.5-1.71,1.1,0,1.366,1.046,1.357,1.71Zm5.007,3.488h.976v-3.112a3.472,3.472,0,0,1,.035-.5c.132-.8.62-1.351,1.309-1.351a1.428,1.428,0,0,1,.334.024v-1a2.127,2.127,0,0,0-.267-.024,1.653,1.653,0,0,0-1.5,1.279h-.034l-.044-1.156h-.856c.034.541.047,1.132.047,1.82v4.018Zm7.295-8.567V992.5h-.022a1.771,1.771,0,0,0-1.621-.882c-1.3,0-2.42,1.183-2.411,3.126,0,1.775,1.01,2.969,2.31,2.969a1.928,1.928,0,0,0,1.81-1.146h.032l.047,1.012h.865c-.022-.4-.044-.988-.044-1.508v-7.059Zm0,6.118a2.1,2.1,0,0,1-.044.458,1.515,1.515,0,0,1-1.432,1.265c-1.045,0-1.589-.975-1.589-2.158,0-1.279.6-2.243,1.611-2.243a1.473,1.473,0,0,1,1.41,1.217,2.159,2.159,0,0,1,.044.448v1.013Zm6.373-1.136c0-1.156-.4-2.377-2.043-2.377a3.287,3.287,0,0,0-1.778.506l.223.715a2.42,2.42,0,0,1,1.41-.434c1.1-.014,1.221.869,1.221,1.337v.12c-2.077-.01-3.232.763-3.232,2.172a1.6,1.6,0,0,0,1.646,1.679,1.959,1.959,0,0,0,1.643-.869h.031l.079.735h.878a10.405,10.405,0,0,1-.079-1.4v-2.185Zm-.944,1.618a1.26,1.26,0,0,1-.044.338,1.368,1.368,0,0,1-1.322.975.893.893,0,0,1-.91-1.013c0-1.132,1.209-1.337,2.275-1.313v1.012Zm2.521,1.966h.954v-3.512a1.481,1.481,0,0,1,.079-.516,1.375,1.375,0,0,1,1.208-1.064c.746,0,1.121.663,1.121,1.594v3.5h.957V993.97a1.85,1.85,0,0,1,.079-.53,1.3,1.3,0,0,1,1.164-.954c.777,0,1.164.663,1.164,1.8v3.293h.957v-3.427c0-2.028-1.054-2.534-1.778-2.534a1.726,1.726,0,0,0-1.177.411,2.307,2.307,0,0,0-.611.759h-.022a1.6,1.6,0,0,0-1.507-1.17,1.845,1.845,0,0,0-1.7,1.074h-.035l-.044-.951h-.856c.022.482.047.965.047,1.58v4.258Zm9.313,1.413a16.323,16.323,0,0,0,1.067-2.934l-1.089.123a18.938,18.938,0,0,1-.667,2.893Z" transform="translate(-436.337 -781.053)"/>
    <path class="cls-1" d="M592.822,997.578h.976v-7.24h2.288v-.893h-5.542v.893h2.278v7.24Zm4.063,0h.975v-3.523a1.5,1.5,0,0,1,.066-.506,1.438,1.438,0,0,1,1.309-1.05c.922,0,1.246.783,1.246,1.723v3.355h.975V994.1c0-2-1.155-2.486-1.876-2.486a1.881,1.881,0,0,0-1,.291,1.92,1.92,0,0,0-.7.759h-.022v-3.656h-.975v8.567Zm10.48-2.726a2.907,2.907,0,0,0,.031-.5c0-1.074-.453-2.739-2.218-2.739-1.568,0-2.521,1.375-2.521,3.136s.988,2.958,2.643,2.958a4.035,4.035,0,0,0,1.8-.376l-.176-.759a3.238,3.238,0,0,1-1.489.3,1.79,1.79,0,0,1-1.844-2.025Zm-3.764-.763c.079-.735.5-1.71,1.5-1.71,1.1,0,1.366,1.046,1.356,1.71Zm8.3,3.488V994.1c0-1.351-.009-2.329-.066-3.355l.035-.01a23.969,23.969,0,0,0,1.388,2.712l2.376,4.128h.975v-8.133h-.91v3.4c0,1.269.022,2.257.111,3.341l-.032.014a23.622,23.622,0,0,0-1.335-2.644l-2.385-4.114h-1.067v8.133Zm10.681-2.726a2.909,2.909,0,0,0,.031-.5c0-1.074-.453-2.739-2.218-2.739-1.568,0-2.521,1.375-2.521,3.136s.988,2.958,2.644,2.958a4.036,4.036,0,0,0,1.8-.376l-.177-.759a3.235,3.235,0,0,1-1.488.3,1.79,1.79,0,0,1-1.844-2.025Zm-3.764-.763c.079-.735.5-1.71,1.5-1.71,1.1,0,1.366,1.046,1.356,1.71Zm5.227-3.437v1.087h-.831v.807h.831v3.184a2.417,2.417,0,0,0,.378,1.532,1.341,1.341,0,0,0,1.054.448,2.4,2.4,0,0,0,.866-.147l-.044-.807a1.7,1.7,0,0,1-.567.072c-.544,0-.733-.411-.733-1.132v-3.15h1.4v-.807H625v-1.4l-.954.315Zm3.456,6.925h.976v-3.523a1.5,1.5,0,0,1,.066-.506,1.438,1.438,0,0,1,1.309-1.05c.922,0,1.246.783,1.246,1.723v3.355h.976V994.1c0-2-1.155-2.486-1.876-2.486a1.881,1.881,0,0,0-1,.291,1.923,1.923,0,0,0-.7.759h-.022v-3.656H627.5v8.567Zm10.48-2.726a2.907,2.907,0,0,0,.031-.5c0-1.074-.453-2.739-2.219-2.739-1.567,0-2.521,1.375-2.521,3.136s.988,2.958,2.644,2.958a4.033,4.033,0,0,0,1.8-.376l-.176-.759a3.235,3.235,0,0,1-1.488.3,1.79,1.79,0,0,1-1.844-2.025Zm-3.764-.763c.079-.735.5-1.71,1.5-1.71,1.1,0,1.366,1.046,1.356,1.71Zm5.007,3.488h.976v-3.112a3.473,3.473,0,0,1,.034-.5c.132-.8.62-1.351,1.309-1.351a1.426,1.426,0,0,1,.334.024v-1a2.127,2.127,0,0,0-.267-.024,1.653,1.653,0,0,0-1.5,1.279h-.035l-.044-1.156h-.856c.034.541.047,1.132.047,1.82v4.018Zm3.632,0h.975v-8.567h-.975v8.567Zm6.395-3.584c0-1.156-.4-2.377-2.042-2.377a3.288,3.288,0,0,0-1.778.506l.223.715a2.422,2.422,0,0,1,1.41-.434c1.1-.014,1.221.869,1.221,1.337v.12c-2.077-.01-3.232.763-3.232,2.172a1.6,1.6,0,0,0,1.646,1.679,1.959,1.959,0,0,0,1.643-.869h.032l.079.735h.878a10.405,10.405,0,0,1-.079-1.4v-2.185Zm-.944,1.618a1.249,1.249,0,0,1-.044.338,1.368,1.368,0,0,1-1.321.975.893.893,0,0,1-.91-1.013c0-1.132,1.208-1.337,2.275-1.313v1.012Zm2.521,1.966h.976v-3.512a1.644,1.644,0,0,1,.066-.492,1.436,1.436,0,0,1,1.309-1.087c.922,0,1.246.786,1.246,1.727v3.365h.976V994.1c0-2-1.155-2.486-1.9-2.486a1.974,1.974,0,0,0-1.778,1.088h-.022l-.053-.965h-.869c.034.482.047.965.047,1.58v4.258Zm9.825-8.567V992.5h-.022a1.771,1.771,0,0,0-1.621-.882c-1.3,0-2.42,1.183-2.411,3.126,0,1.775,1.01,2.969,2.31,2.969a1.928,1.928,0,0,0,1.81-1.146h.032l.047,1.012h.866c-.022-.4-.044-.988-.044-1.508v-7.059Zm0,6.118a2.1,2.1,0,0,1-.044.458,1.515,1.515,0,0,1-1.432,1.265c-1.045,0-1.589-.975-1.589-2.158,0-1.279.6-2.243,1.611-2.243a1.473,1.473,0,0,1,1.41,1.217,2.159,2.159,0,0,1,.044.448v1.013Zm2.231,2.172a2.9,2.9,0,0,0,1.511.41,1.768,1.768,0,0,0,2-1.761c0-.869-.488-1.375-1.41-1.751-.7-.3-1.01-.517-1.01-1a.8.8,0,0,1,.888-.793,1.969,1.969,0,0,1,1.1.349l.233-.773a2.332,2.332,0,0,0-1.309-.363,1.72,1.72,0,0,0-1.854,1.714c0,.7.456,1.269,1.432,1.655.711.287.988.554.988,1.06s-.334.869-1.032.869a2.621,2.621,0,0,1-1.3-.41Z" transform="translate(-436.337 -781.053)"/>
    <path class="cls-1" d="M544.537,964.5c-.057-3.925-2.722-5.16-5.648-5.16-6.7,0-6.826,5.477-6.826,11.214,0,4.957.723,9.483,6.4,9.483,4.526,0,6.566-2.609,6.566-7.249,0-3.64-1.349-6.339-4.957-6.339a4.389,4.389,0,0,0-3.819,1.747h-.057v-1c0-2.982.349-5.16,2.527-5.16,1.373,0,1.861.918,1.861,2.462Zm-8.142,8.833c0-2.755.634-3.844,2.267-3.844,1.6,0,2.235,1.089,2.235,3.844,0,2.291-.228,4.014-2.235,4.014-1.926,0-2.235-1.69-2.267-4.014Zm15.911,6.306h4.3l.951-4.331H563l.943,4.331h4.3l-5.412-20.469h-5.1l-5.42,20.469Zm7.939-16.91h.057l1.983,9.2H558.27l1.975-9.2Zm13.27,9.2c0-3.356.341-5.071,2.1-5.071,1.715,0,2.064,1.714,2.064,5.071s-.35,5.071-2.064,5.071c-1.755,0-2.1-1.715-2.1-5.071Zm-3.957,12.758h3.957V978.21h.057a3.706,3.706,0,0,0,3.323,1.828c3.242,0,4.73-2.373,4.73-8.11s-1.487-8.11-4.73-8.11a3.742,3.742,0,0,0-3.494,2.032h-.057v-1.633h-3.787v20.469Zm14.334-5.046h3.957v-9.256a2.677,2.677,0,0,1,2.925-2.787c.4,0,.829.033,1.235.057v-3.779a5.412,5.412,0,0,0-.723-.057,3.989,3.989,0,0,0-3.551,2.462h-.057v-2.064h-3.787v15.423Zm9.694,0h3.957V964.217h-3.957v15.423Zm0-17.317h3.957v-3.38h-3.957v3.38Zm6.883,17.317h3.957V959.171h-3.957v20.469Zm25.321-3.21h-7.655a6.788,6.788,0,0,1,2.089-2.982l2.292-2.121c2.324-2.1,3.161-3.811,3.161-6.452,0-3.494-2.007-5.534-6.078-5.534-4.331,0-6.306,2.121-6.306,5.883V966h3.949c.033-2.154.236-3.957,2.3-3.957,1.284,0,2.007.829,2.007,2.519,0,2.1-.317,3.015-2.129,4.648l-1.658,1.544c-3.015,2.787-4.469,5.274-4.469,8.89h12.5v-3.21Zm5.387-7.565c0-5.225.422-6.826,2.234-6.826,1.771,0,2.235,1.178,2.235,6.282v2.2c0,5.217-.431,6.826-2.235,6.826-1.779,0-2.234-1.178-2.234-6.282v-2.2Zm-4.128,1.316c0,7.192,1.454,9.857,6.363,9.857,6.046,0,6.363-5.185,6.363-10.832,0-7.2-1.463-9.865-6.363-9.865-6.054,0-6.363,5.217-6.363,10.84Zm22.582,9.459v-20.3h-3.039c-.4,2.235-2.064,3.267-4.754,3.267h-.374v2.7H645.5v14.334Zm5.046-19.893V963.3h8.54a35.154,35.154,0,0,0-6.338,16.342h4.331a37.1,37.1,0,0,1,5.965-16.74v-3.153Z" transform="translate(-436.337 -781.053)"/>
    <path class="cls-1" d="M448.68,870.5H483.59v-5.04H454.816v-27.18H480.89v-5.014H454.816v-24.2h27.9v-5.04H448.68V870.5Zm78.986-49.425c0-11.822-5.891-18.155-18.683-18.155-11.919,0-18.956,7.151-18.956,17.6,0,24.092,33.3,12.825,33.3,32.563,0,9.315-6.164,13.511-14.81,13.511-9.055,0-13.664-5.673-13.664-14.144V849.92H488.69v1.953c0,13.036,7.119,19.738,20.019,19.738,12.491,0,20.783-6.6,20.783-19.448,0-23.353-33.3-12.481-33.3-32.3,0-6.623,4.609-11.928,12.982-11.928s12.328,4.934,12.328,13.141ZM550.439,870.5H556.6V809.071h17.7v-5.04H532.738v5.04h17.7V870.5Zm37.8-24.382L598.823,808.7h.191l10.61,37.418ZM574.767,870.5h6.545l5.591-19.369H610.96l5.591,19.369h6.519l-20.292-66.471h-7.691Z" transform="translate(-436.337 -781.053)"/>
    <path class="cls-1" d="M436.359,924.272h13.3l1.275-8.191h9.932l1.274,8.191h13.281l-11.683-46.791h-15.7l-11.683,46.791ZM459.382,906.9H452.4l3.425-19.857h.133l3.425,19.857Zm31.148,2.953,4.491-32.376H506.3l4.89,32.376h.133l3.368-32.376h12.082l-8.2,46.791H504.9l-4.167-31.448h-.133l-4.167,31.448h-13.7l-8.182-46.791h12.082l3.767,32.376ZM525.9,924.272h13.3l1.275-8.191h9.932l1.275,8.191h13.281l-11.683-46.791h-15.7L525.9,924.272ZM548.925,906.9h-6.983l3.425-19.857h.133l3.425,19.857Zm18.114,17.368h12.482V905.53h3.292c3.025,0,4.091,1.375,4.091,6.687v3.139c0,1.969,0,6.427,1.218,8.916H601.4v-.65a3.311,3.311,0,0,1-1.408-1.449c-.59-.91-.59-4.068-.59-6.483V911.7c0-6.223-1.827-9.975-7.858-10.5v-.13c5.708-.854,8.182-4.9,8.182-11.145,0-7.207-3.615-12.446-13.148-12.446H567.039v46.791Zm12.482-38h2.416c3.767,0,5.309,1.634,5.309,5.442,0,3.344-1.675,5.572-5.233,5.572h-2.492V886.267Zm38.53,0h2.492c4.833,0,5.442,1.969,5.442,14.619,0,12.631-.609,14.6-5.442,14.6h-2.492V886.267Zm-12.482,38H623.7c14.423,0,15.165-11.145,15.165-23.386,0-12.26-.742-23.4-15.165-23.4H605.569v46.791Zm68.879-33.287c0-10.031-4.643-14.414-15.507-14.414-10.541,0-15.717,5.164-15.717,14.6,0,16.588,19.6,12,19.6,21.231,0,2.563-1.465,4.532-4.015,4.532-2.416,0-4.091-1.449-4.091-5.442v-1.115H642.635v1.635c0,9.7,5.766,13.17,16.1,13.17,11.017,0,16.991-4.458,16.991-14.414,0-17.089-20.416-12.575-20.416-21.807,0-2.1,1.217-4.142,3.9-4.142,2.417,0,3.558,2.3,3.558,5.053v1.115Z" transform="translate(-436.337 -781.053)"/>
    <path class="cls-1" d="M436.337,941.49c0,8.067,3.335,11.623,9.257,11.623s9.246-3.556,9.246-11.623-3.324-11.632-9.246-11.632-9.257,3.555-9.257,11.632Zm2.6,0c0-7.281,2.519-9.934,6.658-9.934s6.647,2.653,6.647,9.934-2.507,9.926-6.647,9.926-6.658-2.654-6.658-9.926Zm20.205,11.248h2.587V941.83h10.994v-1.7H461.729V931.94h11.765v-1.706H459.141v22.5Zm27.025,0h14.72v-1.706H488.754v-9.2h10.994v-1.7H488.754V931.94h11.765v-1.706H486.167v22.5Zm31.752,0h2.76l-7.993-11.471,7.475-11.033h-2.6l-6.256,9.139-6.164-9.139h-2.76l7.429,11.033-7.958,11.471h2.6l6.739-9.675,6.727,9.675Zm20.01-7.629c-.288,3.877-2.358,6.307-6,6.307-4.14,0-6.658-2.654-6.658-9.926s2.519-9.934,6.658-9.934c3.726,0,5.715,2.18,5.715,5.235h2.6c0-3.69-2.438-6.933-8.315-6.933-5.922,0-9.257,3.555-9.257,11.632s3.335,11.623,9.257,11.623c5.187,0,8.234-2.868,8.6-8Zm6.049,7.629H558.7v-1.706H546.565v-9.2h10.994v-1.7H546.565V931.94H558.33v-1.706H543.978v22.5Zm18.009,0h14.605v-1.706H564.574v-20.8h-2.587v22.5Zm17.285,0h14.605v-1.706H581.859v-20.8h-2.587v22.5Zm17.284,0h14.72v-1.706H599.143v-9.2h10.994v-1.7H599.143V931.94h11.765v-1.706H596.556v22.5Zm18.009,0h2.587v-19.6h.081l11.075,19.6h3.5v-22.5h-2.6v19.6h-.08l-11.074-19.6h-3.485v22.5Zm36.789-7.629c-.287,3.877-2.357,6.307-6,6.307-4.14,0-6.658-2.654-6.658-9.926s2.519-9.934,6.658-9.934c3.726,0,5.716,2.18,5.716,5.235h2.6c0-3.69-2.438-6.933-8.315-6.933-5.922,0-9.257,3.555-9.257,11.632s3.335,11.623,9.257,11.623c5.187,0,8.234-2.868,8.6-8Zm6.049,7.629h14.72v-1.706H659.991v-9.2h10.994v-1.7H659.991V931.94h11.765v-1.706H657.4Z" transform="translate(-436.337 -781.053)"/>
    <polygon class="cls-1" points="265.886 40.894 300.521 60.421 267.547 77.023 255.997 115.22 229.931 86.993 189.743 90.003 206.517 53.793 192.718 19.028 228.954 26.46 261.545 0 265.886 40.894"/>
    <polygon class="cls-1" points="189.743 90.003 240.878 55.168 206.516 53.793 189.743 90.003"/>
    <polygon class="cls-1" points="228.953 26.46 240.879 55.169 261.545 0.001 228.953 26.46"/>
    <polygon class="cls-1" points="265.886 40.894 240.879 55.169 300.521 60.421 265.886 40.894"/>
    <polygon class="cls-1" points="240.878 55.168 229.93 86.994 255.996 115.219 240.878 55.168"/>
    <polygon class="cls-1" points="228.953 26.46 240.879 55.169 192.717 19.028 228.953 26.46"/>
    <polygon class="cls-1" points="283.194 46.75 280.925 13.483 269.111 15.985 269.111 38.81 283.194 46.75"/>
  </g>
</svg>
