<svg id="Warstwa_1" data-name="Warstwa 1" xmlns="http://www.w3.org/2000/svg" viewBox="0 0 77.213 96.777">
  <defs>
    <style>
      .cls-1, .cls-2 {
        fill: #fff;
      }

      .cls-1 {
        fill-rule: evenodd;
      }
    </style>
  </defs>
  <title>esta_logo</title>
  <g>
    <path class="cls-1" d="M765.437,115.988v1.834h-3.056v3.127H759.37v-3.127H739.575v3.127h-3.01v-3.127h-3.009v-1.834ZM751.617,147.7h11.908l-6.867-26.759h-5.984l.944,26.759Zm-16.024,0H747.5l1.034-26.759H742.6Z" transform="translate(-710.884 -70.465)"/>
    <path class="cls-1" d="M750.2,161.251c.063.137.259.293.419.568a1.6,1.6,0,0,1-1.258,2.576h-.027a1.514,1.514,0,0,1-.983-.359,1.541,1.541,0,0,1-.588-1.236,1.968,1.968,0,0,1,.722-1.407c.753-.751,1.924-1.185,1.924-2.865,0-.383-.007-.659-.015-.861H751.5l1.395-3.919-1.227-4.633h-4.38l-1.548,4.591s1.12,3.4,1.319,3.929v.032h.014s0,0,0,0h.939v.722a.732.732,0,0,1-.265.6c-.222.2-2.726,1.461-2.9,3.98a3.818,3.818,0,0,0,4.507,4.224,3.6,3.6,0,0,0,2.7-5.694C750.765,159.932,749.943,160.7,750.2,161.251Z" transform="translate(-710.884 -70.465)"/>
    <polygon class="cls-1" points="22.81 40.652 22.81 28.922 29.035 28.922 29.035 30.639 25.007 30.639 25.007 33.621 28.733 33.621 28.733 35.336 25.007 35.336 25.007 38.935 29.035 38.935 29.035 40.652 22.81 40.652"/>
    <path class="cls-1" d="M741.373,106.962l2.2,0h.007v.681c0,1.3.458,1.948,1.383,1.948.827,0,1.241-.446,1.241-1.343a1.6,1.6,0,0,0-.458-1.183,10.509,10.509,0,0,0-1.71-1.251,8.547,8.547,0,0,1-1.982-1.634,2.93,2.93,0,0,1-.673-1.938q0-3.1,3.451-3.093a3.278,3.278,0,0,1,2.614.9,4.359,4.359,0,0,1,.778,2.885h0l-2.124,0h0v-.388q0-1.628-1.268-1.629c-.793,0-1.19.368-1.19,1.1a1.289,1.289,0,0,0,.351.954,16.062,16.062,0,0,0,1.739,1.268,9.433,9.433,0,0,1,2.107,1.727,2.962,2.962,0,0,1,.626,1.968,3.406,3.406,0,0,1-.907,2.519,3.531,3.531,0,0,1-2.6.907q-3.573,0-3.572-3.48v-.915Z" transform="translate(-710.884 -70.465)"/>
    <polygon class="cls-1" points="38.587 28.923 45.913 28.923 45.913 30.639 43.348 30.639 43.348 40.652 41.15 40.652 41.15 30.639 38.587 30.639 38.587 28.923"/>
    <path class="cls-1" d="M757.177,111.117l2.814-11.73h2.941l2.687,11.73h-2.363l-.583-2.993H760.13l-.588,2.993Zm3.3-4.712v0h1.863v0l-.887-4.819h.012Z" transform="translate(-710.884 -70.465)"/>
    <polygon class="cls-1" points="54.612 45.517 54.612 47.351 51.556 47.351 51.556 50.477 48.547 50.477 48.547 47.351 28.751 47.351 28.751 50.477 25.741 50.477 25.741 47.351 22.732 47.351 22.732 45.517 54.612 45.517"/>
    <path class="cls-1" d="M738.256,96.924a1.168,1.168,0,0,1-.914-.341l.26-.258a.85.85,0,0,0,.661.249c.336,0,.534-.147.534-.4a.349.349,0,0,0-.1-.268.449.449,0,0,0-.283-.11l-.3-.044a.876.876,0,0,1-.491-.207.644.644,0,0,1-.19-.493.766.766,0,0,1,.866-.761,1.074,1.074,0,0,1,.8.3l-.251.247a.759.759,0,0,0-.563-.2c-.3,0-.471.173-.471.4a.309.309,0,0,0,.1.239.573.573,0,0,0,.29.12l.3.044a.861.861,0,0,1,.482.193.68.68,0,0,1,.21.532C739.185,96.641,738.8,96.924,738.256,96.924Z" transform="translate(-710.884 -70.465)"/>
    <rect class="cls-2" x="29.621" y="23.852" width="0.393" height="2.587"/>
    <polygon class="cls-1" points="33.063 26.438 31.868 24.618 31.868 26.438 31.475 26.438 31.475 23.85 31.836 23.85 33.031 25.667 33.031 23.85 33.423 23.85 33.423 26.438 33.063 26.438"/>
    <path class="cls-1" d="M746.627,96.924a.94.94,0,0,1-.681-.276c-.254-.254-.251-.541-.251-1.039s0-.785.251-1.038a.943.943,0,0,1,.681-.278.89.89,0,0,1,.922.8h-.4a.533.533,0,0,0-.9-.288c-.129.139-.158.288-.158.807s.029.668.158.808a.516.516,0,0,0,.381.156.523.523,0,0,0,.527-.444h.395A.891.891,0,0,1,746.627,96.924Z" transform="translate(-710.884 -70.465)"/>
    <polygon class="cls-1" points="37.984 26.438 37.984 23.85 39.637 23.85 39.637 24.203 38.376 24.203 38.376 24.96 39.451 24.96 39.451 25.306 38.376 25.306 38.376 26.084 39.637 26.084 39.637 26.438 37.984 26.438"/>
    <polygon class="cls-1" points="42.044 26.438 42.044 24.255 41.538 24.696 41.538 24.286 42.044 23.85 42.414 23.85 42.414 26.438 42.044 26.438"/>
    <path class="cls-1" d="M756.119,95.7l-.588,1.2h-.4l.556-1.111a.61.61,0,0,1-.232.039.688.688,0,0,1-.676-.749.736.736,0,0,1,.761-.787.727.727,0,0,1,.768.773,1.45,1.45,0,0,1-.193.637Zm-.575-1.08a.452.452,0,1,0,.4.451A.4.4,0,0,0,755.544,94.623Z" transform="translate(-710.884 -70.465)"/>
    <polygon class="cls-1" points="47.373 26.438 46.973 26.438 47.841 24.182 47.053 24.182 47.053 24.589 46.697 24.589 46.697 23.85 48.239 23.85 48.239 24.182 47.373 26.438"/>
    <path class="cls-1" d="M760.893,96.924a.725.725,0,0,1-.766-.773,1.438,1.438,0,0,1,.193-.637l.588-1.2h.4l-.554,1.112a.583.583,0,0,1,.227-.039.692.692,0,0,1,.68.749.738.738,0,0,1-.763.788Zm0-1.227a.393.393,0,0,0-.393.446.4.4,0,1,0,.393-.446Z" transform="translate(-710.884 -70.465)"/>
    <polygon class="cls-1" points="22.924 71.33 21.675 73.771 20.127 72.979 20.298 72.647 21.478 73.252 21.843 72.537 20.834 72.023 21.005 71.694 22.012 72.208 22.387 71.476 21.205 70.872 21.375 70.538 22.924 71.33"/>
    <path class="cls-1" d="M730.316,139.821a.924.924,0,0,1,.32,1.32l-.969,1.539-.348-.22.958-1.521a.564.564,0,1,0-.953-.6l-.959,1.519-.348-.219.968-1.537A.926.926,0,0,1,730.316,139.821Z" transform="translate(-710.884 -70.465)"/>
    <path class="cls-1" d="M727.1,137.572l-.249,1.266.407.314.7-.916.327.251-1.67,2.178-.834-.644a.779.779,0,0,1-.182-1.148.719.719,0,0,1,.872-.249l.244-1.344.381.293Zm-1.064,2.171.486.373.521-.68-.485-.373a.414.414,0,0,0-.626.058A.418.418,0,0,0,726.032,139.742Z" transform="translate(-710.884 -70.465)"/>
    <path class="cls-1" d="M724.364,135.542a.989.989,0,0,1,.727.273.973.973,0,0,1,.324.7c.015.381-.195.6-.554.988s-.563.612-.944.627a1.026,1.026,0,0,1-1.051-.973c-.014-.378.2-.6.559-.982s.558-.615.938-.632Zm-1.1,1.644a.571.571,0,0,0,.6.551c.2-.017.322-.112.695-.515s.461-.534.461-.734a.562.562,0,0,0-.6-.549c-.2.014-.322.11-.695.514S723.267,136.988,723.267,137.186Z" transform="translate(-710.884 -70.465)"/>
    <path class="cls-1" d="M721.886,134.12l.415.461.8-.722.276.307L721.34,136l-.691-.766a.833.833,0,1,1,1.237-1.112Zm-.944.878.4.444.678-.609-.4-.445a.457.457,0,1,0-.68.61Z" transform="translate(-710.884 -70.465)"/>
    <polygon class="cls-1" points="10.405 61.274 8.21 62.92 7.166 61.527 7.466 61.303 8.261 62.366 8.903 61.883 8.225 60.979 8.52 60.757 9.198 61.664 9.859 61.166 9.061 60.106 9.361 59.881 10.405 61.274"/>
    <path class="cls-1" d="M718.6,127.789l-.37.449.563.914.567-.129.23.375-2.856.588-.176-.283,1.812-2.287.23.373Zm-1.432,1.722,1.261-.276-.442-.715Z" transform="translate(-710.884 -70.465)"/>
    <polygon class="cls-1" points="6.154 54.369 4.979 56.349 6.711 55.498 6.891 55.869 4.43 57.076 4.264 56.736 5.438 54.759 3.709 55.608 3.528 55.239 5.988 54.03 6.154 54.369"/>
    <path class="cls-1" d="M715.207,120.077l-.466.349.334,1.022.583,0,.137.417-2.915-.093-.1-.315,2.295-1.8.137.417Zm-1.792,1.341,1.287.022-.26-.795Z" transform="translate(-710.884 -70.465)"/>
    <path class="cls-1" d="M714.593,117.69a1.226,1.226,0,0,1-.134,1.02l-.33-.206a.889.889,0,0,0,.1-.736c-.081-.346-.278-.514-.537-.453a.372.372,0,0,0-.253.168.479.479,0,0,0-.044.318l.027.321a.909.909,0,0,1-.1.554.671.671,0,0,1-.464.31.805.805,0,0,1-.99-.7,1.126,1.126,0,0,1,.112-.895l.315.2a.794.794,0,0,0-.071.627.434.434,0,0,0,.527.388.332.332,0,0,0,.225-.158.636.636,0,0,0,.056-.327l-.027-.312a.9.9,0,0,1,.086-.541.716.716,0,0,1,.495-.344C714.079,116.8,714.464,117.134,714.593,117.69Z" transform="translate(-710.884 -70.465)"/>
    <path class="cls-1" d="M714.021,114.646a1.223,1.223,0,0,1-.222,1.005l-.31-.234a.892.892,0,0,0,.161-.725c-.051-.353-.232-.536-.495-.5a.371.371,0,0,0-.266.146.462.462,0,0,0-.073.312v.322a.95.95,0,0,1-.144.543.683.683,0,0,1-.49.268.8.8,0,0,1-.924-.785,1.129,1.129,0,0,1,.188-.88l.3.224a.8.8,0,0,0-.126.617c.046.318.254.466.495.431a.335.335,0,0,0,.236-.139.587.587,0,0,0,.08-.32l0-.314a.89.89,0,0,1,.131-.532.723.723,0,0,1,.525-.3C713.586,113.72,713.94,114.082,714.021,114.646Z" transform="translate(-710.884 -70.465)"/>
    <path class="cls-1" d="M713.371,110.736a1.026,1.026,0,0,1,.078,1.434c-.254.281-.558.292-1.085.322s-.829.049-1.114-.205a1.03,1.03,0,0,1-.078-1.432c.256-.283.558-.289,1.085-.319s.832-.053,1.114.2Zm-1.931.417a.569.569,0,0,0,.044.812c.153.124.307.144.859.114s.7-.066.841-.207a.559.559,0,0,0,.146-.414.567.567,0,0,0-.19-.4c-.154-.126-.31-.144-.859-.115S711.578,111.011,711.439,111.153Z" transform="translate(-710.884 -70.465)"/>
    <path class="cls-1" d="M713.671,108.185a.976.976,0,0,1-.317.7c-.281.258-.583.244-1.11.227s-.834-.024-1.092-.3a.974.974,0,0,1-.268-.722.937.937,0,0,1,.875-.941l-.012.419a.561.561,0,0,0-.34.939c.142.139.3.175.852.195s.707-.008.858-.134a.542.542,0,0,0,.18-.4.55.55,0,0,0-.451-.568l.015-.418A.941.941,0,0,1,713.671,108.185Z" transform="translate(-710.884 -70.465)"/>
    <path class="cls-1" d="M714.106,102.9l-.575.1-.173,1.061.515.275-.071.434-2.548-1.429.056-.329,2.867-.541-.07.433Zm-2.212.363,1.134.615.134-.827Z" transform="translate(-710.884 -70.465)"/>
    <polygon class="cls-1" points="1.43 29.579 3.732 30.147 3.632 30.547 1.33 29.979 1.152 30.708 0.789 30.618 1.247 28.762 1.61 28.852 1.43 29.579"/>
    <rect class="cls-2" x="712.103" y="104.539" width="0.412" height="2.744" transform="translate(-162.272 736.734) rotate(-85.318)"/>
    <rect class="cls-2" x="713.595" y="96.681" width="0.412" height="2.743" transform="translate(-306.912 678.073) rotate(-72.353)"/>
    <path class="cls-1" d="M716.123,95.269a1.021,1.021,0,0,1-.533,1.329c-.351.148-.632.031-1.122-.164s-.773-.307-.922-.656a.965.965,0,0,1-.008-.773.994.994,0,0,1,.541-.558c.349-.147.629-.027,1.117.171s.776.3.926.651Zm-1.929-.437a.57.57,0,0,0-.3.751c.085.18.219.261.731.466s.663.239.849.168a.57.57,0,0,0,.3-.751c-.086-.178-.22-.261-.731-.466S714.38,94.764,714.195,94.832Z" transform="translate(-710.884 -70.465)"/>
    <polygon class="cls-1" points="6.926 21.912 4.636 22.148 6.35 23.028 6.163 23.397 3.724 22.145 3.897 21.809 6.184 21.57 4.472 20.69 4.661 20.324 7.099 21.575 6.926 21.912"/>
    <path class="cls-1" d="M720.319,87.879a.985.985,0,0,1-.173.756.962.962,0,0,1-.651.417c-.373.066-.622-.112-1.054-.417s-.683-.473-.751-.846a.973.973,0,0,1,.171-.754.993.993,0,0,1,.654-.422c.375-.063.619.117,1.051.419s.686.473.753.846Zm-1.777-.863a.547.547,0,0,0-.373.234.554.554,0,0,0-.1.429c.044.193.153.3.6.619s.592.383.79.356a.542.542,0,0,0,.371-.234.557.557,0,0,0,.1-.429c-.044-.193-.153-.3-.6-.619S718.737,86.989,718.542,87.016Z" transform="translate(-710.884 -70.465)"/>
    <polygon class="cls-1" points="9.113 14.416 9.752 14.953 10.478 14.087 10.766 14.326 10.039 15.194 10.927 15.938 10.661 16.255 8.562 14.492 9.678 13.16 9.964 13.4 9.113 14.416"/>
    <path class="cls-1" d="M725.862,82.2l-.51-.281-.792.727.234.531-.324.3-1.117-2.695.247-.225,2.587,1.347-.324.3Zm-1.961-1.08.51,1.183.616-.565Z" transform="translate(-710.884 -70.465)"/>
    <path class="cls-1" d="M728.017,80.457l-.878.665-1.655-2.182.844-.641a.733.733,0,0,1,1.107.1.624.624,0,0,1,.062.685.654.654,0,0,1,.709.258.742.742,0,0,1-.188,1.115Zm-1.492-1.839-.487.37.476.624.487-.37a.4.4,0,1,0-.476-.624Zm.732.9-.517.393.5.666.517-.393a.408.408,0,0,0,.1-.607A.4.4,0,0,0,727.257,79.518Z" transform="translate(-710.884 -70.465)"/>
    <polygon class="cls-1" points="20.345 7.831 18.258 6.856 19.277 8.494 18.925 8.711 17.479 6.382 17.799 6.183 19.884 7.155 18.868 5.519 19.218 5.302 20.667 7.631 20.345 7.831"/>
    <path class="cls-1" d="M734.166,76.425a.98.98,0,0,1-.514.583.964.964,0,0,1-.768.056c-.359-.124-.493-.4-.727-.871s-.371-.741-.253-1.1a1.028,1.028,0,0,1,1.285-.639c.358.122.485.4.722.871s.376.741.256,1.1Zm-1.148-1.609a.57.57,0,0,0-.725.361c-.056.19-.012.342.234.834s.336.62.522.691a.54.54,0,0,0,.436-.029.547.547,0,0,0,.288-.331c.056-.19.012-.339-.234-.831S733.2,74.89,733.017,74.816Z" transform="translate(-710.884 -70.465)"/>
    <path class="cls-1" d="M737.2,75.443l-.953-.868-.48.185.42,1.078-.385.148-1-2.555.983-.383a.783.783,0,0,1,1.078.441.719.719,0,0,1-.241.876l1.024.9-.449.175Zm-1.3-2.034-.571.222.312.8.571-.222a.43.43,0,1,0-.312-.8Z" transform="translate(-710.884 -70.465)"/>
    <polygon class="cls-1" points="29.917 3.853 29.427 2.09 29.18 3.543 28.885 3.626 27.907 2.512 28.399 4.277 28.002 4.387 27.266 1.749 27.663 1.639 28.887 3.066 29.183 1.215 29.58 1.105 30.314 3.744 29.917 3.853"/>
    <path class="cls-1" d="M744.268,73.614l-.281-.51-1.058.183-.091.575-.434.076.512-2.873.329-.056,1.456,2.528-.434.076ZM743.2,71.646l-.21,1.273.827-.146Z" transform="translate(-710.884 -70.465)"/>
    <polygon class="cls-1" points="35.047 2.932 34.814 0.201 35.223 0.167 35.428 2.525 36.733 2.413 36.764 2.783 35.047 2.932"/>
    <path class="cls-1" d="M752.062,73.274l-.517-1.181-.514-.026-.056,1.153-.413-.019.132-2.736,1.053.051a.781.781,0,0,1,.808.839.725.725,0,0,1-.579.7l.566,1.239-.481-.022Zm-.364-2.388-.61-.029-.041.856.61.032a.431.431,0,1,0,.041-.858Z" transform="translate(-710.884 -70.465)"/>
    <path class="cls-1" d="M755.469,73.386a.988.988,0,0,1-.754.19.976.976,0,0,1-.666-.39c-.229-.3-.181-.6-.107-1.13s.112-.824.415-1.053a.966.966,0,0,1,.749-.19.985.985,0,0,1,.671.39c.229.305.178.6.1,1.127s-.11.827-.412,1.056Zm-.037-1.978a.567.567,0,0,0-.8-.112c-.153.124-.2.273-.281.819s-.071.7.042.866a.567.567,0,0,0,.8.112c.153-.124.2-.275.278-.819S755.544,71.571,755.432,71.408Z" transform="translate(-710.884 -70.465)"/>
    <path class="cls-1" d="M758.571,74.31l-.056-.578-1.047-.247-.307.493-.427-.1,1.6-2.441.324.078L759,74.41l-.427-.1Zm-.209-2.229-.691,1.088.815.19Z" transform="translate(-710.884 -70.465)"/>
    <path class="cls-1" d="M761.842,75.046a.962.962,0,0,1-.749.019l-.9-.3.873-2.6.908.3a.961.961,0,0,1,.583.469,1.422,1.422,0,0,1-.088,1.124,1.525,1.525,0,0,1-.622.985Zm.346-1.914a.581.581,0,0,0-.378-.322l-.476-.161-.636,1.89.473.161a.586.586,0,0,0,.5-.029c.185-.105.283-.386.4-.742S762.272,73.327,762.189,73.132Z" transform="translate(-710.884 -70.465)"/>
    <polygon class="cls-1" points="55.832 4.387 54.781 6.509 54.413 6.326 55.461 4.204 54.791 3.872 54.957 3.538 56.668 4.385 56.502 4.718 55.832 4.387"/>
    <path class="cls-1" d="M768.748,78.708l.107-1.285-.444-.268-.6.99-.354-.212,1.42-2.348.9.544a.782.782,0,0,1,.31,1.122.718.718,0,0,1-.841.344l-.09,1.363-.412-.249Zm.814-2.275-.524-.317-.444.737.524.316a.431.431,0,1,0,.444-.736Z" transform="translate(-710.884 -70.465)"/>
    <path class="cls-1" d="M771.611,80.716l.178-.553-.861-.642-.478.329-.354-.261,2.441-1.6.266.2-.842,2.8-.351-.263Zm.7-2.129-1.068.724.67.5Z" transform="translate(-710.884 -70.465)"/>
    <polygon class="cls-1" points="63.273 12.43 63.637 10.157 62.342 11.586 62.037 11.309 63.878 9.277 64.159 9.531 63.795 11.803 65.09 10.377 65.395 10.652 63.554 12.684 63.273 12.43"/>
    <path class="cls-1" d="M775.98,84.783a1.225,1.225,0,0,1-.382-.956l.387.02a.892.892,0,0,0,.276.69c.241.264.493.31.69.132a.374.374,0,0,0,.14-.27.481.481,0,0,0-.118-.3l-.183-.268a.914.914,0,0,1-.185-.527.678.678,0,0,1,.251-.5.807.807,0,0,1,1.21.127,1.138,1.138,0,0,1,.341.834l-.373-.02a.782.782,0,0,0-.244-.578.437.437,0,0,0-.651-.078.328.328,0,0,0-.117.247.6.6,0,0,0,.112.311l.173.259a.878.878,0,0,1,.192.515.714.714,0,0,1-.263.541A.852.852,0,0,1,775.98,84.783Z" transform="translate(-710.884 -70.465)"/>
    <path class="cls-1" d="M778.982,86.667l-.375-.492-.856.656L777.5,86.5l2.178-1.663.627.819a.833.833,0,1,1-1.322,1.009Zm1.013-.8-.364-.474-.725.554.361.476a.458.458,0,1,0,.727-.556Z" transform="translate(-710.884 -70.465)"/>
    <path class="cls-1" d="M780.49,90.328a.978.978,0,0,1-.629-.453.958.958,0,0,1-.131-.761c.085-.371.343-.529.79-.81s.7-.444,1.073-.361a.973.973,0,0,1,.629.449.986.986,0,0,1,.134.766c-.085.37-.348.527-.8.8s-.7.449-1.071.366Zm1.488-1.3a.573.573,0,0,0-.431-.688c-.2-.037-.342.025-.807.317s-.583.395-.634.588a.556.556,0,0,0,.07.434.565.565,0,0,0,.361.254c.2.034.34-.024.805-.317S781.924,89.216,781.978,89.026Z" transform="translate(-710.884 -70.465)"/>
    <path class="cls-1" d="M781.766,93.25l.771-1.034-.234-.458-1.029.522-.187-.368,2.446-1.239.479.939a.78.78,0,0,1-.335,1.114.716.716,0,0,1-.892-.153l-.8,1.108-.217-.43Zm1.895-1.5-.275-.544-.766.388.275.546a.431.431,0,1,0,.766-.39Z" transform="translate(-710.884 -70.465)"/>
    <polygon class="cls-1" points="74.183 24.425 71.985 25.305 71.832 24.922 74.029 24.042 73.751 23.347 74.097 23.208 74.81 24.981 74.463 25.12 74.183 24.425"/>
    <path class="cls-1" d="M784.436,100.755l.487-.317-.268-1.041-.581-.045-.109-.426,2.907.285.08.321-2.407,1.647-.109-.425Zm1.877-1.219-1.285-.11.21.812Z" transform="translate(-710.884 -70.465)"/>
    <polygon class="cls-1" points="74.163 33.572 75.873 32.028 73.969 32.328 73.903 31.921 76.612 31.494 76.67 31.867 74.966 33.411 76.868 33.111 76.931 33.518 74.222 33.947 74.163 33.572"/>
    <path class="cls-1" d="M785.623,107.519a.964.964,0,0,1-.3-.686l-.059-.953,2.736-.168.062.95a.971.971,0,0,1-.215.72,1.423,1.423,0,0,1-1.075.341,1.521,1.521,0,0,1-1.146-.2Zm1.905-.4a.581.581,0,0,0,.156-.471l-.032-.5-1.992.122.032.5a.589.589,0,0,0,.212.451,1.341,1.341,0,0,0,.841.093C787.121,107.289,787.379,107.267,787.529,107.116Z" transform="translate(-710.884 -70.465)"/>
    <polygon class="cls-1" points="74.316 42.386 76.142 42.54 74.862 41.803 74.889 41.498 76.274 40.969 74.448 40.816 74.479 40.406 77.213 40.636 77.182 41.045 75.413 41.696 77.049 42.615 77.015 43.025 74.281 42.799 74.316 42.386"/>
    <path class="cls-1" d="M784.925,116.363a1.027,1.027,0,0,1,.261-1.41c.314-.215.612-.153,1.132-.059s.817.147,1.034.458a.968.968,0,0,1,.158.756.979.979,0,0,1-.42.653c-.312.215-.61.151-1.129.057s-.819-.145-1.036-.456Zm1.978.046a.552.552,0,0,0,.239-.368.543.543,0,0,0-.093-.426c-.12-.158-.266-.212-.807-.315s-.7-.1-.866,0a.57.57,0,0,0-.149.8c.12.159.266.212.809.315S786.734,116.514,786.9,116.409Z" transform="translate(-710.884 -70.465)"/>
    <path class="cls-1" d="M783.995,118.993l.3-1.058,2.642.742-.288,1.017a.734.734,0,0,1-.946.588.619.619,0,0,1-.459-.509.654.654,0,0,1-.724.222.738.738,0,0,1-.522-1Zm1.175.29.175-.627-.8-.224-.178.624a.408.408,0,0,0,.285.544.4.4,0,0,0,.522-.317Zm1.124.276.166-.588-.755-.212-.166.588a.4.4,0,1,0,.756.212Z" transform="translate(-710.884 -70.465)"/>
    <polygon class="cls-1" points="72.441 50.626 75.018 51.555 74.88 51.943 72.302 51.014 72.441 50.626"/>
    <polygon class="cls-1" points="71.772 52.389 74.281 53.488 74.118 53.866 71.951 52.915 71.424 54.115 71.082 53.966 71.772 52.389"/>
    <polygon class="cls-1" points="70.515 55.109 72.925 56.414 72.098 57.943 71.771 57.764 72.4 56.599 71.698 56.218 71.159 57.211 70.835 57.035 71.373 56.04 70.647 55.65 70.018 56.816 69.689 56.638 70.515 55.109"/>
    <path class="cls-1" d="M778.427,130.351a.984.984,0,0,1,.656-.408c.375-.058.619.122,1.046.432s.678.482.739.859a.991.991,0,0,1-.182.751.94.94,0,0,1-1.251.293l.246-.341a.549.549,0,0,0,.7-.171.541.541,0,0,0,.1-.422c-.041-.195-.15-.311-.6-.634s-.592-.39-.79-.368a.566.566,0,0,0-.312.954l-.244.337A.941.941,0,0,1,778.427,130.351Z" transform="translate(-710.884 -70.465)"/>
    <path class="cls-1" d="M776.067,133.322l1.246.324.339-.39-.873-.756.271-.312,2.07,1.795-.69.8a.781.781,0,0,1-1.159.114.72.72,0,0,1-.2-.886l-1.325-.321.315-.364Zm2.1,1.19.4-.464-.649-.561-.4.461a.431.431,0,1,0,.649.563Z" transform="translate(-710.884 -70.465)"/>
    <path class="cls-1" d="M773.6,135.817l.517.268.776-.742-.244-.529.317-.3,1.175,2.673-.241.229-2.616-1.292.316-.3Zm1.985,1.041-.536-1.173-.605.578Z" transform="translate(-710.884 -70.465)"/>
    <polygon class="cls-1" points="60.146 67.498 62.328 68.237 61.133 66.72 61.458 66.464 63.155 68.62 62.86 68.854 60.677 68.12 61.87 69.632 61.546 69.888 59.848 67.733 60.146 67.498"/>
    <polygon class="cls-1" points="58.642 68.585 60.135 70.887 58.679 71.833 58.474 71.521 59.586 70.797 59.15 70.126 58.201 70.743 58.001 70.431 58.947 69.814 58.498 69.123 57.386 69.846 57.184 69.531 58.642 68.585"/>
    <path class="cls-1" d="M766.175,141.039a1.228,1.228,0,0,1,1.02-.134l-.115.373a.882.882,0,0,0-.736.1c-.315.166-.425.4-.3.634a.363.363,0,0,0,.229.2.451.451,0,0,0,.317-.037l.3-.109a.916.916,0,0,1,.559-.049.685.685,0,0,1,.422.369.807.807,0,0,1-.427,1.139,1.118,1.118,0,0,1-.892.122l.109-.356a.792.792,0,0,0,.624-.09.439.439,0,0,0,.239-.612.335.335,0,0,0-.212-.176.612.612,0,0,0-.329.031l-.3.105a.882.882,0,0,1-.544.059.73.73,0,0,1-.46-.393A.853.853,0,0,1,766.175,141.039Z" transform="translate(-710.884 -70.465)"/>
    <path class="cls-1" d="M773.017,85.389a32.857,32.857,0,0,0-46.8,0,33.583,33.583,0,0,0,0,47.155,33.045,33.045,0,0,0,8.407,6.168l2.967-10.283a23.64,23.64,0,0,1-4-36.446,22.986,22.986,0,0,1,32.76,0,23.58,23.58,0,0,1-4.367,36.684l2.831,9.935a33.055,33.055,0,0,0,8.2-6.058,33.582,33.582,0,0,0,0-47.155Zm-53.777,26.02.351-2.026-1.473-1.441,2.039-.293.914-1.844.907,1.846,2.038.3-1.478,1.436.344,2.026-1.819-.958-1.824.953ZM730.817,129.6l.936-1.834.886,1.859,2.033.324-1.494,1.416.321,2.035-1.809-.983-1.834.932.373-2.022-1.453-1.458,2.041-.268Zm-3.382-9.554-1.468,1.443.358,2.027-1.828-.949-1.817.966.339-2.031-1.48-1.429,2.036-.307.9-1.848.92,1.841,2.039.288Zm-2.009-22.524.363,2.024L723.96,98.6l-1.815.971.332-2.032-1.486-1.424,2.036-.312.9-1.853.924,1.839,2.039.283-1.463,1.449Zm7.823-10.005.339,1.984-1.783-.939-1.78.939.339-1.984-1.441-1.407,1.992-.288.889-1.807.893,1.807,1.992.288-1.441,1.407Zm12.644-3.548-1.8-.99-1.839.924.385-2.021-1.448-1.465,2.04-.258.947-1.829.878,1.863,2.032.334-1.5,1.409.31,2.034Zm12.781.158-1.8-1-1.846.912.4-2.019-1.437-1.472,2.043-.247.956-1.823.866,1.87,2.029.346-1.51,1.4.3,2.037Zm10.844,5.216-1.826-.951-1.816.966.336-2.029-1.48-1.432,2.036-.3.9-1.851.92,1.841,2.036.288-1.466,1.444.356,2.029Zm2.668,6.072,2.036-.3.9-1.851.92,1.841,2.038.288-1.468,1.444.359,2.026-1.826-.949-1.819.966.339-2.032-1.48-1.429ZM770.31,132.92l-1.826-.949-1.817.965.337-2.031-1.478-1.429,2.034-.3.9-1.851.919,1.841,2.037.288-1.466,1.443.356,2.027Zm6.711-8.984-1.826-.948-1.82.966.34-2.032-1.481-1.429,2.036-.307.9-1.848.919,1.841,2.039.288-1.468,1.444.358,2.026Zm1.288-13.688-1.819.966.339-2.029-1.481-1.432,2.037-.307.9-1.849.919,1.841,2.039.288-1.468,1.444.358,2.026Z" transform="translate(-710.884 -70.465)"/>
  </g>
</svg>
