<svg id="Warstwa_1" data-name="Warstwa 1" xmlns="http://www.w3.org/2000/svg" viewBox="0 0 520.37 102.169">
  <defs>
    <style>
      .cls-1 {
        fill: #fff;
        fill-rule: evenodd;
      }
    </style>
  </defs>
  <title>facebook_logo_duze</title>
  <g>
    <path class="cls-1" d="M369.466,547.228v15.8h-8.748s-7.9-1.129-7.9,6.49v12.417h16.65l-1.975,17.152H352.816v48.036h-19.19V598.872H320.645V581.939h13.546V567.546a16.082,16.082,0,0,1,5.362-14.392c7.055-6.491,16.367-5.926,16.367-5.926Z" transform="translate(-320.645 -547.215)"/>
    <path class="cls-1" d="M415.735,582.221v8.611c-4.9-6.443-11.742-10.445-19.319-10.445-14.884,0-26.95,13.122-26.95,34.5,0,21.236,12.066,34.5,26.95,34.5,7.648,0,14.552-4.078,19.458-10.629l-.127,8.371h18.484V582.221ZM414.7,621.3h0c0,6.546-5.564,12.7-12.427,12.7s-12.428-6.153-12.428-12.7V608.889c0-6.546,5.564-12.7,12.428-12.7s12.427,6.153,12.427,12.7Z" transform="translate(-320.645 -547.215)"/>
    <path class="cls-1" d="M585.22,647.55v-8.611c4.9,6.443,11.743,10.445,19.319,10.445,14.884,0,26.95-13.122,26.95-34.5,0-21.235-12.066-34.5-26.95-34.5-7.648,0-14.552,4.078-19.458,10.629l.127-42.865-19.223,2.163v96.94l19.234.3Zm1.033-39.084h0c0-6.546,5.564-12.7,12.427-12.7s12.427,6.153,12.427,12.7v12.416c0,6.546-5.564,12.7-12.427,12.7s-12.427-6.153-12.427-12.7Z" transform="translate(-320.645 -547.215)"/>
    <path class="cls-1" d="M476,633.643s-14.815.846-14.815-18.343V614.25c0-19.189,14.815-18.343,14.815-18.343,10.018-.141,13.546,3.386,13.546,3.386l4.656-13.969c-8.043-5.926-32.312-6.914-43.177,3.1-9.4,8.668-9.4,22.715-9.229,26.345-.171,3.63-.172,17.678,9.229,26.346,10.865,10.018,35.134,9.031,43.177,3.1l-4.656-13.969S486.015,633.784,476,633.643Z" transform="translate(-320.645 -547.215)"/>
    <path class="cls-1" d="M557.976,621.729s7.761-40.637-29.349-40.857-31.747,36.765-31.747,36.765c.846,22.435,11.147,28.926,28.784,31.042a59.291,59.291,0,0,0,31.042-4.657L552.614,630.9s-14.251,4.374-25.539,3.386-10.441-12.558-10.441-12.558Zm-41.624-13.122h0s-.988-14.392,11.993-14.392,11.994,14.392,11.994,14.392Z" transform="translate(-320.645 -547.215)"/>
    <path class="cls-1" d="M669.728,581.272c-24.157,0-32.287,14.575-32.287,34.056,0,20.668,10.476,34.056,32.287,34.056,17.832,0,32.287-11.981,32.287-34.056,0-18.808-9.225-34.056-32.287-34.056Zm12.587,39.69h0a12.752,12.752,0,0,1-25.5,0V608.546a12.752,12.752,0,0,1,25.5,0Z" transform="translate(-320.645 -547.215)"/>
    <path class="cls-1" d="M741.026,581.272c-24.157,0-32.287,14.575-32.287,34.056,0,20.668,10.476,34.056,32.287,34.056,17.832,0,32.287-11.981,32.287-34.056,0-18.808-9.225-34.056-32.287-34.056Zm12.587,39.69h0a12.752,12.752,0,0,1-25.5,0V608.546a12.752,12.752,0,0,1,25.5,0Z" transform="translate(-320.645 -547.215)"/>
    <polygon class="cls-1" points="520.37 100.194 499.262 67.516 519.431 34.838 498.793 34.838 479.092 64.09 479.092 0.596 459.704 2.629 459.704 100.194 479.092 100.194 479.092 66.95 500.356 100.194 520.37 100.194"/>
  </g>
</svg>
