<svg id="Warstwa_1" data-name="Warstwa 1" xmlns="http://www.w3.org/2000/svg" viewBox="0 0 85.436 56.693">
  <defs>
    <style>
      .cls-1 {
        fill: #fff;
        fill-rule: evenodd;
      }
    </style>
  </defs>
  <title>logo_ponadnormatywni</title>
  <path class="cls-1" d="M326.172,352.526c-2.778,0-18.608-.193-19.939.11v5.321H287.7l-.008-5.253-19.923-.069c.431-25.8,31.332-38.183,49.715-20.48,3.672,3.536,9.256,12.163,8.689,20.372Zm-64.344-.1c-.461-.789-.012-3.348.206-3.692.431.466.047,3.25-.206,3.692Zm70.653-1.956.046,1.658c-.094.473-.013.14-.2.392a4.425,4.425,0,0,1-.286-2.021c-.011-.028-.355.183-.164-.592s.055-.275.45-.393l.159.956Zm-1.808-7.794c.248.2.13-.193.43.6.1.265.178.672.258.974.8,3,.385,1.617,0,2.022-.115-.753-1.078-3.167-.684-3.594Zm-68.02,2.692a3.859,3.859,0,0,1,.314-1.763c.1-.366.165-.611.285-.95l.432-.8c.307.509-.308,2.108-.5,2.771-.379,1.321.012.513-.532.738Zm65.341-9.162a8.882,8.882,0,0,1,1.621,3.329c-.732-.144-.053.554-1.077-1.536l-.661-1.216c-.2-.874-.307-.371.116-.576Zm-63.149,2.587c.271-.89,1.163-3,2-3.363a13.23,13.23,0,0,1-1.213,2.583c-.441.9-.114.543-.788.779Zm59.058-8.3c.021.072-.636-.283.259.737,1.18,1.344,1.028,1.857,2.038,2.206-.232-.791-1.877-2.983-2.3-2.943Zm-55.376,2.13c.374.059.465-.106.737-.44.332-.407,1.839-2.133,1.646-2.326-.262-.262-.939.657-1.353,1.161a4.452,4.452,0,0,0-1.03,1.6Zm50.11-7.136c.244.351-.152.184.676.934a7.182,7.182,0,0,0,.666.559,4.317,4.317,0,0,0,1.618,1.07c-.257-.8-2.308-2.317-2.96-2.563Zm-45.248,1.971c.418.032.861-.591,1.418-1.068.509-.436,1.349-.819,1.269-1.272-.649-.171-1.8,1.2-2.348,1.636-1.1.866-.4.587-.34.7Zm42.037-4.378-2.615-1.361c.019.8,2.807,1.979,3.214,2.021-.308-.727.179-.152-.6-.659Zm-36.548.306a15.6,15.6,0,0,0,2.562-1.277c.82-.4.51-.073.794-.728a9.792,9.792,0,0,0-2.574,1.18c-.726.382-.512.088-.783.825Zm27.258-4.006c.25.317-.138.07.315.314l1.417.441c2.4.773,1.458.5,1.788.275-.6-.468-2.848-1.353-3.52-1.031Zm-20.857.825c.566.261,2.113-.392,2.767-.575a2.144,2.144,0,0,0,.467-.144c.387-.212.1-.044.325-.312-.607-.3-3.061.5-3.56,1.031Zm13.9-1.855,3.028.486c.838.07.434.1.6-.28l-3.246-.437c-.535.114-.093-.028-.386.231Zm-5.206-.216a3.215,3.215,0,0,0-1.853.423c.044.024.111.014.134.069s.108.051.139.056l3.394-.331c-.3-.338.825-.461-1.814-.216Zm-37.8,34.38-1.818.179-.023.965,32.244.1.016,5.313,20.686,0,.1-5.427h32.161l.018-1.115-1.545-.043c-.542-6.662-1.272-11-3.855-16.384-6.5-13.555-19.932-23.6-37.079-23.6A40.9,40.9,0,0,0,256.172,352.508Z" transform="translate(-254.237 -312.497)"/>
  <path class="cls-1" d="M299.787,355.176a12.556,12.556,0,0,1,3.352-1.909,14.1,14.1,0,0,0,3.805-1.55c2.98-2.172,2.555-3.526,2.531-8.226-.019-3.81.146-6.577-3.4-7.352-2.718-.594-8.185.068-8.652,1.786.4.219-.35.152.625.139.082,0,.725-.143.829-.17a10.2,10.2,0,0,1,5.382-.146c3.335,1.031,2.34,3.275,2.392,9.455.019,2.311-.919,2.957-3.884,4.043-.524.192-1.046.335-1.524.538-.71.3-.774.5-1.336.764-1.485-2.39-4.062-2.788-6.96-3.076-4.529-.45-4.473-1.153-4.393-5.984.056-3.366-.467-7.075,3.365-7.005,1.629.03,2.984.534,4.745.4,1.159-.089,3.277-.938,2.886-1.845-.943-.308-.955,1.111-4.918.388a10.577,10.577,0,0,0-5.338.075c-4.472,1.378-3.713,4.03-3.713,8.813,0,3.623-.788,6.075,5.237,7.279C295.2,352.469,297.706,352.044,299.787,355.176Z" transform="translate(-254.237 -312.497)"/>
  <path class="cls-1" d="M324.922,368.646l1.943-.083.588-3.37.537,3.46,1.919-.054,1.441-6.027h-1.761c-.06.634-.138,1.217-.219,1.867l-.251,1.253-.665-2.44c-.289-.815.08-.682-1.92-.675l-.726,3.914-.436-3.04c-.211-.945.192-.9-1.919-.831Z" transform="translate(-254.237 -312.497)"/>
  <path class="cls-1" d="M267.443,365.394c.506.9.661,2.8,1.6,3.25h1.532v-6.072h-1.6l.115,3.09-.52-.892c-1.036-2.434-.319-2.2-2.683-2.2v6.072h1.6Z" transform="translate(-254.237 -312.497)"/>
  <path class="cls-1" d="M333.49,365.623a10.633,10.633,0,0,1,1.3,3.017l1.876,0v-6.072h-1.6l.129,3.261c-1.684-2.457-.055-3.5-3.2-3.227l-.015,6,1.6.039Z" transform="translate(-254.237 -312.497)"/>
  <path class="cls-1" d="M262.735,367.49l-.869.1c-.478-1.068-.238-2.771-.141-3.934,1.557-.09,1.29.317,1.29,2.3,0,1.606-.255,1.265-.28,1.531Zm-2.861-.294c.431,2.183,5.949,3.252,4.859-3.091C264.333,361.779,258.606,360.774,259.874,367.2Z" transform="translate(-254.237 -312.497)"/>
  <path class="cls-1" d="M279.347,367.527c-.536-.78-.3-2.826-.282-3.83,1.367.113,1.169.285,1.169,2.056,0,1.382.241,1.508-.887,1.774Zm-2.066,1.116c3.469,0,4.761.586,4.757-3.1,0-3.534-1.556-2.974-4.757-2.974Z" transform="translate(-254.237 -312.497)"/>
  <path class="cls-1" d="M273.9,364c.06.329.2.683.3,1.123.007.029.134.686.135.7.047.968.058.183-.137.555l-.767,0L273.9,364Zm-.531,3.487,1.173-.011.248.749,1.81.41-1.572-6.062-1.865,0c-.542.184-1.762,5.322-1.884,6.081L273,368.6Z" transform="translate(-254.237 -312.497)"/>
  <path class="cls-1" d="M256.019,363.679c.726.05,1.275-.016,1.206.8-.061.732-.467.655-1.206.7v-1.5Zm0,2.643c1.7-.009,3.051-.166,2.963-2.007-.1-2.08-2.716-1.857-4.745-1.69v5.988l1.782-.009Z" transform="translate(-254.237 -312.497)"/>
  <path class="cls-1" d="M317.2,346.187l.326,1.457,2.5-.625a10.588,10.588,0,0,1-2.13,1.785l.442,1.847,4.649-1.2-.347-1.469-2.466.688a8.3,8.3,0,0,1,2.093-1.779l-.384-1.866Z" transform="translate(-254.237 -312.497)"/>
  <path class="cls-1" d="M273.056,347.094a3.236,3.236,0,0,1,3.009.729l-.1.535c-.653.4-.942.207-1.862-.031-.842-.217-1.3-.2-1.042-1.233Zm.113-1.591a2.853,2.853,0,0,0-1.007,3.523,4.007,4.007,0,0,0,3.75.945,3.021,3.021,0,0,0,.892-3.518C276.379,345.765,274.123,344.986,273.169,345.5Z" transform="translate(-254.237 -312.497)"/>
  <path class="cls-1" d="M321.638,368.643c0-4.737.549-2.645,1.634-6.073l-1.859.029-.707,1.738-.751-1.738-1.761-.027c1,2.995,1.629,1.931,1.627,6.036Z" transform="translate(-254.237 -312.497)"/>
  <path class="cls-1" d="M299.944,363.69h-.408c.5.834-.235,1.5-.685,1.767.035.051.093.061.111.149.048.223.457.213.636,1.384a4.445,4.445,0,0,0,.329,1.6l-1.936.007-.116-1.611-.125,1.459c.031.565-.178.35.355.549l4.328,0c.529-.206.109.088.364-.4l.17-.5c.011-.094.027-.124.009-.169L303.3,369l1.8.01.257-1.1c-.047-.586.138-.5-.312-.5l-.171,1.192-1.377.027c-.137-.656-.3-1.245-.44-1.841-.07-.312-.124-.65-.223-.99,0,0-.168-.479-.172-.489-.342-.733-.026-.119-.289-.475l.081,3.8-1.625-.019v-5.969l2.476-.059.868,3.76.924-3.746,2.428.022v5.96L306,368.561c-.882.528.934.351,1.943.351-.5-1.766-.247-4.708-.247-6.638l-2.853,0-.588,2.269c-1.225-2.423.734-2.406-3.785-2.2,0,1.091.331,5.178-.36,6.014-.135-.927-.292-1.7-.439-2.518C299.507,364.937,300.315,365.036,299.944,363.69Z" transform="translate(-254.237 -312.497)"/>
  <path class="cls-1" d="M284.069,335.246c-.241,1.615-.758-.355-2.377,1.371,2.466,2.19,5.454-2.706,2.588-3.013-1.1-.118-1.616.561-2.622.2.438-1.653,1.328.315,2.046-1.164.633-1.3-3.205-.834-3.36,1.395C280.175,336.474,283.174,334.74,284.069,335.246Z" transform="translate(-254.237 -312.497)"/>
  <path class="cls-1" d="M317.638,363.7c.525-.127.427-.29.548-1.092-5.165-.251-4.765-.3-4.767,1.151h1.338l.067,4.869,1.782-.031.079-4.837Z" transform="translate(-254.237 -312.497)"/>
  <path class="cls-1" d="M275.45,357.569c-.3-2.923,2.362-2.28,2.628-1.029.408,1.92-1.274,2.123-2.628,1.029Zm.565-3.037a2.494,2.494,0,0,0,1.41,4.783C280.665,358.515,279.172,353.455,276.015,354.532Z" transform="translate(-254.237 -312.497)"/>
  <path class="cls-1" d="M309.447,357.589c-.133-1.393-.089-1,.536-1.945,1.356-.2,2.69.341,2.007,1.924-.561,1.3-1.757.617-2.543.021Zm.571-3.061a2.494,2.494,0,0,0,1.415,4.784C314.637,358.5,313.188,353.481,310.018,354.528Z" transform="translate(-254.237 -312.497)"/>
  <path class="cls-1" d="M329.235,357.593c-.138-1.42-.094-.989.534-1.948,1.354-.2,2.69.342,2.008,1.922-.562,1.3-1.75.623-2.542.026Zm.571-3.064a2.494,2.494,0,0,0,1.414,4.783C334.426,358.494,332.97,353.483,329.806,354.528Z" transform="translate(-254.237 -312.497)"/>
  <path class="cls-1" d="M284.7,356.194c.322,2.653-2.17,2.532-2.582,1.2a1.321,1.321,0,0,1,.884-1.8c.894-.257,1.171.2,1.7.6Zm-2.05-1.635c-3.24,1.079-1.535,5.841,1.723,4.681C287.152,358.253,285.881,353.485,282.653,354.559Z" transform="translate(-254.237 -312.497)"/>
  <path class="cls-1" d="M336.39,355.791a1.373,1.373,0,1,1,1.468,2.318c-1.555.859-2.966-1.435-1.468-2.318Zm.021-1.257a2.493,2.493,0,0,0,1.41,4.783C340.947,358.559,339.667,353.415,336.411,354.534Z" transform="translate(-254.237 -312.497)"/>
  <path class="cls-1" d="M316.6,355.791a1.374,1.374,0,1,1,1.469,2.319c-1.554.853-2.966-1.437-1.469-2.319Zm-.041-1.168a2.33,2.33,0,0,0-1.569,3.105,2.459,2.459,0,0,0,3.362,1.483C321.257,358.084,319.56,353.313,316.561,354.624Z" transform="translate(-254.237 -312.497)"/>
  <path class="cls-1" d="M325.31,357.595c-.791.585-1.978,1.28-2.542-.03-.681-1.579.653-2.12,2.006-1.921.627.966.672.517.536,1.95Zm-2.13-2.956c-3.393,1.381-1.164,5.839,1.944,4.533C327.762,358.064,326.334,353.355,323.18,354.639Z" transform="translate(-254.237 -312.497)"/>
  <path class="cls-1" d="M269.746,355.626c1.56-.617,2.524,2.04.816,2.59a1.361,1.361,0,1,1-.816-2.59Zm-.442-1.038c-3.3,1.2-1.417,5.751,1.7,4.674C273.776,358.3,272.472,353.433,269.3,354.587Z" transform="translate(-254.237 -312.497)"/>
  <path class="cls-1" d="M256.555,355.626c1.566-.619,2.523,2.046.817,2.591a1.361,1.361,0,1,1-.817-2.591Zm-.44-1.038c-3.3,1.21-1.409,5.747,1.7,4.675C260.579,358.308,259.288,353.425,256.115,354.587Z" transform="translate(-254.237 -312.497)"/>
  <path class="cls-1" d="M263.16,355.632c1.5-.626,2.506,1.865.961,2.535a1.364,1.364,0,1,1-.961-2.535Zm-.44-1.039c-3.357,1.277-1.35,5.693,1.692,4.675C267.134,358.356,265.933,353.369,262.72,354.593Z" transform="translate(-254.237 -312.497)"/>
  <path class="cls-1" d="M296.907,328.017l1,.178c-.019.939-.061,1.014-1,1.027l0-1.2Zm-1.531,3.313.073.752,1.36,0,.139-1.877c1.438-.08,2.5-.123,2.518-1.554.022-1.871-2.072-1.531-4.1-1.531Z" transform="translate(-254.237 -312.497)"/>
  <path class="cls-1" d="M311.825,332.91a22.117,22.117,0,0,0-2.167,3.161,3.886,3.886,0,0,0,1.409,1,20.873,20.873,0,0,1,2.29-3.065,10.925,10.925,0,0,1,1.139.731,2.887,2.887,0,0,0,.485-.727,22.687,22.687,0,0,0-2.674-2.051c-.4-.3-.948-.925-1.306-.3C310.624,332.33,310.48,331.872,311.825,332.91Z" transform="translate(-254.237 -312.497)"/>
  <path class="cls-1" d="M283.123,362.628l1.808-.012,1.408,3.377-.106-3.4,1.531.033v5.988h-1.8l-1.384-3.572.095,3.568-1.549-.036v-5.945Zm1.79,6.337c.182-.418.042-.261.125-.551.015-.052.032-.12.047-.169l.135-.347c.012-.1.046-.121.024-.152l.514,1.261,2.379-.068.008-6.676-2.275-.033-.034,1.57-.6-1.592-2.484.15.034,6.61Z" transform="translate(-254.237 -312.497)"/>
  <polygon class="cls-1" points="83.65 56.146 84.682 56.162 85.436 56.067 85.353 50.09 83.67 50.073 83.65 56.146"/>
  <path class="cls-1" d="M309.845,362.6l2.117.006,1.582,6.031-1.663-.052-.378-1.11-1.234-.019-.415,1.17-1.59,0,1.581-6.029Zm-1.563,5.1-.431,1.215h2.488c.309-1.866.958-1.236,1.242.075l2.36.009a22.968,22.968,0,0,0-.863-3.587c-.954-3.758-.3-3.174-3.506-3.174C309.256,363.63,308.289,366.455,308.282,367.7Z" transform="translate(-254.237 -312.497)"/>
  <path class="cls-1" d="M288.952,366.989c-.483-3.478.8-5.344,3.614-4.35,2.08.736,1.782,5.319-.069,5.963-1.645.573-3.328-.048-3.545-1.613Zm-.305.413c.443,2.067,5.187,2.9,5.55-.612a11.906,11.906,0,0,0-.1-3.02C293.488,361.371,287.164,360.479,288.647,367.4Z" transform="translate(-254.237 -312.497)"/>
  <path class="cls-1" d="M297.75,368.448l.125-1.459-.091-.7-1.067-.105-.042,2.427h-1.681l0-6.015a10.871,10.871,0,0,1,4.354.465l.186.625h.408c-.629-1.957-3.2-1.549-5.345-1.441l.073,6.75,2.375-.016.024-2.394c.814.375.231-.077.48,1.414C297.614,368.385,297.634,368.264,297.75,368.448Z" transform="translate(-254.237 -312.497)"/>
  <path class="cls-1" d="M306,368.561l-.022-.614c-.369-.458-.256.568-.324-.544-.235-.021-.112.353-.293-.387l-.312.388c.45,0,.265-.085.312.5l.161,1.152c1.421.034,3.68.322,4.819-.145h-2.488l.431-1.215c-.967-.977.231-4.887-.588-5.423,0,1.93-.255,4.872.247,6.638C306.932,368.912,305.115,369.088,306,368.561Z" transform="translate(-254.237 -312.497)"/>
  <path class="cls-1" d="M291.3,363.95c.608.294.566,1.9.44,2.647-.179,1.065.077.365-.44.67-.36-.546-.314-.492-.307-1.721,0-.757-.1-1.071.307-1.595Zm.55,3.589a6.7,6.7,0,0,0,.134-3.642c-1.027-.784-1.313-.25-1.353,1.021a7.21,7.21,0,0,0,.276,2.7Z" transform="translate(-254.237 -312.497)"/>
  <path class="cls-1" d="M310.678,366.408h.777l-.469-2.454C310.683,364.572,310.266,365.78,310.678,366.408Z" transform="translate(-254.237 -312.497)"/>
  <path class="cls-1" d="M305.359,367.014c.181.74.058.366.293.387.068,1.113-.045.087.324.544l.027-3.13-.447.972A4.861,4.861,0,0,0,305.359,367.014Z" transform="translate(-254.237 -312.497)"/>
  <path class="cls-1" d="M297.28,364c.7.764.142.6-.247.759.031-.756-.088-.414.247-.759Zm-.58,1.082,1.124-.161c.234-1.207-.048-1.331-1.137-1.271Z" transform="translate(-254.237 -312.497)"/>
</svg>
