<svg id="Warstwa_1" data-name="Warstwa 1" xmlns="http://www.w3.org/2000/svg" viewBox="0 0 57.446 36.991">
  <defs>
    <style>
      .cls-1 {
        fill: #a41111;
        fill-rule: evenodd;
      }
    </style>
  </defs>
  <title>mail_czer</title>
  <g>
    <path class="cls-1" d="M57.244,12.61c-1.719.859-23.514,12.329-24.564,12.807a5.42,5.42,0,0,1-2.963.668,5.677,5.677,0,0,1-2.866-.668C25.8,24.939,4.1,13.469,2.284,12.61c-1.243-.768-1.243.1-1.243.669V36.7a3.868,3.868,0,0,0,3.154,3.06H55.332a3.755,3.755,0,0,0,3.154-3.06V13.28C58.487,12.705,58.487,11.842,57.244,12.61Z" transform="translate(-1.041 -2.764)"/>
    <path class="cls-1" d="M2.951,6.205c1.531.86,23.132,12.425,23.9,12.806a5.993,5.993,0,0,0,2.866.67,5.88,5.88,0,0,0,2.963-.67c.859-.381,22.366-11.946,23.9-12.806,1.625-.861,3.059-3.441.191-3.441H2.761C-.012,2.764,1.422,5.344,2.951,6.205Z" transform="translate(-1.041 -2.764)"/>
  </g>
</svg>
