<svg id="Warstwa_1" data-name="Warstwa 1" xmlns="http://www.w3.org/2000/svg" viewBox="0 0 120.26 41.648">
  <defs>
    <style>
      .cls-1, .cls-2 {
        fill: #fff;
        fill-rule: evenodd;
      }

      .cls-2 {
        stroke: #d9d9d9;
        stroke-width: 0.216px;
      }

      .cls-3 {
        fill: none;
        stroke: #fff;
        stroke-width: 0.333px;
      }
    </style>
  </defs>
  <title>Min_trans_lic</title>
  <g>
    <path class="cls-1" d="M273.17,421.171c-1.028-.506-1.939-1.162-2.9-1.7a.684.684,0,0,1-.243-.179,13.786,13.786,0,0,0,2.57.805,4.314,4.314,0,0,0,2.84-.332,6.554,6.554,0,0,0-3.274-2.725,4.647,4.647,0,0,0,1.995-.153,1.273,1.273,0,0,0,1-1.215,4.526,4.526,0,0,1-2.533.153,3.409,3.409,0,0,0,2.533-1.419,5.858,5.858,0,0,0-2.507-1.024c.551-.274,1.4-.55,1.727-1.087a.982.982,0,0,0-.077-.985c-.178.121-.338.272-.525.4a6.492,6.492,0,0,1-.6.346,4.194,4.194,0,0,1-1.368.524,4.924,4.924,0,0,0,1.279-1.074,3.771,3.771,0,0,0,.933-1.42,4.381,4.381,0,0,0-2.366-.153c.43-.475,1.177-1.517.537-2.277a6.284,6.284,0,0,1-1.675,1.663,5.486,5.486,0,0,0,1.279-2.853,5.166,5.166,0,0,0-2.456.665c0-.013.01-.015.013-.025a3.6,3.6,0,0,0,.946-2.226,11.1,11.1,0,0,0-7.227,3.377,8.866,8.866,0,0,0-2.085,3.223,3.084,3.084,0,0,0,.026,2.213,1.554,1.554,0,0,0,1.637.972c.373,1.306-.891,1.871-2.1,1.753a2.325,2.325,0,0,0-.319-1.51.554.554,0,0,0,.5-.4.952.952,0,0,1-.768-.448c-.267-.566.149-1.36.077-2.021a.407.407,0,0,0,.409-.077,1.837,1.837,0,0,1-.269-1.432c.094-1.2.5-2.92-.153-3.774a.4.4,0,0,0,.128-.435c.422-.024.325-.71.077-.857-.088.323-.745.272-.895.039a.67.67,0,0,0,.076-1.126.966.966,0,0,1-.537.589c.171-.669.315-1.327.537-1.932a12.945,12.945,0,0,1,.806-1.65c-.415.221-.949.322-1.241.665-.256-.321-.754-.08-.857.192.029-.335-.121-.492-.422-.5a.342.342,0,0,0-.486-.473c-.037-.262-.22-.377-.358-.537a.88.88,0,0,0-.269.627.3.3,0,0,0-.473.345c-.355.009-.436.355-.448.665a.505.505,0,0,0-.857-.192c-.158-.46-.846-.39-1.151-.7a15.669,15.669,0,0,1,1.254,3.249.843.843,0,0,0-.717.921c-.646.029-1.151.264-1.2.882a2.328,2.328,0,0,0,.2.985,1.252,1.252,0,0,1,.972-.384.744.744,0,0,1,.6.4c-.52.088-.982.5-1.586.5a1.09,1.09,0,0,1-.691-.32.618.618,0,0,0,.128.6c.6.6,1.934.055,2.648-.077-.036.075-.04.224.025.269.124.038.19-.025.3-.026a1.48,1.48,0,0,1,1.2,1.715,2.653,2.653,0,0,1-1.42,1.6.5.5,0,0,0,.269.614,5.9,5.9,0,0,1-.742.934c-.2.209-.644.676-1.036.652-.185-.011-.243-.141-.346-.255-.2.293-.141.939.167,1.061a2.564,2.564,0,0,0-.525,1.625c-.927-.174-2.141-.281-2.187-1.292a2,2,0,0,1,.077-.576,1.562,1.562,0,0,0,1.432-.793,2.593,2.593,0,0,0,.371-1.6,5.391,5.391,0,0,0-1.343-2.929,12.53,12.53,0,0,0-2.123-2.149,10.616,10.616,0,0,0-6.127-2.4,5.2,5.2,0,0,0,1.573,2.481,5.226,5.226,0,0,0-3.223-.678,3.892,3.892,0,0,0,.972,1.893,12.819,12.819,0,0,0,1.42,1.433c-.483-.3-.993-.607-1.5-.947a4.367,4.367,0,0,1-1.471-1.279,1.163,1.163,0,0,0-.127.7,2.157,2.157,0,0,0,.933,1.445,5.114,5.114,0,0,0-1.471-.026,2.342,2.342,0,0,0-1.241.333,5.322,5.322,0,0,0,1.331,1.445,5.874,5.874,0,0,0,1.74,1.049,5.71,5.71,0,0,1-1.842-.576,5.359,5.359,0,0,1-1.3-.818c-.041-.037-.086-.113-.154-.1a1.708,1.708,0,0,0,.358,1.292,2.3,2.3,0,0,0,.934.793,4.34,4.34,0,0,0-2.174.882,5.172,5.172,0,0,0,1.5,1.164,5.306,5.306,0,0,0,1.983.678,8.4,8.4,0,0,1-3.172-.281c-.03,1.5,1.689,1.42,3.146,1.432a11.085,11.085,0,0,0-1.918,1.177,3.749,3.749,0,0,0-1.42,1.676c1.36.538,3.234.029,4.451-.231-.933.509-1.9,1.184-2.9,1.689a2.179,2.179,0,0,1-1.509.358,1.374,1.374,0,0,0,1.382.87,4.409,4.409,0,0,0,1.611-.525c.5-.239.977-.493,1.4-.729-1.143,1.655-2.414,3.181-2.329,6.063a3.865,3.865,0,0,0,1.689-.754,13.667,13.667,0,0,0,3.569-3.748c-.544,1.107-1.029,2.32-1.612,3.415a5.621,5.621,0,0,1-2.315,2.711,2.109,2.109,0,0,0,2.162-.5,10.037,10.037,0,0,0,2.34-3.492,15.948,15.948,0,0,0-.371,3.722,3.865,3.865,0,0,0,.346,1.855,8.33,8.33,0,0,0,2.238-2.776,16.728,16.728,0,0,0,1.445-3.569,22.412,22.412,0,0,1-.972,4.106.686.686,0,0,0,.487-.051,2.422,2.422,0,0,0,.92-1.2,10.3,10.3,0,0,0,.55-1.573c.061.063.09.157.18.192a4.034,4.034,0,0,0,1.253-1.728,8.447,8.447,0,0,0,.614-2.379,2.25,2.25,0,0,0,2.072-.319,2.263,2.263,0,0,1,.333.985,1.548,1.548,0,0,0-1.727-.205,2.14,2.14,0,0,0-.959,1.368c-.086.352-.1.676-.18.973a3.494,3.494,0,0,1-1.471,2.021.518.518,0,0,0,.384.089,3.466,3.466,0,0,1-.537.768c-.019.019-.1.035-.064.076.052.051.161.044.23.077a2.329,2.329,0,0,1-.959.9,1.052,1.052,0,0,0,.4.192,2.475,2.475,0,0,1-1.01.78,2.9,2.9,0,0,0,1.727.46,2.584,2.584,0,0,1-1.19,1.113.613.613,0,0,0,.422.128,3.171,3.171,0,0,1-1.215.882.64.64,0,0,0,.346.1,1.823,1.823,0,0,1-1.19.819c.051.161.328.207.563.23-.22.368-.711.465-1.2.562a.529.529,0,0,0,.422.3c-.625.712-1.743-.045-2.763.076-.295-.674-1.723-.557-1.791.244a.228.228,0,0,0-.32.268c-.366.368-.294,1.393.269,1.484-.009-.469.3-.624.55-.832a1.112,1.112,0,0,0,1.049-.23,4.341,4.341,0,0,1,.908.2,1.218,1.218,0,0,0-.576.2c-.122.077-.316.31-.448.332-.15.025-.329-.078-.473-.077a.717.717,0,0,0-.46.192,1.954,1.954,0,0,0-.333.435,1.238,1.238,0,0,0,.013.652.244.244,0,0,0,.051.359,1.029,1.029,0,0,0,.576.741,1.562,1.562,0,0,0,.844.231c-.049-.13-.184-.233-.243-.41s-.026-.4-.09-.6a.934.934,0,0,0,.576-.729,7.8,7.8,0,0,0,1.023-.307c.073-.032.163-.126.231-.1.017.083-.072.121-.116.154a1.644,1.644,0,0,0-.5.678.709.709,0,0,0-.819.819,1.191,1.191,0,0,0,.294.536.344.344,0,0,0,.2.423,1,1,0,0,0,1.56.333c-.236-.1-.946-.686-.383-.883a.922.922,0,0,0,.1-.946,10.741,10.741,0,0,0,1.279-1.318,2.919,2.919,0,0,0,1.023-.013c.024.125-.1.184-.115.307a.512.512,0,0,0,.358.576,1.352,1.352,0,0,1-.1.537c-.057.108-.181.133-.23.231.443.246,1.28.1,1.215-.526a.248.248,0,0,0,.192-.357.715.715,0,0,0,.384-.793.88.88,0,0,0-.934-.755,2.137,2.137,0,0,1-.5.051c-.219-.044-.208-.379-.115-.55a3.611,3.611,0,0,1,.409-.5c.448-.532.77-.957,1.241-1.522s.977-1.181,1.509-1.714a1.646,1.646,0,0,1,.243-.217c.008,0,.087.107.128.153a1.756,1.756,0,0,0,1.42.64,2.326,2.326,0,0,1-.32-1.126,1.075,1.075,0,0,0,.525.243,4.352,4.352,0,0,1,1.24-4.042,9.491,9.491,0,0,1-1.189,4.618,1.23,1.23,0,0,0,1.164-.576,2.78,2.78,0,0,1-.435,1.612,1.608,1.608,0,0,1-1.19.882c-.282.027-.446-.158-.614-.23a1.17,1.17,0,0,0,.32,1.459,1.522,1.522,0,0,0,1.548-.155,2.093,2.093,0,0,1-.87,1.242,1.629,1.629,0,0,1-1.624.192c-.331-.246-.259-.852-.077-1.2a1.408,1.408,0,0,0-1.6,1.331,1.526,1.526,0,0,0,.716,1.47,1.78,1.78,0,0,0-.87,1.382,1.522,1.522,0,0,0,.9,1.342,2.663,2.663,0,0,0,1.842.244,4.069,4.069,0,0,0,2.468-2,5.276,5.276,0,0,0-.076,2.481,4.69,4.69,0,0,0,.921,1.868,7.536,7.536,0,0,0,.857-1.894,4.768,4.768,0,0,0-.013-2.443,5.581,5.581,0,0,0,1.177,1.3,2.753,2.753,0,0,0,1.8.691,2.061,2.061,0,0,0,1.663-.819,1.538,1.538,0,0,0,.32-.921,1.875,1.875,0,0,1-.243-3.249,1.212,1.212,0,0,0-1.19-1.01.95.95,0,0,1,.1.357c.054.657-.487.952-1.036.986a1.877,1.877,0,0,1-1.918-1.509,1.342,1.342,0,0,0,1.56-.141,1.1,1.1,0,0,0,.115-1.33.977.977,0,0,1-1.074.281c-.6-.28-.853-1.174-.959-1.919a1.429,1.429,0,0,0,1.138.256,6.753,6.753,0,0,1-.588-.921,9.374,9.374,0,0,1-.768-3.876,11.287,11.287,0,0,1,.908,1.689,4.73,4.73,0,0,1,.461,2.123c.333-.093.46-.392.614-.665a2.774,2.774,0,0,1-.051.921,2.209,2.209,0,0,1-.359.64,1.523,1.523,0,0,0,1.625-.832c1.039,1.3,2.029,2.687,3.159,3.914.137.148.447.358.435.576a.321.321,0,0,1-.371.256,2.555,2.555,0,0,1-.307-.077.738.738,0,0,0-.665,1.3.917.917,0,0,0-.026.32.965.965,0,0,0,1.561.461c-.3-.047-.427-.264-.512-.525a.852.852,0,0,0,.077-.358c.172.005.239-.161.333-.192a1.223,1.223,0,0,0,.908-.217c.378.359.734.741,1.113,1.1-.042.076.03.136.051.192a.9.9,0,0,0,.422.959c-.056.193.1.285.2.358a3.491,3.491,0,0,1-.525.448,1.037,1.037,0,0,0,1.318-.307c.025-.05.013-.123.038-.166s.093-.058.115-.1c.015-.029.01-.094.026-.14.037-.114.078-.162.013-.269a.811.811,0,0,0-.614-1.318c-.3-.343-.721-.627-1.024-.92.335.111.692.235,1.062.358.282.093.842.218,1,.435a1.08,1.08,0,0,1,.076.23c.062.151.15.21.346.281a2.061,2.061,0,0,1-.115.883c.61.044.9-.414,1-.908a.258.258,0,0,0,.115-.179c.009-.095-.079-.191-.076-.218s.062-.066.076-.089a.7.7,0,0,0-.012-.717,1.072,1.072,0,0,0-1.446-.281,4.215,4.215,0,0,0-1-.537,2.129,2.129,0,0,1,1.061-.269.824.824,0,0,0,.895.038c.028.184.3.235.474.154.217.106.292.356.422.55.431-.28.383-1.374-.153-1.5a.28.28,0,0,0-.308-.2c-.153-.559-1.238-.5-1.381.026a8.526,8.526,0,0,0-1.65.306,4.357,4.357,0,0,1-.486.167.851.851,0,0,1-.729-.384.463.463,0,0,0,.345-.32,1.2,1.2,0,0,1-1-.422c.023-.063.068-.141.1-.217a1.708,1.708,0,0,1-.947-.9c.081-.059.172-.109.179-.243a1.627,1.627,0,0,1-1-.678.5.5,0,0,0,.255-.256,2.908,2.908,0,0,1-.857-.626,3.012,3.012,0,0,1-.652-.819,3.234,3.234,0,0,0,1.9-.2c.065-.034.139-.052.155-.106a2.018,2.018,0,0,1-1.344-.921.962.962,0,0,0,.307-.064,2.214,2.214,0,0,1-.882-.921.445.445,0,0,0,.358-.141,1.257,1.257,0,0,1-.691-.678.62.62,0,0,0,.461-.063c-.793-.371-1.067-1.3-1.395-2.252-.266-.776-.587-2.049-1.675-1.982a3.3,3.3,0,0,0-1.1.371,3.627,3.627,0,0,1,.5-.832,2.147,2.147,0,0,0,1.816,0,5.25,5.25,0,0,0,1.586,3.671,3.876,3.876,0,0,0,.486-.319,9.086,9.086,0,0,0,.4,1.637c.24.649.549,1.291,1.407,1.266a9.013,9.013,0,0,1-.563-3.722,18.982,18.982,0,0,0,.831,3.671,5.665,5.665,0,0,0,1.727,2.788,6.167,6.167,0,0,0,.524-2.251,13.739,13.739,0,0,0-.015-2.669,15.557,15.557,0,0,0,1.883,2.682,1.582,1.582,0,0,0,.959.55c.492.019.72-.311,1.126-.409-1.638-.882-2.157-2.884-3.057-4.5a12.773,12.773,0,0,0,1.791,2.123,5.671,5.671,0,0,0,2.443,1.471,9.352,9.352,0,0,0-1.74-5.807,9.2,9.2,0,0,0,2.3.883c.961.2,1.971,0,2.111-.883a2.488,2.488,0,0,1-1.97-.281Zm-17.811,15.291a4.27,4.27,0,0,1-.838,1.145,2.41,2.41,0,0,1-1.33.717c-.735.078-1.121-.4-.947-1.139a3.259,3.259,0,0,0,3.115-.723l.006-.012v.006l-.006.006Zm.006-.012a.023.023,0,0,1,.006-.016l-.006.016Zm.007-.017.006-.015a.023.023,0,0,1-.006.015Zm3.089-.245a3.432,3.432,0,0,0,3.121.831.866.866,0,0,1-1.011,1.075c-1.04-.075-1.8-1.164-2.123-1.894C258.444,436.178,258.46,436.174,258.461,436.188Z" transform="translate(-238.008 -400.731)"/>
    <path class="cls-1" d="M257.177,405.721a1.984,1.984,0,0,0,.95.2s-.283.1-1.767-.676c0,0-1.712-.86-1.568.362l.077.024s.021-.773.87-.448C256.207,405.363,256.721,405.558,257.177,405.721Z" transform="translate(-238.008 -400.731)"/>
    <path class="cls-1" d="M253.345,418.571a2.686,2.686,0,0,1-.692-.033h0a10.406,10.406,0,0,1-3.119-.905h0l-.233.8a13.268,13.268,0,0,0,4.345.917h0a10.314,10.314,0,0,1-.448-2.059,5.027,5.027,0,0,0,.147,1.285Z" transform="translate(-238.008 -400.731)"/>
    <path class="cls-1" d="M254.486,405.574l.284.031a.527.527,0,0,1,.627-.671,6.593,6.593,0,0,1,1.772.684,5.31,5.31,0,0,0-1.8-.777A.744.744,0,0,0,254.486,405.574Z" transform="translate(-238.008 -400.731)"/>
    <path class="cls-1" d="M257.258,405.219s1.146.324,1.6.058a.929.929,0,0,0,.341-.333c.12-.218.244-.254.244-.254s.318.624-.524.809A2.872,2.872,0,0,1,257.258,405.219Z" transform="translate(-238.008 -400.731)"/>
    <path class="cls-1" d="M259.037,405.694s.466.19.253.406l0,.047s.549.343.939,0a.338.338,0,0,0,.017-.463,1.049,1.049,0,0,1-.527.189,3.781,3.781,0,0,1-.676-.186Z" transform="translate(-238.008 -400.731)"/>
    <path class="cls-1" d="M259.358,406.307s.56.813.293.977c0,0-.075.071-.24-.009a3.868,3.868,0,0,1,.205,2.874c-.56,1.377-1.839,2.834-.871,3.979a1.8,1.8,0,0,1,.56,1.546s.506-.435-.062-1.679a2.75,2.75,0,0,1,0-1.581s.284-1.226.293-1.359a2.812,2.812,0,0,0,.577.746,5.128,5.128,0,0,1-.062-1.243,10.21,10.21,0,0,0,.044-3.3A1.644,1.644,0,0,0,259.358,406.307Z" transform="translate(-238.008 -400.731)"/>
    <path class="cls-1" d="M259.58,411.464a2.444,2.444,0,0,0,.347.4s-.222,1.865-.178,2.034a.907.907,0,0,0,.7.684.75.75,0,0,1-1.013-.391A5.011,5.011,0,0,1,259.58,411.464Z" transform="translate(-238.008 -400.731)"/>
    <path class="cls-1" d="M259.66,414.715a5.006,5.006,0,0,1-.053.586,2.131,2.131,0,0,1,.435,1.093,3.041,3.041,0,0,0,.249.977,5.418,5.418,0,0,0-.515-2.345l.009-.08s.31.018.355-.036A1.43,1.43,0,0,1,259.66,414.715Z" transform="translate(-238.008 -400.731)"/>
    <path class="cls-1" d="M254.93,405.654l.2.06s.027-.26.18-.306.233.006.18.06a.944.944,0,0,0-.114.153l.287.193s-.014-.28.073-.333c0,0,.033-.08.32.013s1.486.566,1.486.566-.067.5-.8.427a1.012,1.012,0,0,0,1.392-.32s.767.033.86-.193a6.59,6.59,0,0,1-1.159-.047,17.125,17.125,0,0,1-2.046-.666C255.137,405.008,254.937,405.381,254.93,405.654Z" transform="translate(-238.008 -400.731)"/>
    <path class="cls-1" d="M255.854,405.468a.575.575,0,0,0,.324.728c.507.223.649.16.649.16l-.307-.16a.2.2,0,0,1-.208-.04c-.125-.088-.24-.253-.12-.6A3.209,3.209,0,0,0,255.854,405.468Z" transform="translate(-238.008 -400.731)"/>
    <path class="cls-1" d="M252.91,408.119a2.588,2.588,0,0,0,1.15-.04c.653-.164,1.026-.422,1.453-.493a1.827,1.827,0,0,1,1.443.258s.115.067.1.124-.009.1-.173.058a2.558,2.558,0,0,0-1.293-.125s-.391.067-.635.142A3.157,3.157,0,0,1,252.91,408.119Z" transform="translate(-238.008 -400.731)"/>
    <path class="cls-1" d="M256.279,411.6a2.542,2.542,0,0,0,1.352-1.314s.065-.1.128-.036.15.116.2.09A2.157,2.157,0,0,1,256.279,411.6Z" transform="translate(-238.008 -400.731)"/>
    <path class="cls-1" d="M255.71,411.9a1.565,1.565,0,0,0,1.619-.393S256,413.036,255.71,411.9Z" transform="translate(-238.008 -400.731)"/>
    <path class="cls-1" d="M256.356,412.6a2.169,2.169,0,0,0,.793-.48,4.862,4.862,0,0,1-2.259,2.319s-1.052.4-1.292-.44a1.081,1.081,0,0,0,1.226.08A4.4,4.4,0,0,0,256.356,412.6Z" transform="translate(-238.008 -400.731)"/>
    <path class="cls-1" d="M253.911,414.788a2.048,2.048,0,0,0,1.193-.093,3.462,3.462,0,0,0,.679-.44,10.89,10.89,0,0,0,.853-.959l-.32.806a4.709,4.709,0,0,1-1.306.719,1.906,1.906,0,0,0-.766.753,7.93,7.93,0,0,1-.446.706s.2-.453.266-.646a2.293,2.293,0,0,1,.44-.7A2.228,2.228,0,0,1,253.911,414.788Z" transform="translate(-238.008 -400.731)"/>
    <path class="cls-1" d="M256.269,414.641v.487s-.313.079-.333.779.12.919-.04,1.332a5.1,5.1,0,0,0-.073-.766,2.239,2.239,0,0,1-.08-1.113A1.49,1.49,0,0,1,256.269,414.641Z" transform="translate(-238.008 -400.731)"/>
    <path class="cls-1" d="M254.957,415.208a3.674,3.674,0,0,0-.18,1.033.926.926,0,0,0,.18.433c.127.106.713.573.793.886a3.507,3.507,0,0,0-.86-.826s-.166-.154-.173-.247a.974.974,0,0,1-.513.453,3.717,3.717,0,0,0-.686.373.523.523,0,0,1-.053-.226s-.133-.08-.267.093l-.066-.047a.676.676,0,0,1,.446-.219c.32-.047.826-.114,1-.387a1.27,1.27,0,0,0,.16-.453A2.688,2.688,0,0,1,254.957,415.208Z" transform="translate(-238.008 -400.731)"/>
    <path class="cls-1" d="M259.034,409.192a.163.163,0,0,0,.087-.107c.013-.073.053-.173.08-.173a4.671,4.671,0,0,1-.16,1.459,5.153,5.153,0,0,1-.72,1.333,15.116,15.116,0,0,0-.913,1.719c-.059.126-.473,1.372-.579,1.532,0,0,.333-1.326.486-1.739s.853-1.652.926-1.785.606-1.166.66-1.326A3.143,3.143,0,0,0,259.034,409.192Z" transform="translate(-238.008 -400.731)"/>
    <path class="cls-1" d="M257.808,413.509a3.266,3.266,0,0,0,.147,1.166s-.467.6-.594.726-.579.493-.992.233a1.37,1.37,0,0,0,.446-.4C256.949,415.008,257.448,413.582,257.808,413.509Z" transform="translate(-238.008 -400.731)"/>
    <path class="cls-1" d="M258.281,412.583s-.306.966-.1,1.359a2.258,2.258,0,0,0,.62.68c.026.026.333.359.313.413a1.715,1.715,0,0,1-.846-.46A1.448,1.448,0,0,1,258.281,412.583Z" transform="translate(-238.008 -400.731)"/>
    <path class="cls-1" d="M258.608,407.167a2.2,2.2,0,0,1,1.033,1.706,4.44,4.44,0,0,1-.653,2.325,12.3,12.3,0,0,1-.893,1.219,10.907,10.907,0,0,0,1.273-2.705A4.4,4.4,0,0,0,258.608,407.167Z" transform="translate(-238.008 -400.731)"/>
    <path class="cls-1" d="M258.148,414.954s.519.293.566.307a1.48,1.48,0,0,1,.347.239l.093.154-.067-.174-.153-.153-.733-.419s-.193-.167-.226-.161a1.2,1.2,0,0,0-.214.9,3.353,3.353,0,0,1,.407,1.139,3.116,3.116,0,0,1-.054.653,2.041,2.041,0,0,0,.154-1.019C258.168,416,257.835,415.38,258.148,414.954Z" transform="translate(-238.008 -400.731)"/>
    <path class="cls-1" d="M259.174,415.761a2.988,2.988,0,0,0,.207.566,1.634,1.634,0,0,1-.687.92c-.566.373-.646.559-.646.559s-.073-.193.493-.613A1.868,1.868,0,0,0,259.174,415.761Z" transform="translate(-238.008 -400.731)"/>
    <path class="cls-1" d="M255.15,405.861a2.237,2.237,0,0,1,.953.886,2.02,2.02,0,0,0-.354-.04A2.147,2.147,0,0,0,255.15,405.861Z" transform="translate(-238.008 -400.731)"/>
    <path class="cls-1" d="M256.783,415.787l.06.007a.967.967,0,0,0,.286.633c.253.173.873.786.873,1.165a1.3,1.3,0,0,0-.426-.612c-.327-.254-.553-.473-.553-.473a1.722,1.722,0,0,1-.56.706,1.788,1.788,0,0,0-.606.533s.04-.234.466-.566A1.629,1.629,0,0,0,256.783,415.787Z" transform="translate(-238.008 -400.731)"/>
    <path class="cls-1" d="M257.875,407.06a2.389,2.389,0,0,1,.973,1.412,3.543,3.543,0,0,1-.267,1.826c-.253.659-1.212,2.491-1.212,2.491a11.5,11.5,0,0,0-.87,2.26l0,.019a5.153,5.153,0,0,1,.9-2.732c.993-1.692,1.246-2.545,1.153-3.191A5.169,5.169,0,0,0,257.875,407.06Z" transform="translate(-238.008 -400.731)"/>
    <path class="cls-1" d="M254.151,420.184a7.122,7.122,0,0,1-.4-.693.382.382,0,0,1,.147-.233c.08-.06-.007.193.153.213a.807.807,0,0,1,.146-.32c.107-.12.787-.639.68-1.059l-.246-.206a.984.984,0,0,1-.307.846c-.386.319-.646.559-.633.666A2.357,2.357,0,0,0,254.151,420.184Z" transform="translate(-238.008 -400.731)"/>
    <path class="cls-1" d="M254.99,418.159a1.854,1.854,0,0,0,1.939-.273l.219.193A2.21,2.21,0,0,1,254.99,418.159Z" transform="translate(-238.008 -400.731)"/>
    <path class="cls-1" d="M257.182,418.092a1.7,1.7,0,0,0,1.792-.24l.1.253a2.092,2.092,0,0,1-1.925.013Z" transform="translate(-238.008 -400.731)"/>
    <path class="cls-1" d="M259.434,416.593s.686.866.506,1.339-.459.247-.6.047a1.379,1.379,0,0,1-.093-1.113,1.136,1.136,0,0,0,.153,1.306c.546.713.439.92.439.92a3.17,3.17,0,0,0,.367-1.453A2.471,2.471,0,0,0,259.434,416.593Z" transform="translate(-238.008 -400.731)"/>
    <path class="cls-1" d="M254.637,419.118a1.335,1.335,0,0,0,1.173-.393l.193.187A1.891,1.891,0,0,1,254.637,419.118Z" transform="translate(-238.008 -400.731)"/>
    <path class="cls-1" d="M256.049,418.945a1.987,1.987,0,0,0,1.945-.08l.2.127a2.246,2.246,0,0,1-2.178-.034Z" transform="translate(-238.008 -400.731)"/>
    <path class="cls-1" d="M258.235,419.012a1.468,1.468,0,0,0,1.372-.227s.107.127.107.2a1.861,1.861,0,0,1-1.519.061Z" transform="translate(-238.008 -400.731)"/>
    <path class="cls-1" d="M254.771,419.678a.937.937,0,0,1-.433.453s-.14.14-.1.206.186.26.186.26a.555.555,0,0,1,.12-.339C254.678,420.071,254.9,419.945,254.771,419.678Z" transform="translate(-238.008 -400.731)"/>
    <path class="cls-1" d="M256.955,419.691s-.679.8-2.152-.007l.02.06a2.724,2.724,0,0,0,1.4.413,1.542,1.542,0,0,0,.946-.339S256.989,419.758,256.955,419.691Z" transform="translate(-238.008 -400.731)"/>
    <path class="cls-1" d="M259.074,419.471a.668.668,0,0,0,.093.18,2.461,2.461,0,0,1-1.992.2l.02-.034A1.975,1.975,0,0,0,259.074,419.471Z" transform="translate(-238.008 -400.731)"/>
    <path class="cls-1" d="M259.734,419.038a1.735,1.735,0,0,1,.04.673,4.266,4.266,0,0,0-.053.439s-.5-.213-.54-.452a.452.452,0,0,1,.213-.214.894.894,0,0,0,.32-.446C259.714,418.985,259.734,419.038,259.734,419.038Z" transform="translate(-238.008 -400.731)"/>
    <path class="cls-1" d="M259.174,419.971a1.17,1.17,0,0,0,.913.56,1.481,1.481,0,0,0,1.032-.58l.067.473a1.659,1.659,0,0,1-1.732.266,3.59,3.59,0,0,0-.08.58s-.646-.16-.8-.626a.382.382,0,0,0,.226-.133C258.888,420.4,258.968,420,259.174,419.971Z" transform="translate(-238.008 -400.731)"/>
    <path class="cls-1" d="M259.041,421.27s-.347-.247-.406-.313-.267.22-.22.38a.852.852,0,0,0,.266.506Z" transform="translate(-238.008 -400.731)"/>
    <path class="cls-1" d="M258.321,420.431l.127.253a3.154,3.154,0,0,1-2.978.02v-.053A2.507,2.507,0,0,0,256.9,421,3.327,3.327,0,0,0,258.321,420.431Z" transform="translate(-238.008 -400.731)"/>
    <path class="cls-1" d="M255.317,420.5l.127.133a1.449,1.449,0,0,1-.527.68l-.173-.233A1.23,1.23,0,0,0,255.317,420.5Z" transform="translate(-238.008 -400.731)"/>
    <path class="cls-1" d="M255.13,421.936a2.511,2.511,0,0,0,.353-.41.945.945,0,0,0,.195.171l.012,0c.049,0-.18.094-.244.2a1.081,1.081,0,0,1-.263.307Z" transform="translate(-238.008 -400.731)"/>
    <path class="cls-1" d="M255.727,421.72a.967.967,0,0,0,.736.063c.483-.11.573-.286.573-.286l.166.153A1.473,1.473,0,0,1,255.727,421.72Z" transform="translate(-238.008 -400.731)"/>
    <path class="cls-1" d="M258.377,421.63l.151.187a1.546,1.546,0,0,1-1.075-.093A1.254,1.254,0,0,0,258.377,421.63Z" transform="translate(-238.008 -400.731)"/>
    <path class="cls-1" d="M258.035,422.207l.178.191a6.677,6.677,0,0,0-.351,1.395c-.058.608-.4,2.549-.4,2.549a17.862,17.862,0,0,0,.031-2.145,6.115,6.115,0,0,1-.035-1.191.313.313,0,0,0-.231-.337c-.138-.045-.329-.018-.422-.133A1.973,1.973,0,0,0,258.035,422.207Z" transform="translate(-238.008 -400.731)"/>
    <path class="cls-1" d="M258.381,422.491l.013.036a8.293,8.293,0,0,0-.315,1.7c-.04.8-.124,1.514-.124,1.514a10.189,10.189,0,0,1-.445,2.425,3.338,3.338,0,0,1-.532.853l-.018-.644s.533-.209.79-1.746c0,0,.258-2.145.267-2.265A7.7,7.7,0,0,1,258.381,422.491Z" transform="translate(-238.008 -400.731)"/>
    <path class="cls-1" d="M255.9,422.276a1.068,1.068,0,0,0,.413.22s-.267.033-.246.12a6.605,6.605,0,0,1,.226,1.712c0,.959.093,1.919.1,2.038a4.781,4.781,0,0,0,.266,1.093c.094.1-.226.08-.386-1.179s-.093-1.832-.187-2.292a4.582,4.582,0,0,0-.453-1.512Z" transform="translate(-238.008 -400.731)"/>
    <path class="cls-1" d="M255.277,422.769a34.042,34.042,0,0,1,.466,3.384,8.954,8.954,0,0,0-1.139,1.606,5.437,5.437,0,0,0-.307,2.352s-.752-.167-.806-1.386a3.634,3.634,0,0,1,.08-.973.9.9,0,0,0,.893-.313,5.78,5.78,0,0,0,.833-1.286,3.506,3.506,0,0,0,.2-1.405Z" transform="translate(-238.008 -400.731)"/>
    <path class="cls-1" d="M255.95,426.16a5.521,5.521,0,0,0,.679,2.252,5.594,5.594,0,0,1-.4,1.019s.06-.273-.087-.293-.966,1.479-1.392,1.759a8,8,0,0,0,1.052-1.646,4.834,4.834,0,0,0,.214-1.539C255.99,427.08,255.95,426.16,255.95,426.16Z" transform="translate(-238.008 -400.731)"/>
    <path class="cls-1" d="M257.262,428.758s-.213,2.725-.2,3.391l-.073-3.071A3.619,3.619,0,0,0,257.262,428.758Z" transform="translate(-238.008 -400.731)"/>
    <path class="cls-1" d="M257.615,429.677a4.479,4.479,0,0,0,.586,1.059l-.04.02s-.133-.146-.166.007a12.777,12.777,0,0,1-.9,3.1l-.026-.6a2.36,2.36,0,0,1-.553-1.272,4.5,4.5,0,0,0,.533,1.146,7.848,7.848,0,0,0,.593-1.726A5.028,5.028,0,0,0,257.615,429.677Z" transform="translate(-238.008 -400.731)"/>
    <path class="cls-1" d="M257.588,432.769l.2.28a10.7,10.7,0,0,1,.3,2.785,4.556,4.556,0,0,1-.98,2.911v-.493a6.541,6.541,0,0,1-.7-3.085,9.074,9.074,0,0,0,.706,2.965,3.238,3.238,0,0,0,.646-1.559,9.321,9.321,0,0,0-.246-3.657Z" transform="translate(-238.008 -400.731)"/>
    <path class="cls-1" d="M257.588,432.769l.2.28a10.7,10.7,0,0,1,.3,2.785,4.556,4.556,0,0,1-.98,2.911v-.493a6.541,6.541,0,0,1-.7-3.085,9.074,9.074,0,0,0,.706,2.965,3.238,3.238,0,0,0,.646-1.559,9.321,9.321,0,0,0-.246-3.657Z" transform="translate(-238.008 -400.731)"/>
    <path class="cls-1" d="M256.836,433.515l.233.4.187-.307-.127,3.684-.146-1.918S256.843,433.781,256.836,433.515Z" transform="translate(-238.008 -400.731)"/>
    <path class="cls-1" d="M256.829,438.531s.153.26.253.28.3-.353.3-.353l-.313,2.425Z" transform="translate(-238.008 -400.731)"/>
    <path class="cls-1" d="M257.995,426.193a11.416,11.416,0,0,1-.246,1.665s.193,2.885,1.425,2.938l.027-.006a5.388,5.388,0,0,1-.833-1.766A9.938,9.938,0,0,1,257.995,426.193Z" transform="translate(-238.008 -400.731)"/>
    <path class="cls-1" d="M257.768,432.322a1.6,1.6,0,0,0,.24.693,2.369,2.369,0,0,0,.826.626,1.132,1.132,0,0,1-.72-.46,2.384,2.384,0,0,1-.433-.646Z" transform="translate(-238.008 -400.731)"/>
    <path class="cls-1" d="M258.141,431.03a4.487,4.487,0,0,0,.42,1.226c.24.333.666.912,1.2.926,0,0-.82.36-1.566-.86l-.28-.426S258.041,430.95,258.141,431.03Z" transform="translate(-238.008 -400.731)"/>
    <path class="cls-1" d="M256.156,429.737s.02,1.412.08,1.7.227,1.026.26,1.146a1.384,1.384,0,0,1-1.006.679s.773-.453.8-1.046v-.266l-.259.486a1.526,1.526,0,0,1-1.24.86,1.441,1.441,0,0,0,1.046-.753,5.308,5.308,0,0,0,.347-1.093l-.067-.779s-.126,1.519-.952,1.852a2.527,2.527,0,0,0,.659-1.206C255.923,430.663,256.156,429.737,256.156,429.737Z" transform="translate(-238.008 -400.731)"/>
    <path class="cls-1" d="M256.536,432.715l.08.2a3.447,3.447,0,0,1-1.246.979c-.62.2-1.545.273-1.772-.833a1.149,1.149,0,0,0,1.5.766A3.3,3.3,0,0,0,256.536,432.715Z" transform="translate(-238.008 -400.731)"/>
    <path class="cls-1" d="M256.429,433.641a9.209,9.209,0,0,0-.313,1.459,3.466,3.466,0,0,1-.666.786s.506-.513.426-.733c0,0-.087-.006-.3.267s-1.272,1.093-1.972.953a2.541,2.541,0,0,0,1.766-1.02A7.233,7.233,0,0,0,256.429,433.641Z" transform="translate(-238.008 -400.731)"/>
    <path class="cls-1" d="M252.592,434.328a1.2,1.2,0,0,0-.306,1.519s-.467-.2-.2-1.006c0,0,.046-.247-.22.013s-.58,1.219.506,2.019a1.378,1.378,0,0,1-.879-1.033A1.283,1.283,0,0,1,252.592,434.328Z" transform="translate(-238.008 -400.731)"/>
    <path class="cls-1" d="M256.11,435.18s-.02.44-.02.493a4.877,4.877,0,0,1-1.865,1.3,2.763,2.763,0,0,1-1.386.053,3.12,3.12,0,0,0,2.132-.566A5.771,5.771,0,0,0,256.11,435.18Z" transform="translate(-238.008 -400.731)"/>
    <path class="cls-1" d="M256.116,435.933s.113.939.14,1.053a6.116,6.116,0,0,1-1.459,1.9s1.206-1.232,1.292-1.865c0,0-1.112,1.978-2.658,2.052a3.445,3.445,0,0,0,2.232-1.719A4.718,4.718,0,0,0,256.116,435.933Z" transform="translate(-238.008 -400.731)"/>
    <path class="cls-1" d="M252.033,437.152a1.323,1.323,0,0,0,.986,1.926,1.21,1.21,0,0,1-.806-.153c-.367-.239-.606.186-.153.5a1.2,1.2,0,0,1-.767-1.139A1.289,1.289,0,0,1,252.033,437.152Z" transform="translate(-238.008 -400.731)"/>
    <path class="cls-1" d="M256.3,437.092l.133.4a6.28,6.28,0,0,1-1.812,2.091,3,3,0,0,1-2.145.34s1.046.127.726-.08a1.8,1.8,0,0,0-.326-.086,6.266,6.266,0,0,0,.713-.067,3.2,3.2,0,0,0,1.438-.713A6.325,6.325,0,0,0,256.3,437.092Z" transform="translate(-238.008 -400.731)"/>
    <path class="cls-1" d="M257.857,433.128a2.217,2.217,0,0,0,.657.715,2.19,2.19,0,0,0,.933,1.83,1.928,1.928,0,0,0,1.87.378,1.882,1.882,0,0,1-2.1-.351A4.106,4.106,0,0,1,257.857,433.128Z" transform="translate(-238.008 -400.731)"/>
    <path class="cls-1" d="M261.695,434.185s1.7,1.119-.364,2.336A1.4,1.4,0,0,0,261.695,434.185Z" transform="translate(-238.008 -400.731)"/>
    <path class="cls-1" d="M262.259,434.521a1.506,1.506,0,0,1-.553,2.152,1.894,1.894,0,0,1-1.319.193,1.636,1.636,0,0,0,1.606-.226A1.485,1.485,0,0,0,262.259,434.521Z" transform="translate(-238.008 -400.731)"/>
    <path class="cls-1" d="M258.128,435.134a2.853,2.853,0,0,0,1.486,1.319,4.674,4.674,0,0,0,1.072.213,2.752,2.752,0,0,1-1.805-.519,4.443,4.443,0,0,1-.746-.813Z" transform="translate(-238.008 -400.731)"/>
    <path class="cls-1" d="M258.111,436.232a5.087,5.087,0,0,0,1.9,2.6,4.67,4.67,0,0,1-1.914-2.309Z" transform="translate(-238.008 -400.731)"/>
    <path class="cls-1" d="M261.939,437.185s.523.907-.051,1.5a1.381,1.381,0,0,1-1.28.405s1.022.229,1.486-.405A1.132,1.132,0,0,0,261.939,437.185Z" transform="translate(-238.008 -400.731)"/>
    <path class="cls-1" d="M262.548,437.648a1.481,1.481,0,0,1-.961,1.94,2.31,2.31,0,0,1-1.537,0l-.4-.051a2.157,2.157,0,0,0,1.759.3C262.522,439.605,263.1,438.36,262.548,437.648Z" transform="translate(-238.008 -400.731)"/>
    <path class="cls-1" d="M251.195,426.479s1.521-.163,1.888-1.088c0,0,1.056.1,2.135-1.458a3.931,3.931,0,0,1-2.23,1.861,3.626,3.626,0,0,1-1.968.986Z" transform="translate(-238.008 -400.731)"/>
    <path class="cls-1" d="M250.824,427.4a2.629,2.629,0,0,0,2.212-1.048,2.417,2.417,0,0,0,1.743-.748,2.509,2.509,0,0,1-1.9,1.032,3.51,3.51,0,0,1-2.25,1.045Z" transform="translate(-238.008 -400.731)"/>
    <path class="cls-1" d="M252.917,427.359a2.276,2.276,0,0,0,1.636-.652,2.233,2.233,0,0,1-1.731.913,2.932,2.932,0,0,1-2.775,1.118l.214-.251A2.547,2.547,0,0,0,252.917,427.359Z" transform="translate(-238.008 -400.731)"/>
    <path class="cls-1" d="M252.811,428.189s.107.438.711-.391c0,0-.83,1.553.285,2.347,0,0-.866.154-.2.771C253.6,430.917,252.029,430.324,252.811,428.189Z" transform="translate(-238.008 -400.731)"/>
    <path class="cls-1" d="M252.6,428.581a2.5,2.5,0,0,1-2.134.818s.593.142,0,.2A2.021,2.021,0,0,0,252.6,428.581Z" transform="translate(-238.008 -400.731)"/>
    <path class="cls-1" d="M251.4,429.9l.059.7-.308.119A1.9,1.9,0,0,0,251.4,429.9Z" transform="translate(-238.008 -400.731)"/>
    <path class="cls-1" d="M252.4,429a2.245,2.245,0,0,0,.237,1.292l-.877.38-.2-.072a5.264,5.264,0,0,0,.783-1.47Z" transform="translate(-238.008 -400.731)"/>
    <path class="cls-1" d="M251.886,430.71l-.227-.046s-1.332,1.685-1.705,2.071-1.486,1.593-.933,2.019a1.054,1.054,0,0,1,.08-.733,12.4,12.4,0,0,1,1.086-1.413C250.54,432.236,251.819,430.87,251.886,430.71Z" transform="translate(-238.008 -400.731)"/>
    <path class="cls-1" d="M248.495,434.414s-.086.353.027.386.266.08.266.14-.16.02-.326.22-.253.366-.427.366a3.138,3.138,0,0,1-.619.767c-.307.226-.646.592-.653.812s.306.76-.453,1.126a.668.668,0,0,1-.859-.386s.852.186.679-.926a1.2,1.2,0,0,1,.493.1,3.585,3.585,0,0,1,.573-.873A10.969,10.969,0,0,0,248.495,434.414Z" transform="translate(-238.008 -400.731)"/>
    <path class="cls-1" d="M250.041,436.679a.6.6,0,0,0,.273-.06c.08-.06.18-.046.16.054S250.346,436.966,250.041,436.679Z" transform="translate(-238.008 -400.731)"/>
    <path class="cls-1" d="M249.827,436.559a.513.513,0,0,0,.067-.766.622.622,0,0,0-.334-.2c-.2-.058-.346-.2-.046-.34a.833.833,0,0,1,1.259.593C250.9,436.646,249.827,436.559,249.827,436.559Z" transform="translate(-238.008 -400.731)"/>
    <path class="cls-1" d="M248.077,434.417a4.2,4.2,0,0,1-2.878,1.936.825.825,0,0,1-1.27.542s-.72-.48.408-.613c0,0,.436-.009.507-.293a2.913,2.913,0,0,0,1.35-.133,3.561,3.561,0,0,0,1.146-.8C247.544,434.9,248.033,434.426,248.077,434.417Z" transform="translate(-238.008 -400.731)"/>
    <path class="cls-1" d="M243.808,437.026a.73.73,0,0,0,.52.147,1.069,1.069,0,0,1-.6-.034S243.808,437.066,243.808,437.026Z" transform="translate(-238.008 -400.731)"/>
    <path class="cls-1" d="M244.808,433.777s-.235.493-.537.564-.715-.053-.6.28a.626.626,0,0,0,.733.44.932.932,0,0,0,.409-.262,1.119,1.119,0,0,1,.661-.338.966.966,0,0,1-.279.187c-.178.08-.014.2.071.213a1.243,1.243,0,0,0,.923.053c.413-.191.92-.573,1.031-.595a7.289,7.289,0,0,1-1.035-.071,9.171,9.171,0,0,0-.96-.195c-.19,0-.137-.04-.181-.085S244.9,433.728,244.808,433.777Z" transform="translate(-238.008 -400.731)"/>
    <path class="cls-1" d="M243.432,434.436a.957.957,0,0,0,.406.6,1.727,1.727,0,0,1-.506-.25s-.06-.045.049-.036C243.381,434.75,243.368,434.417,243.432,434.436Z" transform="translate(-238.008 -400.731)"/>
    <path class="cls-1" d="M250.21,430.969a3.036,3.036,0,0,0,1.14-.256,3.969,3.969,0,0,1-1.474.593S250.143,431.053,250.21,430.969Z" transform="translate(-238.008 -400.731)"/>
    <path class="cls-1" d="M249.34,431.954a3.09,3.09,0,0,0,1.195-.194,2.234,2.234,0,0,1-1.419.481A3.055,3.055,0,0,0,249.34,431.954Z" transform="translate(-238.008 -400.731)"/>
    <path class="cls-1" d="M248.714,433a3.121,3.121,0,0,0,1.055-.241,2.012,2.012,0,0,1-1.261.468A1.34,1.34,0,0,0,248.714,433Z" transform="translate(-238.008 -400.731)"/>
    <path class="cls-1" d="M247.51,433.566a4.013,4.013,0,0,0,1.482.1,2.179,2.179,0,0,1-1.059.2A.534.534,0,0,1,247.51,433.566Z" transform="translate(-238.008 -400.731)"/>
    <path class="cls-1" d="M259.67,424.595a2.5,2.5,0,0,0,1.429.63,2.283,2.283,0,0,0,1.235.807l.151.252a2.676,2.676,0,0,1-1.285-.815S259.932,425.208,259.67,424.595Z" transform="translate(-238.008 -400.731)"/>
    <path class="cls-1" d="M259.566,425.421a2.206,2.206,0,0,0,1.294.546,2.574,2.574,0,0,0,1.227.782s.547.1.58.1l.139.262a4.373,4.373,0,0,1-1.736-.842A3.168,3.168,0,0,1,259.566,425.421Z" transform="translate(-238.008 -400.731)"/>
    <path class="cls-1" d="M259.815,426.534s.866.538,1.311.412a1.492,1.492,0,0,0,.689.622,3.243,3.243,0,0,0,1.429.269l.189.27a4.854,4.854,0,0,1-1.316-.346,8.771,8.771,0,0,1-.932-.513A8.007,8.007,0,0,1,259.815,426.534Z" transform="translate(-238.008 -400.731)"/>
    <path class="cls-1" d="M264.611,428.76a2.4,2.4,0,0,1-2.081.3s.686-.052.249-.186a3.4,3.4,0,0,1-1.076-.412,3.612,3.612,0,0,0,1.446.344c.79.009,1.017-.193,1.017-.193A3.314,3.314,0,0,0,264.611,428.76Z" transform="translate(-238.008 -400.731)"/>
    <path class="cls-1" d="M259.98,429.351a4.576,4.576,0,0,0,.48-1.492,2.644,2.644,0,0,1-.454,2.032Z" transform="translate(-238.008 -400.731)"/>
    <path class="cls-1" d="M261.033,428.125a2.446,2.446,0,0,0,1.432.933,1.184,1.184,0,0,1,.12.9l-1.019-1.172a3.082,3.082,0,0,1-.573,1.478c-.466.507-.853.713-1.266.633a1.573,1.573,0,0,0,1.146-.739A2.181,2.181,0,0,0,261.033,428.125Z" transform="translate(-238.008 -400.731)"/>
    <path class="cls-1" d="M261.422,429.614a1.633,1.633,0,0,0,1.052.406.494.494,0,0,1-.459.094,1.844,1.844,0,0,0,2.022.394s-.242.748-1.662-.021a1.74,1.74,0,0,0,.826.8,2.041,2.041,0,0,0,1.416.1l.166.058s-.014.227-.2.243a2.7,2.7,0,0,1-1.659-.446s1.141,1.678,2.473,1.285l.145.056-.1.217a2.639,2.639,0,0,1-1.71-.612,3.35,3.35,0,0,0,1.239,1.119,1.567,1.567,0,0,0,1.219-.08h.246s-.053.44-.812.326-.92-.273-.92-.273a3.1,3.1,0,0,1,.487.906,6.5,6.5,0,0,0-.673-.979c-.367-.42-1.086-1.266-1.086-1.266s-1.113-1.345-1.252-1.492-.773-.8-.773-.8Z" transform="translate(-238.008 -400.731)"/>
    <path class="cls-1" d="M267.58,433.862a2.945,2.945,0,0,1,.816-.132,1.3,1.3,0,0,0,.622-.222c.187-.179.167-.443.77-.416a.672.672,0,0,1,.517.381s.218-.027.284.14a1.291,1.291,0,0,0-.1.432c-.016.256-.059.583-.358.49,0,0,.082-.195-.054-.144s-.144.011-.132-.109a.5.5,0,0,1-.58.183.249.249,0,0,0,.066-.14s.405-.07.358-.413a.377.377,0,0,0-.513-.3c-.125.055-.3.366-.475.362S267.809,433.85,267.58,433.862Z" transform="translate(-238.008 -400.731)"/>
    <path class="cls-1" d="M269.116,436.23a.734.734,0,0,0,.711.3c.525-.035.49-.2.451-.229s.416-.439.028-.847a1.051,1.051,0,0,0-1.353-.191s-.008.047-.136-.054a7.14,7.14,0,0,0-1.505-.657s1.369.509,1.435.75-.447-.023-.447-.023a5.974,5.974,0,0,0-1.14-.447,9.837,9.837,0,0,1,1.474.75s.237.179.323.128.54-.4.661.008A.424.424,0,0,1,269.116,436.23Z" transform="translate(-238.008 -400.731)"/>
    <path class="cls-1" d="M267.082,435.571a.2.2,0,0,0,.053.111c.049.053.5.373.431.759,0,0,.209-.271.267.058,0,0,.693.569-.174,1.137,0,0,.249.089.209.262a.241.241,0,0,1-.239.169s.084.133.341.071.445-.1.449-.049a.165.165,0,0,0,.093-.186.213.213,0,0,0,.009-.271,1.051,1.051,0,0,0,.111-.844.991.991,0,0,0-.711-.458Z" transform="translate(-238.008 -400.731)"/>
    <path class="cls-1" d="M263.942,436.4a1.075,1.075,0,0,0,.2-.067.878.878,0,0,1,.262-.062c.013,0,.1-.3-.053-.217A2.481,2.481,0,0,0,263.942,436.4Z" transform="translate(-238.008 -400.731)"/>
    <path class="cls-1" d="M264.724,435.562a.8.8,0,0,0,1.159-.813s-.155.826-1.208.466c0,0-.813-.333-.888.241,0,0-.018.111.142.217s-.076.4-.276.36C263.653,436.033,264.524,436.277,264.724,435.562Z" transform="translate(-238.008 -400.731)"/>
    <path class="cls-1" d="M261.236,420.4s.818.326.541-.062v-.056s.541.167,1.248-.61a.577.577,0,0,1-.527.8,5.286,5.286,0,0,0,.513,1.8,4.9,4.9,0,0,0,.819,1.054,2.6,2.6,0,0,1-.791-.881,5.64,5.64,0,0,1-.652-1.907l-.236.042a3.6,3.6,0,0,0,.16.776l.125,2.622-.569-3.392a1.789,1.789,0,0,1-.638-.159Z" transform="translate(-238.008 -400.731)"/>
    <path class="cls-1" d="M262.528,424.944l-.03-.5s.59-.18.777-1.2l.756.645.218-.167a25.919,25.919,0,0,0,.233,2.8,4.865,4.865,0,0,0,.347,1.02s-.929-.209-1.075-2.241l-.167-1.623S263.251,424.691,262.528,424.944Z" transform="translate(-238.008 -400.731)"/>
    <polygon class="cls-1" points="25.898 21.96 25.725 19.478 25.26 19.423 25.898 21.96"/>
    <path class="cls-1" d="M263.977,423.322l.04.427a3.354,3.354,0,0,0,.959-2.665l1.6,7.461-1.133-7.435a4.254,4.254,0,0,1-.892-1.212l-.067.066A3.608,3.608,0,0,1,263.977,423.322Z" transform="translate(-238.008 -400.731)"/>
    <path class="cls-1" d="M266.189,421.683l.573.24s1.425,5.6.05,8.342l-.063-.641s-1.546-.773-2.266-6.329l.027-.08s.64,5.156,2.172,6.249c0,0,1.052-2.4-.16-7.514A.967.967,0,0,0,266.189,421.683Z" transform="translate(-238.008 -400.731)"/>
    <path class="cls-1" d="M266.847,421.949l.773.2s.391,1.1.453,1.217.559,1.031.773,1.466a7.28,7.28,0,0,0,2.471,3.336s-1.09.43-2.21-1.408-1.958-3.571-1.958-3.571Z" transform="translate(-238.008 -400.731)"/>
    <path class="cls-1" d="M266.622,408.279a3.665,3.665,0,0,0-2.178,1.646,2.649,2.649,0,0,1,.639.086l1.606-1.659-1.326,1.786a2.123,2.123,0,0,1,.593.612,1.656,1.656,0,0,1,1.359.36,1.3,1.3,0,0,1,.326,1.519,1.584,1.584,0,0,1,.506,1.446c-.193.846-.652,1.006-.652,1.006a2.3,2.3,0,0,1,.12,1.5,1.334,1.334,0,0,1-.687.806s-.126,1.073-.6,1.419a2.2,2.2,0,0,1-1.266.42,1.609,1.609,0,0,1-1.972.819l.014-.093s.672.28.679.066c0,0,.033-.106-.346-.113,0,0-.26-.026-.327-.146a1.346,1.346,0,0,0,1.759-.84,1.728,1.728,0,0,0,1.419-.56,1.506,1.506,0,0,0,.32-1.192,1.216,1.216,0,0,0,.786-.939,2.072,2.072,0,0,0-.273-1.246,1.277,1.277,0,0,0,.726-1.392,1.253,1.253,0,0,0-.546-.887,1.172,1.172,0,0,0-.14-1.332,1.615,1.615,0,0,0-1.426-.353,1.227,1.227,0,0,0-1.186-.819s.533-.1.213-.207a1.75,1.75,0,0,0-.566.013l.18-.126A3.874,3.874,0,0,1,266.622,408.279Z" transform="translate(-238.008 -400.731)"/>
    <path class="cls-1" d="M266.622,408.279a3.665,3.665,0,0,0-2.178,1.646,2.649,2.649,0,0,1,.639.086l1.606-1.659-1.326,1.786a2.123,2.123,0,0,1,.593.612,1.656,1.656,0,0,1,1.359.36,1.3,1.3,0,0,1,.326,1.519,1.584,1.584,0,0,1,.506,1.446c-.193.846-.652,1.006-.652,1.006a2.3,2.3,0,0,1,.12,1.5,1.334,1.334,0,0,1-.687.806s-.126,1.073-.6,1.419a2.2,2.2,0,0,1-1.266.42,1.609,1.609,0,0,1-1.972.819l.014-.093s.672.28.679.066c0,0,.033-.106-.346-.113,0,0-.26-.026-.327-.146a1.346,1.346,0,0,0,1.759-.84,1.728,1.728,0,0,0,1.419-.56,1.506,1.506,0,0,0,.32-1.192,1.216,1.216,0,0,0,.786-.939,2.072,2.072,0,0,0-.273-1.246,1.277,1.277,0,0,0,.726-1.392,1.253,1.253,0,0,0-.546-.887,1.172,1.172,0,0,0-.14-1.332,1.615,1.615,0,0,0-1.426-.353,1.227,1.227,0,0,0-1.186-.819s.533-.1.213-.207a1.75,1.75,0,0,0-.566.013l.18-.126A3.874,3.874,0,0,1,266.622,408.279Z" transform="translate(-238.008 -400.731)"/>
    <path class="cls-1" d="M266.988,407.986a2.958,2.958,0,0,1-.12,1.845,6.083,6.083,0,0,1,1.306-.44,4.126,4.126,0,0,0-2.159,1.313l-.04-.027a2.916,2.916,0,0,0,.773-2.385Z" transform="translate(-238.008 -400.731)"/>
    <polygon class="cls-1" points="27.229 18.527 29.101 20.659 27.622 18.467 27.229 18.527"/>
    <path class="cls-1" d="M266.582,418.592a3.084,3.084,0,0,0,2.125,1.212,2.977,2.977,0,0,1-.826-.126l3.851,6.162-4.344-6.289a5.447,5.447,0,0,1,.253,2.485l-.346-.446a3.76,3.76,0,0,0-.773-2.918Z" transform="translate(-238.008 -400.731)"/>
    <path class="cls-1" d="M269.218,419.83a2.87,2.87,0,0,0,.408-.036s1.2,1.769,1.553,2.415a9.553,9.553,0,0,1,1.231,3.3,5.524,5.524,0,0,1,.055,1.732l-.267-.513s-1.585.033-4.237-4.123c0,0,2.612,3.93,4.184,3.983C272.145,426.586,272.758,424.614,269.218,419.83Z" transform="translate(-238.008 -400.731)"/>
    <path class="cls-1" d="M267.455,411.164l-.213-.173,1.838-1.586a3.438,3.438,0,0,1-1.345,3.053,1.647,1.647,0,0,0,.053-.346,3.157,3.157,0,0,0,.959-2.309Z" transform="translate(-238.008 -400.731)"/>
    <path class="cls-1" d="M270.067,419.591l-.4-.293s.014-1.4-2.025-2.652l.013-.08s2.532.387,3.252-.892c0,0,3.117.159,3.837-1.226h.386s-.426,1.026-2.558,1.372l-1.346.054a2.877,2.877,0,0,1-2.172,1l5.57,2.6-5.716-2.225A3.77,3.77,0,0,1,270.067,419.591Z" transform="translate(-238.008 -400.731)"/>
    <path class="cls-1" d="M270.067,419.591l-.4-.293s.014-1.4-2.025-2.652l.013-.08s2.532.387,3.252-.892c0,0,3.109.139,3.829-1.246l.413-.007s-.413,1.06-2.545,1.406l-1.378.047a2.877,2.877,0,0,1-2.172,1l5.57,2.6-5.716-2.225A3.77,3.77,0,0,1,270.067,419.591Z" transform="translate(-238.008 -400.731)"/>
    <path class="cls-1" d="M269.191,414.182a6.913,6.913,0,0,1,1.474.871l-.346-.32s3.4-.276,4.051-.284l-4.566-.027Z" transform="translate(-238.008 -400.731)"/>
    <path class="cls-1" d="M265.457,408.508s1.056-.573,1.236-.638,2.939-2.366,2.939-2.366l-2.612,2.447A8.629,8.629,0,0,0,265.457,408.508Z" transform="translate(-238.008 -400.731)"/>
    <polygon class="cls-1" points="30.576 8.612 31.1 8.637 33.204 6.229 30.576 8.612"/>
    <path class="cls-1" d="M270.794,411.937l-.286.164s-.3,1.358-2.4,2.177l-.032.139.99-.278s1.67-1.1,1.792-2.226l2.358-1.466-2.644,1.326a7.782,7.782,0,0,0-2.226.311A6.12,6.12,0,0,1,270.794,411.937Z" transform="translate(-238.008 -400.731)"/>
    <path class="cls-1" d="M270.293,404.88l-.358.321a3.843,3.843,0,0,1-1.465,2.472l-1.392,1.1v.188a15.024,15.024,0,0,0,2.243-1.825A3.641,3.641,0,0,0,270.293,404.88Z" transform="translate(-238.008 -400.731)"/>
    <path class="cls-1" d="M271.788,406.467l-.446.379a3.329,3.329,0,0,1-.621,1.842,9.132,9.132,0,0,1-1.638,1.612l-.049.262A5.6,5.6,0,0,0,271.788,406.467Z" transform="translate(-238.008 -400.731)"/>
    <path class="cls-1" d="M272.284,407.8s.655.684-.647,2.149a9.912,9.912,0,0,0-3.134,1.747s.091-.145.1-.158l2.154-1.518S272.265,409.056,272.284,407.8Z" transform="translate(-238.008 -400.731)"/>
    <path class="cls-1" d="M273.544,410.291l.47-.21a4.653,4.653,0,0,1-2.2,2.488,8.292,8.292,0,0,1-1.4.387l.049-.08A5.125,5.125,0,0,0,273.544,410.291Z" transform="translate(-238.008 -400.731)"/>
    <path class="cls-1" d="M274.41,411.564s.667.971-1.765,1.818a19.615,19.615,0,0,0-2.492.007l1.226-.1S273.95,412.629,274.41,411.564Z" transform="translate(-238.008 -400.731)"/>
    <path class="cls-1" d="M269.777,405.24s-4.48.988-5.5,4.172c0,0-.556.653-.569.88a1.4,1.4,0,0,0-.453,1.385,1.294,1.294,0,0,0-.779,1.233.938.938,0,0,0,1.119.906l.22.053s-2.112.52-1.966-1.526C261.926,411.611,263.267,406.729,269.777,405.24Z" transform="translate(-238.008 -400.731)"/>
    <path class="cls-1" d="M262.7,414.643a1.6,1.6,0,0,0,1.083-.693h.045a2.463,2.463,0,0,0-.018,1.048,1.855,1.855,0,0,0,1.1-.3s1.066,2.434-4.646,3.074a12.119,12.119,0,0,0,.293-1.341h.187a2.163,2.163,0,0,0,2.371-.676S263.746,415.115,262.7,414.643Z" transform="translate(-238.008 -400.731)"/>
    <path class="cls-1" d="M264.235,413.08a3.177,3.177,0,0,0-.417.788s-.946-.144-1.075-.859.573-1.137.87-1.23a1.108,1.108,0,1,1,2.088-.733l-.187.324a1.9,1.9,0,0,0-1.159-.613,1.815,1.815,0,0,0-.213,1.47,1.409,1.409,0,0,0-1.035.258,1.485,1.485,0,0,0,.8.839A1.309,1.309,0,0,1,264.235,413.08Z" transform="translate(-238.008 -400.731)"/>
    <path class="cls-1" d="M265.536,411.419l.187.3a1.638,1.638,0,0,1,1.039-.075,1.115,1.115,0,0,1-.28,1.017,2.468,2.468,0,0,1,.977,1.452,1.6,1.6,0,0,1-.95.138,1.924,1.924,0,0,0,.764,0c.4-.088.364.4-.125.666,0,0,.735-.229.637-1.353a1.248,1.248,0,0,0-.521-.845,1.217,1.217,0,0,0-.076-1.257,1.528,1.528,0,0,0-1.452-.4Z" transform="translate(-238.008 -400.731)"/>
    <path class="cls-1" d="M265.933,412.413a4.278,4.278,0,0,0-.563.683l2.009.983S267.455,413.326,265.933,412.413Z" transform="translate(-238.008 -400.731)"/>
    <path class="cls-1" d="M265.317,413.119l.192.83a1.948,1.948,0,0,1-1.59.971Z" transform="translate(-238.008 -400.731)"/>
    <path class="cls-1" d="M265.9,412.392a2.794,2.794,0,0,0-.558.652s-.624-1.651-.919-2.163a1.826,1.826,0,0,0,.042,1.942,1.993,1.993,0,0,1-.071-1.97S265.519,410.877,265.9,412.392Z" transform="translate(-238.008 -400.731)"/>
    <path class="cls-1" d="M266.684,411.708l-.728.671.437.271a1,1,0,0,0,.313-.942,1.2,1.2,0,0,0-.924.056A1.5,1.5,0,0,1,266.684,411.708Z" transform="translate(-238.008 -400.731)"/>
    <path class="cls-1" d="M264.2,412.321a3.345,3.345,0,0,0,.3.606l-1.288-.422A1.426,1.426,0,0,1,264.2,412.321Z" transform="translate(-238.008 -400.731)"/>
    <path class="cls-1" d="M260.153,418.592l-.227.662c7.941-.693,6.4-5.039,6.4-5.039h0a3.565,3.565,0,0,1-.766-.226c1.439,4.47-5.409,4.6-5.409,4.6Z" transform="translate(-238.008 -400.731)"/>
    <path class="cls-1" d="M274.965,419.591l.469.173s-1.43,1.277-5.39-.46c0,0-.1-.441-.124-.486C269.92,418.818,273.41,420.648,274.965,419.591Z" transform="translate(-238.008 -400.731)"/>
    <path class="cls-1" d="M269.654,419.791l.08.12s2.518,1.526,2.851,1.679,1.712.806,2.538-.127a1.739,1.739,0,0,1-1.392-.067,10.694,10.694,0,0,1-1.606-.812c-.839-.52-2.071-1.246-2.071-1.246l.046.313Z" transform="translate(-238.008 -400.731)"/>
    <path class="cls-2" d="M269.654,419.791l.08.12s2.518,1.526,2.851,1.679,1.712.806,2.538-.127a1.739,1.739,0,0,1-1.392-.067,10.694,10.694,0,0,1-1.606-.812c-.839-.52-2.071-1.246-2.071-1.246l.046.313Z" transform="translate(-238.008 -400.731)"/>
    <path class="cls-1" d="M250.277,423.3a5.539,5.539,0,0,0,.419,2.186s-.752,3.175-1.951,2.829a2.382,2.382,0,0,0,.982-1.344,11.243,11.243,0,0,0,.46-3.611Z" transform="translate(-238.008 -400.731)"/>
    <path class="cls-1" d="M249.256,419.94a4.719,4.719,0,0,0,.012,2.915,3.442,3.442,0,0,1-.06-2.964Z" transform="translate(-238.008 -400.731)"/>
    <path class="cls-1" d="M246.5,429.211l2.125-6.842a3.676,3.676,0,0,0,.819,1.453s-1.434,4.918-3.14,5.984l.109-.34s-.766-1.76.673-7.157c0,0-1.625,4.8-.826,7.595l-.229.643s2.431-1.432,3.835-6.921l-.377.135a3.21,3.21,0,0,1-.795-3.06l-.151.249Z" transform="translate(-238.008 -400.731)"/>
    <path class="cls-1" d="M247.209,418.479a4.2,4.2,0,0,0-.515,3.408l-.031.046A4.017,4.017,0,0,1,247.209,418.479Z" transform="translate(-238.008 -400.731)"/>
    <path class="cls-1" d="M246.443,422.372l.466-.146a26.458,26.458,0,0,1-1,3.041c-.373.737-1.952,4.237-4.084,3.784a5.011,5.011,0,0,0,2.974-2.94s.4-.853.47-1.013.693-1.625.693-1.625Z" transform="translate(-238.008 -400.731)"/>
    <path class="cls-1" d="M246.117,416.547a15.294,15.294,0,0,0-1.612.666s-5.2,2.192-5.316,2.245,5.089-1.8,5.089-1.8.347-.58,1.839-1.067Z" transform="translate(-238.008 -400.731)"/>
    <path class="cls-1" d="M248.162,410.2s-.253-1.142-.053-1.3a16.5,16.5,0,0,1,1.079,1.657s-.591.284-.911-.147l.342.5a1.365,1.365,0,0,1,.622-.075,1.24,1.24,0,0,1,.493-.072s-.222-.252-.346-.426a11.61,11.61,0,0,0-1.222-1.483s.622-.2,1.615.761a3.767,3.767,0,0,1,.846,1.573,3.2,3.2,0,0,0-2.685-2.618A2.546,2.546,0,0,0,248.162,410.2Z" transform="translate(-238.008 -400.731)"/>
    <path class="cls-1" d="M247.453,406.55s-2.383-1.5-3.668-1.511c0,0,.09.955,1.608,2.24,0,0-1.262-1.173-1.1-1.857C244.3,405.422,244.944,405.152,247.453,406.55Z" transform="translate(-238.008 -400.731)"/>
    <path class="cls-1" d="M241.664,406.516l.444.24s-.053,1.119,1.484,2.2a5.008,5.008,0,0,0,2.078.924,2.332,2.332,0,0,0-.791.115l-1.205-.893-1.14-1.021-.139-.011A4.187,4.187,0,0,1,241.664,406.516Z" transform="translate(-238.008 -400.731)"/>
    <path class="cls-1" d="M244.851,410.231a2.594,2.594,0,0,0,.206.753s-4-1.593-4.05-3.038a3.287,3.287,0,0,0,1.013,1.2C242.739,409.672,244.471,410.544,244.851,410.231Z" transform="translate(-238.008 -400.731)"/>
    <path class="cls-1" d="M242.375,410.193s-1.883-.222-2.283.125l-.355-.134s.293.889,2.549,1.9c0,0,1.146.373,1.732-.062l.071.044a8.714,8.714,0,0,0-.9.507s-2.9-1.022-3.535-2.39A4.63,4.63,0,0,1,242.375,410.193Z" transform="translate(-238.008 -400.731)"/>
    <path class="cls-1" d="M243.165,412.725a1.119,1.119,0,0,0,.249.4,9.862,9.862,0,0,0-1.919-.107s-2.043-.639-2.381-1.474A4.714,4.714,0,0,0,243.165,412.725Z" transform="translate(-238.008 -400.731)"/>
    <path class="cls-1" d="M240.643,413.355s-1.528.249-1.883.737l-.151-.018s.1.649,2.718,1.36a2.652,2.652,0,0,0,2.149-.329l.018.044a3.72,3.72,0,0,0-.551.471,6.234,6.234,0,0,1-1.936-.213,5,5,0,0,1-2.531-1.333A3.979,3.979,0,0,1,240.643,413.355Z" transform="translate(-238.008 -400.731)"/>
    <path class="cls-1" d="M238.964,414.146s3.109.285,3.722.32a20.643,20.643,0,0,0,2.407-.027,3.117,3.117,0,0,0-1.252.382s-1.493-.231-2.026-.3Z" transform="translate(-238.008 -400.731)"/>
    <path class="cls-1" d="M238.448,415.7a2.729,2.729,0,0,0,1.716.479c1.1-.028,2.406-.178,2.591-.1l.294.239s-1.442.137-2.058.13S238.933,416.553,238.448,415.7Z" transform="translate(-238.008 -400.731)"/>
    <path class="cls-1" d="M241.593,417.226s-2.545,1.379-2.585,2.272l-.186.08s.133.306,1.952.006l.113.08s-.24.007-.28.014a4.3,4.3,0,0,1-1.992-.014S239.022,418.5,241.593,417.226Z" transform="translate(-238.008 -400.731)"/>
    <path class="cls-1" d="M243.778,418.659a4.2,4.2,0,0,0-.1.533,17.963,17.963,0,0,1-2.189.6s-.178.053-.253-.076c0,0-.067-.089-.316-.066l-.1-.062A10.3,10.3,0,0,0,243.778,418.659Z" transform="translate(-238.008 -400.731)"/>
    <path class="cls-1" d="M246.727,418.774a3.118,3.118,0,0,0-.329.773l-5.622,7.2s1.283.124,3.815-3.167a17.948,17.948,0,0,0,1.612-2.638,5.6,5.6,0,0,1,.08-.68,8.227,8.227,0,0,0,0,1.291s-3.028,5.386-6.068,5.788l2.958-3.988,3.2-4.37Z" transform="translate(-238.008 -400.731)"/>
    <path class="cls-1" d="M250.277,423.3a5.539,5.539,0,0,0,.419,2.186s-.752,3.175-1.951,2.829a2.382,2.382,0,0,0,.982-1.344,11.243,11.243,0,0,0,.46-3.611Z" transform="translate(-238.008 -400.731)"/>
    <path class="cls-1" d="M246.5,429.211l2.125-6.842a3.676,3.676,0,0,0,.819,1.453s-1.434,4.918-3.14,5.984l.109-.34s-.766-1.76.673-7.157c0,0-1.625,4.8-.826,7.595l-.229.643s2.431-1.432,3.835-6.921l-.377.135a3.21,3.21,0,0,1-.795-3.06l-.151.249Z" transform="translate(-238.008 -400.731)"/>
    <path class="cls-1" d="M246.443,422.372l.466-.146a26.458,26.458,0,0,1-1,3.041c-.373.737-1.952,4.237-4.084,3.784a5.011,5.011,0,0,0,2.974-2.94s.4-.853.47-1.013.693-1.625.693-1.625Z" transform="translate(-238.008 -400.731)"/>
    <path class="cls-1" d="M246.727,418.774a3.118,3.118,0,0,0-.329.773l-5.622,7.2s1.283.124,3.815-3.167a17.948,17.948,0,0,0,1.612-2.638,5.6,5.6,0,0,1,.08-.68,8.227,8.227,0,0,0,0,1.291s-3.028,5.386-6.068,5.788l2.958-3.988,3.2-4.37Z" transform="translate(-238.008 -400.731)"/>
    <path class="cls-1" d="M244.551,419.573a31.323,31.323,0,0,0-2.8,3.678,6.4,6.4,0,0,0-1.043,3.425l-.126.173a6.867,6.867,0,0,1,.183-1.6A14.253,14.253,0,0,1,244.551,419.573Z" transform="translate(-238.008 -400.731)"/>
    <path class="cls-1" d="M244.3,419.384l-1.748,1.865a13.331,13.331,0,0,1-2.373,1.147,1.525,1.525,0,0,1-1.892-.54,2.976,2.976,0,0,0,1.519.021,7.5,7.5,0,0,0,1.4-.562s1.643-1.04,1.989-1.306.978-.64.978-.64Z" transform="translate(-238.008 -400.731)"/>
    <path class="cls-1" d="M251.429,420.676a1.152,1.152,0,0,0,.4.586l-.8,3.477.377-3.259a4.991,4.991,0,0,1-.879,1.526,7.013,7.013,0,0,0,.4,2.181,4.582,4.582,0,0,0,1.475-3.456s.042-.145-.152-.235c0,0-.213-.127-.3-.193a3.6,3.6,0,0,0,.787.264s-.26,2.933-1.868,4.106l.035-.453s-.37-.413-.436-2.139a3.059,3.059,0,0,1-.953.638l.074-.355s1.334-.513,1.7-2.734a2.406,2.406,0,0,1-.915.009l-.764,2.6.365-2.709a4.435,4.435,0,0,1-.886-.765l.012-.034.032.033a1.174,1.174,0,0,0,.134-.306.078.078,0,0,0-.023-.049l.012-.007.062.1a1.715,1.715,0,0,0,2.078.71.692.692,0,0,1-.036.27l.067.018a.251.251,0,0,0,.022-.2l0-.049s.226.662,1.505.48c0,0,.129-.044.147.062a1.008,1.008,0,0,1,.013.2l.045,0V420.8l-.031-.031.008-.018a1.036,1.036,0,0,0,1.324-.076l.244.36-.071-.044a1.588,1.588,0,0,1-1.519.04A2.131,2.131,0,0,1,251.429,420.676Z" transform="translate(-238.008 -400.731)"/>
    <path class="cls-1" d="M247.4,418.414a1.419,1.419,0,0,0,.239.411s.132.168.239.34.21.167.241.144a1.524,1.524,0,0,0,.141-.207,1.089,1.089,0,0,0,.985.29l.005.017s-.143.315-.2.452a9.2,9.2,0,0,1-.69,1.309,3.616,3.616,0,0,1-1.9,1.179l.233-.439a1.721,1.721,0,0,0,.9-.34,3.779,3.779,0,0,0,1.332-1.812,4.643,4.643,0,0,1-.833-.36l-1.245,2.185.866-2.271a.333.333,0,0,0-.034-.314A1.6,1.6,0,0,1,247.4,418.414Z" transform="translate(-238.008 -400.731)"/>
    <path class="cls-1" d="M246.03,416.669a2.991,2.991,0,0,0-1.945,2.323,3.576,3.576,0,0,0,3.073-.773,3.7,3.7,0,0,1-.635-.519l-2.292,1.194a25.8,25.8,0,0,0,2.1-1.532l.3-.134a2.458,2.458,0,0,0,.893.813s-1.741,1.826-3.8,1.142l.293-.16A2.843,2.843,0,0,1,246.03,416.669Z" transform="translate(-238.008 -400.731)"/>
    <path class="cls-1" d="M244.356,414.905s-1.144.564-1.249,1.105l2.647-.458.3.447v.039l-.177-.188-2.769.21a4.9,4.9,0,0,0,2.4.669,5.919,5.919,0,0,0-.685.3,4.158,4.158,0,0,1-1.8-.663l.083-.011s.79.464.879.331-.315-.182-.492-.276-.575-.332-.553-.37A2.609,2.609,0,0,1,244.356,414.905Z" transform="translate(-238.008 -400.731)"/>
    <path class="cls-1" d="M246.181,412.245a3.789,3.789,0,0,0-2.545.484s.675.213,1.266.338,1.506.3,1.506.3-.267.191-.289.257l-2.492-.87a2.541,2.541,0,0,0,1.506,1.488s.44.182.533.048a1.832,1.832,0,0,1,.28-.386c.075-.04-.227.24-.276.613,0,0-.466-.169-.595-.227a2.986,2.986,0,0,1-1.541-1.572S244.262,411.952,246.181,412.245Z" transform="translate(-238.008 -400.731)"/>
    <path class="cls-1" d="M248.237,410.948a5.638,5.638,0,0,0-2.976-.68s.058,1.635,1.346,1.528c0,0-.222.333-.364.245a2.384,2.384,0,0,1-1.1-1.843A4.562,4.562,0,0,1,248.237,410.948Z" transform="translate(-238.008 -400.731)"/>
    <path class="cls-1" d="M245.424,410.361s1.809.952,2.332,1.133l-.06.163a1.929,1.929,0,0,0-.626-.1Z" transform="translate(-238.008 -400.731)"/>
    <path class="cls-1" d="M244.364,405.46l2.315,1.789a9.98,9.98,0,0,0,2.075,1.278l-.827-.278s-.225-.068-.248.255c0,0-.038.226-.053.293a1.074,1.074,0,0,0-.1-.563c-.128-.166-.85-.805-.85-.805Z" transform="translate(-238.008 -400.731)"/>
    <path class="cls-1" d="M247.8,410.024a2.87,2.87,0,0,0,.169.426l.017.045a8.722,8.722,0,0,0-1.758-.586l-4.086-3.127s.63-.24,2.407.488c0,0-1.821-.657-2.212-.4l4.566,3.02a7.057,7.057,0,0,0,.986.506A1.511,1.511,0,0,1,247.8,410.024Z" transform="translate(-238.008 -400.731)"/>
    <path class="cls-1" d="M240.287,410.389l5.179,1.519-.107-.187.24.249a4.552,4.552,0,0,0-1.128-.009S240.678,410.478,240.287,410.389Z" transform="translate(-238.008 -400.731)"/>
    <path class="cls-1" d="M249.281,410.857a1.053,1.053,0,0,1,.553-.027,1.217,1.217,0,0,1,.66,1.239l-.273.194A1.235,1.235,0,0,0,249.281,410.857Z" transform="translate(-238.008 -400.731)"/>
    <path class="cls-1" d="M250.5,412.094s.837.253.81.955a.864.864,0,0,1-1.048.866s.791-.026.795-.728a.837.837,0,0,0-.817-.9Z" transform="translate(-238.008 -400.731)"/>
    <path class="cls-1" d="M249.134,407.773s4.05,3.038,3.1,5.49a1.3,1.3,0,0,1-1.665.719,1.348,1.348,0,0,0,1.319-1.359S251.866,410.851,249.134,407.773Z" transform="translate(-238.008 -400.731)"/>
    <path class="cls-1" d="M249.463,413.569l.906-.08s-.169.511-.533.591A4.4,4.4,0,0,0,249.463,413.569Z" transform="translate(-238.008 -400.731)"/>
    <path class="cls-1" d="M249.432,411.477l-.728,2.145a2.424,2.424,0,0,0,.706-.057A2.292,2.292,0,0,0,249.432,411.477Z" transform="translate(-238.008 -400.731)"/>
    <path class="cls-1" d="M250.027,415.67l-1.315-2.016a2.828,2.828,0,0,0,.711-.067A2.4,2.4,0,0,1,250.027,415.67Z" transform="translate(-238.008 -400.731)"/>
    <path class="cls-1" d="M248.233,412.565a3.286,3.286,0,0,0-.142.64s.355.3.449.359a4.674,4.674,0,0,1-.711-.595l-.484-.475A1.353,1.353,0,0,1,248.233,412.565Z" transform="translate(-238.008 -400.731)"/>
    <path class="cls-1" d="M248.672,413.662l-.36,1.092a2.2,2.2,0,0,1-1.785.018Z" transform="translate(-238.008 -400.731)"/>
    <path class="cls-1" d="M248.192,419.015s-.6-.756-.416-1.219c0,0-.52-.4-.53-.8,0,0,.26.513.6.606a5.763,5.763,0,0,0,1.455.823s-2.689-1.031-1.97-3.421c0,0-.644-.018-.848-.222a1.768,1.768,0,0,1,1.27-1.5,1.419,1.419,0,0,0-.426.089.888.888,0,0,1-.013-.9,1.2,1.2,0,0,1,.924.054s.577-1.057,1.2-1.093a1.608,1.608,0,0,1,.244,1.51s.657.267.72.529a1.047,1.047,0,0,1-.191.4s.8.009.812-.635a.831.831,0,0,0-.83-.932s.151-1.248-.964-1.439a1.335,1.335,0,0,0-1.364.932,1.261,1.261,0,0,0-1.358.378,1.278,1.278,0,0,0,.133,1.2,1.751,1.751,0,0,0-.8,1.49,2.156,2.156,0,0,0,.546,1.119,2.294,2.294,0,0,0,1.159,2.026S247.849,418.859,248.192,419.015Z" transform="translate(-238.008 -400.731)"/>
    <path class="cls-1" d="M249.8,417.786a11.152,11.152,0,0,0,2.885.766h0l.12-.686a12.464,12.464,0,0,1-2.212-.447h0c-2.119-.652-1.611-1.961-1.611-1.961h0a2.652,2.652,0,0,0,.918.22h0a2.081,2.081,0,0,1-1.587-.883c-.525,1.839.554,2.485,1.487,2.991Z" transform="translate(-238.008 -400.731)"/>
    <path class="cls-1" d="M256.449,405.776a2.247,2.247,0,0,0,.422.142c.235.053.44.111.435.142a.467.467,0,0,1-.5.3C256.462,406.3,256.422,406.056,256.449,405.776Z" transform="translate(-238.008 -400.731)"/>
    <path class="cls-1" d="M270.773,415.641l-3.121-.242a2.846,2.846,0,0,1,.073.339l3.048-.1Zm-3.8,1.777c0,.024-.009.063-.018.112l2.321,1.442-2.111-1.673a.966.966,0,0,1-.192.119Zm3.262-5.155-2.112.985a1.6,1.6,0,0,1,.08.271Z" transform="translate(-238.008 -400.731)"/>
    <path class="cls-1" d="M270.879,416.287l-.008-.007a2.933,2.933,0,0,1-.4.257c.241.028,1.686.5,1.686.5,3.176.387,2.994-1.362,2.994-1.362C274.748,416.847,270.879,416.287,270.879,416.287Z" transform="translate(-238.008 -400.731)"/>
    <path class="cls-1" d="M270.5,434.193a1.112,1.112,0,0,1-.122.382c.217.107.293.356.423.55.431-.28.382-1.374-.154-1.5A3.743,3.743,0,0,0,270.5,434.193Z" transform="translate(-238.008 -400.731)"/>
    <path class="cls-1" d="M269.409,436.7a2.054,2.054,0,0,1-.115.883c.611.044.9-.414,1-.908,0,0-.025-.081-.224-.014A2.5,2.5,0,0,1,269.409,436.7Z" transform="translate(-238.008 -400.731)"/>
    <path class="cls-1" d="M267.58,438.17a3.422,3.422,0,0,1-.524.448,1.036,1.036,0,0,0,1.317-.307c.026-.05.013-.123.038-.166,0,0,.022-.089-.234,0A.8.8,0,0,1,267.58,438.17Z" transform="translate(-238.008 -400.731)"/>
    <path class="cls-1" d="M263.843,436.5a2.09,2.09,0,0,1-.4,0,.981.981,0,0,0,1.539.353c-.3-.047-.427-.264-.511-.525C264.436,436.275,264.025,436.472,263.843,436.5Z" transform="translate(-238.008 -400.731)"/>
    <path class="cls-1" d="M249.717,436.877c-.243,0-.306-.133-.306-.133a.987.987,0,0,1-.1.455c-.057.107-.181.133-.23.23.443.246,1.281.1,1.215-.525A2.3,2.3,0,0,0,249.717,436.877Z" transform="translate(-238.008 -400.731)"/>
    <path class="cls-1" d="M245.592,438.605a1,1,0,0,0,1.56.333c-.166-.073-.568-.385-.594-.631A1.208,1.208,0,0,1,245.592,438.605Z" transform="translate(-238.008 -400.731)"/>
    <path class="cls-1" d="M243.61,437.172a1.028,1.028,0,0,0,.576.741,1.549,1.549,0,0,0,.844.231c-.049-.13-.184-.233-.243-.409s-.026-.4-.09-.6A1.8,1.8,0,0,1,243.61,437.172Z" transform="translate(-238.008 -400.731)"/>
    <path class="cls-1" d="M243.06,434.448c-.366.368-.294,1.393.269,1.484-.009-.469.3-.625.55-.832A1.156,1.156,0,0,1,243.06,434.448Z" transform="translate(-238.008 -400.731)"/>
    <path class="cls-1" d="M257.142,407.813c.193.3-.193.246-.193.246-1.419-.719-1.687.167-1.687.167-.036.076-.04.224.026.269a.185.185,0,0,0,.182-.036c.519-.413,1.3.007,1.3.007,1.286.619,1.166-.327,1.166-.327-.213-1.352-2.285-1.385-2.285-1.385a1.436,1.436,0,0,0-1.462-1.111c-.647.029-1.152.265-1.2.882a2.324,2.324,0,0,0,.2.985,1.247,1.247,0,0,1,.972-.383.739.739,0,0,1,.6.4C256.582,406.98,257.142,407.813,257.142,407.813Z" transform="translate(-238.008 -400.731)"/>
    <path class="cls-1" d="M257.131,408.612a2.891,2.891,0,0,1-.362-.146,1.494,1.494,0,0,0-1.1-.123,1.415,1.415,0,0,1,1.267.8,1.58,1.58,0,0,1-.107,1.421c.165-.213.374-.519.374-.519a1.208,1.208,0,0,0-.009-1.413.373.373,0,0,1-.065-.023Zm.8-.331a2.274,2.274,0,0,1,.015,2.035.2.2,0,0,1-.194-.093.087.087,0,0,0-.13.043,3.178,3.178,0,0,0,.084-1.416.172.172,0,0,0,.093-.193.791.791,0,0,1-.41.107,1.1,1.1,0,0,0-.113-.11l.036,0C257.8,408.748,257.912,408.464,257.933,408.281Z" transform="translate(-238.008 -400.731)"/>
    <path class="cls-1" d="M257.386,407.329c-.031.044.209.422.266.564s.2.817-.737.391-1.337-.156-1.452.04.007.135.007.135c.519-.413,1.3.007,1.3.007,1.286.62,1.166-.326,1.166-.326a1.3,1.3,0,0,0-.508-.837s-.01-.018-.041.026Zm-3.981.005c-.095.051-.016-.076-.016-.076.6-1.075,1.976-.093,1.976-.093,1.2-.125,1.679.377,1.808.568s.02.245.02.245a.226.226,0,0,0-.051-.165s-.561-.833-2.379-.29a.741.741,0,0,0-.6-.4A1.335,1.335,0,0,0,253.405,407.334Z" transform="translate(-238.008 -400.731)"/>
    <path class="cls-1" d="M256.711,404.819c2.007.4,2.158.145,2.158.145.171-.668.316-1.327.537-1.931a12.945,12.945,0,0,1,.806-1.65c-.414.22-.949.321-1.241.665-.256-.322-.753-.08-.857.192.029-.336-.121-.493-.422-.5a.341.341,0,0,0-.486-.473c-.037-.262-.22-.377-.358-.537a.876.876,0,0,0-.268.626.3.3,0,0,0-.474.346c-.355.009-.435.355-.447.665a.5.5,0,0,0-.857-.192c-.158-.461-.846-.391-1.152-.7a15.615,15.615,0,0,1,1.254,3.249A7.373,7.373,0,0,1,256.711,404.819Z" transform="translate(-238.008 -400.731)"/>
    <path class="cls-1" d="M254.5,405.986s.07.049.082.078a.222.222,0,0,1-.027.205.528.528,0,0,0-.022.131s-.021.137-.227-.021c0,0,.024.113.278.119a.873.873,0,0,1,.709.268s.09.1.106.1.051-.017.049-.029A1.123,1.123,0,0,0,254.5,405.986Z" transform="translate(-238.008 -400.731)"/>
    <path class="cls-1" d="M254.854,402.263s.1.073.046.525.088.638.176.656a.783.783,0,0,0,.34-.018.5.5,0,0,1,.06-.265,1.075,1.075,0,0,0,.207-.585,1,1,0,0,1-.195.634s-.151.292.213.325.422-.118.434-.17a.373.373,0,0,0-.146-.31.813.813,0,0,1-.194-.306,2.752,2.752,0,0,0,.285.373.258.258,0,0,1,.013.377s.012.081.148.033a.882.882,0,0,0,.507-.6.366.366,0,0,0-.091-.225c-.091-.1-.34-.71.237-.853,0,0,.525-.088.434.677a2.8,2.8,0,0,0-.076.434.53.53,0,0,0,.437.616.81.81,0,0,1,.022-.409c.072-.134.264-.422.264-.422a.6.6,0,0,0-.058-.641.566.566,0,0,1,.124.556c-.121.291-.588.737-.161.926,0,0,.362.091.438-.207a.692.692,0,0,0-.061-.389.742.742,0,0,1-.043-.713.712.712,0,0,0,.013.574c.142.307.176.555.087.68,0,0,.3.076.419-.079a1.263,1.263,0,0,0,.207-.622,1.856,1.856,0,0,1,.267-.85,1.763,1.763,0,0,0-.216.762c-.036.482-.088.816-.288.853a1.107,1.107,0,0,1-.443.009,1.354,1.354,0,0,1-.659,0c-.288-.1-.473-.34-.47-.877a.232.232,0,0,1-.128.006.3.3,0,0,0,.2-.237c.045-.2.018-.595-.3-.607a.377.377,0,0,0-.352.44.693.693,0,0,0,.146.37.47.47,0,0,1-.076.571.69.69,0,0,1-.556.316c-.321.027-.552,0-.655-.116,0,0-.453.122-.541-.2a1.089,1.089,0,0,1-.009-.364,1.5,1.5,0,0,0-.012-.635S254.839,402.266,254.854,402.263Z" transform="translate(-238.008 -400.731)"/>
    <path class="cls-1" d="M256.884,404.8s.5.06.711.1a4.343,4.343,0,0,0,.57.066c.145,0,.554-.024.554-.024v.029a3,3,0,0,1-.889,0l-.946-.154Z" transform="translate(-238.008 -400.731)"/>
    <path class="cls-1" d="M255.241,404.455v.016s.62.028.784.039.617.054.7.061.828.079,1.041.089a6.039,6.039,0,0,0,.864-.021c0-.026.006-.024-.1-.024s-.546.005-.788,0-.54-.029-.642-.04-1.124-.1-1.157-.1Z" transform="translate(-238.008 -400.731)"/>
    <path class="cls-1" d="M256.134,403.831a3.477,3.477,0,0,0-.484-.029c-.357.009-.453.018-.457.209s.113.195.113.195l.169,0s.533.005.652,0,.136-.12.138-.211a.163.163,0,0,0-.131-.164Zm-.224.355H255.3c-.082-.029-.091-.144-.084-.24s.155-.108.2-.113.471-.009.537-.007.1.069.1.209A.152.152,0,0,1,255.91,404.186Z" transform="translate(-238.008 -400.731)"/>
    <path class="cls-1" d="M258.626,403.955a5.182,5.182,0,0,0-.564-.067c-.276-.009-.327.118-.3.287s.519.2.732.209.3-.094.316-.183a.242.242,0,0,0-.189-.246Zm-.224.326a2.324,2.324,0,0,1-.571-.064c-.029-.018-.1-.078-.031-.22,0,0,.053-.106.28-.086a5.7,5.7,0,0,1,.564.086A.226.226,0,0,1,258.4,404.282Z" transform="translate(-238.008 -400.731)"/>
    <path class="cls-1" d="M257.546,404.012c0-.119-.145-.161-.174-.166a5.338,5.338,0,0,0-.572-.041.983.983,0,0,0-.166.01.163.163,0,0,0-.152.171.265.265,0,0,0,.07.178,2.281,2.281,0,0,0,.779.087h0c.188,0,.212-.222.212-.222h0v-.016Zm-.909-.181a1.019,1.019,0,0,1,.16-.01h0a5.274,5.274,0,0,1,.534.036.214.214,0,0,1-.144.313,3.267,3.267,0,0,1-.631-.026h0a.249.249,0,0,1-.059-.159A.147.147,0,0,1,256.637,403.83Z" transform="translate(-238.008 -400.731)"/>
    <path class="cls-1" d="M258.3,438.589a2.221,2.221,0,0,1-.232-1.179c.006-.072-.079-.132-.137-.164a3.7,3.7,0,0,1-.208.612,4.9,4.9,0,0,1-.694,3.842c-.835-.773-.708-3.535-.708-3.535l-.02-.018c-.169,3.056.737,3.677.737,3.677l.013.554a5.284,5.284,0,0,0,1-2.66,4.187,4.187,0,0,0-.154-1.676l.209.311Z" transform="translate(-238.008 -400.731)"/>
    <path class="cls-1" d="M288.9,411.6v-.26c-.762-.072-.8-.125-.815-1.057l-.09-3.252c-.027-.887.027-.914.806-.994v-.26h-1.578l-2.016,4.382-1.979-4.382h-1.543v.26c.806.081.86.134.78,1.272l-.135,1.846c-.063.941-.125,1.344-.17,1.649-.063.367-.242.475-.753.529v.269h2.1v-.269c-.6-.054-.806-.126-.824-.546-.009-.341-.009-.744.027-1.479l.125-2.509h.027l1.971,4.74h.186l2.15-4.865h.036l.027,3.62c.009.923-.027.977-.744,1.048v.26Zm3.03,0v-.26c-.717-.054-.8-.108-.8-.869v-3.557c0-.761.081-.815.8-.878v-.26H289.5v.26c.717.063.8.117.8.878v3.557c0,.762-.081.815-.8.869v.26Zm6.791-5.824h-2.132v.26c.636.036.842.161.887.556a13.527,13.527,0,0,1,.063,1.487v2.088h-.027l-3.682-4.391h-1.389v.26a.948.948,0,0,1,.788.331c.17.215.188.278.188.914v1.953a14.7,14.7,0,0,1-.063,1.523c-.045.43-.269.547-.779.582v.26h2.132v-.26c-.618-.036-.815-.161-.86-.6a14.992,14.992,0,0,1-.054-1.505v-2.2h.018l3.8,4.65h.3v-3.6c0-.824.027-1.228.054-1.506.045-.394.251-.51.753-.537v-.26Zm2.975,5.824v-.26c-.717-.054-.8-.108-.8-.869v-3.557c0-.761.08-.815.8-.878v-.26h-2.428v.26c.717.063.8.117.8.878v3.557c0,.762-.081.815-.8.869v.26Zm4.059-4.5c-.072-.564-.126-.923-.161-1.245a3.681,3.681,0,0,0-1.147-.215,1.7,1.7,0,0,0-1.882,1.622c0,.986.86,1.443,1.5,1.774.672.358,1.147.681,1.147,1.317a.974.974,0,0,1-1.049,1.048c-.914,0-1.335-.923-1.478-1.479l-.278.072a11.047,11.047,0,0,0,.242,1.416,3.188,3.188,0,0,0,.466.188,2.87,2.87,0,0,0,.878.134,1.825,1.825,0,0,0,2.025-1.72c0-.986-.806-1.416-1.55-1.792-.726-.367-1.138-.672-1.138-1.3a.927.927,0,0,1,.977-.968c.762,0,1.022.636,1.183,1.2l.269-.054Zm5.833.063c-.045-.529-.089-1.21-.089-1.613h-.2a.468.468,0,0,1-.457.224h-3.557c-.251,0-.367-.018-.493-.224H306.6c-.018.484-.072,1.084-.107,1.64h.278a2.583,2.583,0,0,1,.3-.815c.116-.2.3-.278,1.039-.278h.51v4.381c0,.717-.071.806-.878.86v.26h2.634v-.26c-.842-.054-.914-.143-.914-.86V406.1h.591c.654,0,.807.072.959.269a2.131,2.131,0,0,1,.3.824l.269-.027Zm4.883,2.966a2.974,2.974,0,0,1-.457.851c-.2.224-.457.3-1.1.3a2,2,0,0,1-.914-.107c-.161-.108-.215-.314-.215-.735v-1.658h.806c.78,0,.851.054.968.69h.269v-1.729h-.269c-.108.6-.17.672-.968.672h-.806v-2.016c0-.269.027-.3.314-.3h.636c.618,0,.86.063.994.26a2.16,2.16,0,0,1,.3.761l.278-.045c-.036-.475-.081-1.084-.081-1.3h-4.032v.26c.681.063.761.1.761.9v3.539c0,.735-.081.806-.887.869v.26h4.372c.072-.278.26-1.111.3-1.425l-.269-.045Zm6.146,1.3a1.3,1.3,0,0,1-.627-.412,7.608,7.608,0,0,1-.717-.941c-.269-.4-.636-1-.789-1.29a1.634,1.634,0,0,0,1.138-1.523,1.317,1.317,0,0,0-.6-1.174,2.5,2.5,0,0,0-1.46-.314h-2.276v.26c.69.063.771.107.771.86v3.575c0,.753-.081.815-.806.869v.26h2.419v-.26c-.708-.054-.789-.116-.789-.869v-1.407h.26a.711.711,0,0,1,.744.367c.26.439.573.986.869,1.406a1.656,1.656,0,0,0,1.523.824c.107.009.206.009.3.009l.036-.242Zm-3.736-2.67v-2.2c0-.233.027-.331.09-.385a.842.842,0,0,1,.475-.089,1.191,1.191,0,0,1,1.263,1.326,1.314,1.314,0,0,1-.475,1.1,1.459,1.459,0,0,1-.959.251Zm7.383-1.658c-.072-.564-.126-.923-.161-1.245a3.681,3.681,0,0,0-1.147-.215,1.7,1.7,0,0,0-1.882,1.622c0,.986.86,1.443,1.5,1.774.672.358,1.147.681,1.147,1.317a.974.974,0,0,1-1.048,1.048c-.914,0-1.335-.923-1.478-1.479l-.278.072a11.083,11.083,0,0,0,.242,1.416,3.188,3.188,0,0,0,.466.188,2.87,2.87,0,0,0,.878.134,1.825,1.825,0,0,0,2.025-1.72c0-.986-.806-1.416-1.55-1.792-.726-.367-1.138-.672-1.138-1.3a.927.927,0,0,1,.976-.968c.762,0,1.022.636,1.183,1.2l.269-.054Zm5.833.063c-.045-.529-.09-1.21-.09-1.613h-.2a.468.468,0,0,1-.457.224h-3.557c-.251,0-.367-.018-.493-.224h-.188c-.018.484-.072,1.084-.107,1.64h.278a2.586,2.586,0,0,1,.3-.815c.116-.2.3-.278,1.039-.278h.51v4.381c0,.717-.071.806-.878.86v.26h2.634v-.26c-.842-.054-.914-.143-.914-.86V406.1h.591c.654,0,.806.072.959.269a2.131,2.131,0,0,1,.3.824l.269-.027Zm9.058-1.389h-2v.26c.708.081.744.188.618.726-.134.618-.609,2.3-.986,3.485h-.018c-.529-1.505-1.048-2.939-1.55-4.39h-.3c-.448,1.443-.95,2.9-1.416,4.381h-.018c-.377-1.227-.717-2.4-1.066-3.575-.125-.457-.116-.546.547-.627v-.26h-2.258v.26c.538.072.672.161.9.887.493,1.6.994,3.154,1.46,4.767h.323c.448-1.416.941-2.831,1.433-4.372h.018c.466,1.317,1.057,2.957,1.55,4.372h.314c.744-2.5,1.272-4.166,1.479-4.749.26-.735.358-.815.967-.9v-.26Zm3.217-.134a3,3,0,0,0-3.038,3.1,2.909,2.909,0,0,0,2.939,2.993,2.946,2.946,0,0,0,3.011-3.118,2.887,2.887,0,0,0-2.912-2.975Zm-.179.332c1.156,0,2.088,1.012,2.088,2.885,0,1.711-.851,2.545-1.819,2.545-1.246,0-2.124-1.245-2.124-2.894S343.214,405.972,344.191,405.972Z" transform="translate(-238.008 -400.731)"/>
    <g>
      <path class="cls-1" d="M283.953,422.351v-.26c-.717-.054-.8-.108-.8-.869v-3.557c0-.761.081-.815.8-.878v-.26h-2.428v.26c.717.063.8.116.8.878v3.557c0,.762-.08.815-.8.869v.26Zm6.792-5.824h-2.132v.26c.636.036.842.161.887.556a13.564,13.564,0,0,1,.063,1.487v2.088h-.027l-3.682-4.39h-1.389v.26a.948.948,0,0,1,.788.331c.17.215.188.278.188.914v1.953a14.694,14.694,0,0,1-.063,1.523c-.045.43-.269.547-.779.582v.26h2.132v-.26c-.618-.036-.815-.161-.86-.6a14.991,14.991,0,0,1-.054-1.505v-2.2h.018l3.8,4.65h.3v-3.6c0-.824.027-1.228.054-1.505.045-.394.251-.51.753-.537v-.26Zm4.668,1.326c-.036-.439-.081-1.03-.09-1.326h-4v.269c.69.054.761.1.761.878v3.521c0,.788-.081.842-.78.9v.26h2.5v-.26c-.806-.063-.887-.108-.887-.9v-1.586h.9c.806,0,.86.1.968.708h.269v-1.729h-.269c-.108.573-.161.654-.968.654h-.9v-2.1c0-.269.036-.3.3-.3h.645c.645,0,.851.072,1,.314a2.021,2.021,0,0,1,.269.726l.269-.036Zm6.012,4.328a1.3,1.3,0,0,1-.627-.412,7.608,7.608,0,0,1-.717-.941c-.269-.4-.636-1-.789-1.29a1.634,1.634,0,0,0,1.138-1.523,1.317,1.317,0,0,0-.6-1.174,2.5,2.5,0,0,0-1.46-.314h-2.276v.26c.69.063.77.107.77.86v3.575c0,.753-.08.815-.806.869v.26h2.419v-.26c-.708-.054-.789-.116-.789-.869v-1.407h.26a.711.711,0,0,1,.744.367c.26.439.573.986.869,1.407a1.656,1.656,0,0,0,1.523.824c.107.009.206.009.3.009l.036-.242Zm-3.736-2.67v-2.2c0-.233.027-.331.09-.385a.84.84,0,0,1,.475-.09,1.191,1.191,0,0,1,1.263,1.326,1.314,1.314,0,0,1-.475,1.1,1.459,1.459,0,0,1-.959.251Zm9.766,2.84v-.26c-.582-.063-.708-.152-.986-.923-.574-1.55-1.174-3.235-1.729-4.776l-.314.09-1.846,4.677c-.314.789-.43.851-1.012.932v.26h1.962v-.26c-.672-.072-.735-.161-.556-.708.117-.367.242-.735.376-1.12h1.882c.188.52.358.976.466,1.317.116.358.045.439-.511.51v.26Zm-2.356-2.482h-1.6c.269-.726.537-1.478.815-2.222h.027l.762,2.222Zm6.191-2.016c-.072-.564-.126-.923-.161-1.245a3.681,3.681,0,0,0-1.147-.215,1.7,1.7,0,0,0-1.882,1.622c0,.986.86,1.442,1.5,1.774.672.358,1.147.681,1.147,1.317a.974.974,0,0,1-1.048,1.048c-.914,0-1.335-.923-1.478-1.478l-.278.072a11.083,11.083,0,0,0,.242,1.416,3.2,3.2,0,0,0,.466.188,2.87,2.87,0,0,0,.878.134,1.825,1.825,0,0,0,2.025-1.72c0-.986-.806-1.416-1.55-1.792-.726-.367-1.138-.672-1.138-1.3a.927.927,0,0,1,.976-.968c.762,0,1.022.636,1.183,1.2l.269-.054Zm5.833.063c-.045-.529-.09-1.21-.09-1.613h-.2a.469.469,0,0,1-.457.224h-3.557c-.251,0-.367-.018-.493-.224h-.188c-.018.484-.072,1.084-.107,1.64h.278a2.585,2.585,0,0,1,.3-.815c.116-.2.3-.278,1.039-.278h.51v4.382c0,.717-.071.806-.878.86v.26h2.634v-.26c-.842-.054-.914-.143-.914-.86v-4.382h.591c.654,0,.806.072.959.269a2.133,2.133,0,0,1,.3.824l.269-.027Zm5.922,4.265a1.3,1.3,0,0,1-.627-.412,7.608,7.608,0,0,1-.717-.941c-.269-.4-.636-1-.789-1.29a1.634,1.634,0,0,0,1.138-1.523,1.317,1.317,0,0,0-.6-1.174,2.5,2.5,0,0,0-1.46-.314h-2.276v.26c.69.063.771.107.771.86v3.575c0,.753-.081.815-.806.869v.26H320.1v-.26c-.708-.054-.789-.116-.789-.869v-1.407h.26a.711.711,0,0,1,.744.367c.26.439.573.986.869,1.407a1.656,1.656,0,0,0,1.523.824c.107.009.206.009.3.009l.036-.242Zm-3.736-2.67v-2.2c0-.233.027-.331.09-.385a.84.84,0,0,1,.475-.09,1.191,1.191,0,0,1,1.263,1.326,1.314,1.314,0,0,1-.475,1.1,1.459,1.459,0,0,1-.959.251Zm9.758-2.984v.26c-.529.045-.735.17-.779.529a12.973,12.973,0,0,0-.054,1.416v.789a3.235,3.235,0,0,1-.672,2.339,2.215,2.215,0,0,1-1.613.627,2.349,2.349,0,0,1-1.461-.439,2.467,2.467,0,0,1-.779-2.123v-2.213c0-.816-.081-.851-.78-.923v-.26h2.383v.26c-.69.054-.761.107-.761.923v2.016c0,1.433.555,2.249,1.64,2.249,1.245,0,1.658-1.03,1.658-2.518v-.726a10.989,10.989,0,0,0-.063-1.433c-.054-.341-.242-.466-.869-.511v-.26Zm6.191,5.824v-.26a1.5,1.5,0,0,1-1.075-.645c-.475-.546-1.407-1.622-2.061-2.464.564-.582,1.156-1.183,1.532-1.523a1.965,1.965,0,0,1,1.452-.672v-.26h-2.177v.26l.188.027c.412.054.421.152.161.457a17.588,17.588,0,0,1-1.451,1.568,1.633,1.633,0,0,1-.636.421V417.7c0-.8.081-.86.762-.914v-.26h-2.374v.26c.708.063.788.107.788.914v3.485c0,.779-.08.851-.753.9v.26h2.392v-.26c-.735-.054-.816-.125-.816-.9V419.5c.143-.027.269.009.475.26.77.941,1.5,1.855,2.141,2.589Zm5.385-4.435c-.045-.529-.09-1.21-.09-1.613h-.2a.468.468,0,0,1-.457.224h-3.557c-.251,0-.367-.018-.493-.224h-.188c-.018.484-.072,1.084-.107,1.64h.278a2.585,2.585,0,0,1,.3-.815c.117-.2.3-.278,1.04-.278h.51v4.382c0,.717-.071.806-.878.86v.26h2.634v-.26c-.842-.054-.914-.143-.914-.86v-4.382h.591c.654,0,.806.072.959.269a2.133,2.133,0,0,1,.3.824l.269-.027Zm6.648-1.389h-2.151v.26c.627.045.816.17.869.511a11.007,11.007,0,0,1,.063,1.433v.726c0,1.487-.412,2.518-1.658,2.518-1.084,0-1.64-.815-1.64-2.249v-2.016c0-.816.072-.869.761-.923v-.26h-2.383v.26c.7.072.78.107.78.923v2.213a2.467,2.467,0,0,0,.779,2.123,2.349,2.349,0,0,0,1.461.439,2.216,2.216,0,0,0,1.613-.627,3.235,3.235,0,0,0,.672-2.339v-.789a12.973,12.973,0,0,1,.054-1.416c.045-.359.251-.484.779-.529v-.26Zm5.86,5.654a1.3,1.3,0,0,1-.627-.412,7.609,7.609,0,0,1-.717-.941c-.269-.4-.636-1-.789-1.29a1.634,1.634,0,0,0,1.138-1.523,1.317,1.317,0,0,0-.6-1.174,2.494,2.494,0,0,0-1.46-.314H347.82v.26c.69.063.771.107.771.86v3.575c0,.753-.081.815-.806.869v.26H350.2v-.26c-.708-.054-.789-.116-.789-.869v-1.407h.26a.711.711,0,0,1,.744.367c.26.439.573.986.869,1.407a1.656,1.656,0,0,0,1.523.824c.107.009.206.009.3.009l.036-.242Zm-3.736-2.67v-2.2c0-.233.027-.331.09-.385a.84.84,0,0,1,.475-.09,1.191,1.191,0,0,1,1.263,1.326,1.314,1.314,0,0,1-.475,1.1,1.459,1.459,0,0,1-.959.251Zm8.853-2.984v.26c-.609.072-.726.179-1.066.717-.394.636-.69,1.129-1.12,1.926a1.051,1.051,0,0,0-.144.573v1.21c0,.761.072.824.887.878v.26h-2.6v-.26c.789-.054.869-.116.869-.878v-1.156a.9.9,0,0,0-.179-.529c-.3-.538-.627-1.129-1.12-1.98-.359-.609-.466-.708-.995-.762v-.26h2.222v.26c-.636.09-.609.188-.448.493.367.7.788,1.425,1.173,2.1.314-.582.8-1.452,1.04-2,.2-.43.17-.511-.52-.591v-.26Z" transform="translate(-238.008 -400.731)"/>
      <path class="cls-1" d="M285.3,437.978a2.409,2.409,0,0,1-.422.812c-.19.215-.472.257-.927.257a1.848,1.848,0,0,1-.8-.108c-.149-.083-.19-.249-.19-.7v-3.271c0-.7.075-.745.729-.795v-.232H281.53v.232c.671.05.729.091.729.795v3.313c0,.7-.066.762-.762.812v.232h3.752c.075-.257.248-1.044.3-1.3l-.248-.05Zm2.865,1.35V439.1c-.679-.05-.745-.091-.745-.8V434.98c0-.7.066-.754.745-.8v-.232h-2.195v.232c.679.05.746.1.746.8v3.313c0,.7-.066.754-.746.8v.232Zm5.3-1.458c-.414.828-.861,1.284-1.706,1.284-1.259,0-2.17-1.06-2.17-2.609a2.2,2.2,0,0,1,2.12-2.426,1.441,1.441,0,0,1,1.607,1.234l.248-.058c-.05-.447-.1-.778-.165-1.251a6.543,6.543,0,0,0-1.466-.224,2.913,2.913,0,0,0-3.188,2.89,2.719,2.719,0,0,0,2.965,2.741,6.977,6.977,0,0,0,1.524-.224,8.9,8.9,0,0,0,.472-1.267l-.24-.091Zm4.7.116a2.4,2.4,0,0,1-.406.778c-.182.216-.414.282-1.043.282a1.87,1.87,0,0,1-.862-.108c-.149-.108-.2-.281-.2-.671V436.7h.787c.72,0,.778.05.886.646h.24v-1.59h-.24c-.108.555-.149.621-.895.621h-.778V434.5c0-.248.016-.265.273-.265h.63c.6,0,.82.058.936.232a2.142,2.142,0,0,1,.265.712l.24-.041c-.025-.422-.066-.986-.066-1.192h-3.693v.232c.646.058.712.083.712.828v3.3c0,.671-.066.737-.82.8v.232h3.992c.075-.257.24-1.035.29-1.309l-.249-.033Zm6.385-4.041H302.59v.232c.571.033.77.141.811.513a12.231,12.231,0,0,1,.058,1.375V438.1h-.025l-3.453-4.157h-1.226v.232a.9.9,0,0,1,.737.307c.149.2.166.232.166.836v1.822c0,.762-.025,1.159-.05,1.416-.042.406-.249.513-.729.538v.232h1.963V439.1c-.563-.033-.754-.133-.8-.555a13.878,13.878,0,0,1-.05-1.4v-2.079h.016l3.528,4.339h.257v-3.337a11.529,11.529,0,0,1,.05-1.391c.033-.365.232-.472.7-.5v-.232Zm5.226,3.925c-.414.828-.861,1.284-1.706,1.284-1.259,0-2.17-1.06-2.17-2.609a2.2,2.2,0,0,1,2.12-2.426,1.441,1.441,0,0,1,1.607,1.234l.248-.058c-.05-.447-.1-.778-.166-1.251a6.544,6.544,0,0,0-1.466-.224,2.913,2.913,0,0,0-3.188,2.89,2.719,2.719,0,0,0,2.965,2.741,6.977,6.977,0,0,0,1.524-.224,8.9,8.9,0,0,0,.472-1.267l-.24-.091Zm2.932-3.925h-2.145v.232c.671.05.737.108.737.8V437.8a8.868,8.868,0,0,1-.091,1.574,1.426,1.426,0,0,1-.795,1.085l.107.232a2.232,2.232,0,0,0,.77-.48,2.537,2.537,0,0,0,.712-2.137v-3.1c0-.7.066-.754.7-.8v-.232Zm5.5,5.383V439.1c-.538-.05-.646-.124-.911-.837-.53-1.441-1.085-3.014-1.6-4.439l-.257.075-1.714,4.348c-.29.729-.406.778-.928.853v.232h1.8V439.1c-.621-.058-.7-.141-.513-.662.108-.348.232-.7.364-1.068h1.764c.182.505.348.952.456,1.275s.033.389-.489.455v.232Zm-2.112-2.319h-1.524c.248-.679.513-1.4.778-2.112h.016l.729,2.112Zm9.044-1.806c-.041-.48-.083-1.085-.083-1.466h-.174a.44.44,0,0,1-.422.207h-3.271c-.232,0-.34-.017-.455-.207h-.166c-.017.455-.058.994-.1,1.491h.24a2.62,2.62,0,0,1,.265-.737c.108-.19.273-.257.961-.257h.514v4.074c0,.654-.066.737-.82.787v.232H324V439.1c-.787-.05-.853-.133-.853-.787v-4.074h.588c.621,0,.762.058.895.257a2.007,2.007,0,0,1,.265.737l.24-.025Zm6.137-1.259H329.3v.232c.58.041.754.141.8.464a10.553,10.553,0,0,1,.058,1.366v.63c0,1.366-.373,2.36-1.565,2.36-1.027,0-1.557-.762-1.557-2.1v-1.888c0-.745.066-.795.721-.836v-.232h-2.145v.232c.654.058.721.091.721.836v2.07a2.287,2.287,0,0,0,.729,1.971,2.161,2.161,0,0,0,1.325.4,2.034,2.034,0,0,0,1.483-.571,2.994,2.994,0,0,0,.63-2.186v-.687a13.15,13.15,0,0,1,.041-1.342c.041-.339.232-.455.729-.489v-.232Zm4.033.124c-1.242,0-1.7,1.474-1.7,2.683,0,1.308.447,2.675,1.7,2.675s1.681-1.474,1.681-2.683c0-1.276-.439-2.675-1.681-2.675Zm-.008.273c.745,0,.952,1.226.952,2.4,0,1.159-.2,2.4-.944,2.4-.721,0-.961-1.25-.961-2.41s.2-2.393.952-2.393Zm3.983-.273c-1.242,0-1.7,1.474-1.7,2.683,0,1.308.447,2.675,1.7,2.675s1.681-1.474,1.681-2.683c0-1.276-.439-2.675-1.681-2.675Zm-.008.273c.745,0,.952,1.226.952,2.4,0,1.159-.2,2.4-.944,2.4-.721,0-.961-1.25-.961-2.41s.2-2.393.952-2.393Zm5.176,4.986V439.1c-.754-.058-.8-.124-.8-.721v-4.315a7.263,7.263,0,0,1-1.474.431v.191l.4.016c.364.017.4.058.4.489v3.188c0,.6-.041.663-.795.721v.224Zm2.8-5.259a1.75,1.75,0,0,0-1.689,1.764,1.444,1.444,0,0,0,1.482,1.515,1,1,0,0,0,.5-.132l.555-.3a2.84,2.84,0,0,1-2.36,2.286l.041.248a3.71,3.71,0,0,0,1.159-.265,3.146,3.146,0,0,0,1.954-3.047c0-1.126-.6-2.07-1.64-2.07Zm-.108.273c.8,0,1.019,1.027,1.019,1.756a4.193,4.193,0,0,1-.033.547,1.287,1.287,0,0,1-.745.232,1.188,1.188,0,0,1-1.11-1.333c0-.488.232-1.2.869-1.2Zm3.214,2.145a2.672,2.672,0,0,1,1.524-1.913,3.924,3.924,0,0,1,.9-.29l-.058-.265a7.051,7.051,0,0,0-1.06.265,3.214,3.214,0,0,0-2.137,3.073c0,1.275.729,2.07,1.7,2.07a1.74,1.74,0,0,0,1.7-1.822,1.469,1.469,0,0,0-1.491-1.532,1.3,1.3,0,0,0-.522.141l-.555.273Zm.753.05c.754,0,1.1.679,1.1,1.367,0,.547-.2,1.242-.845,1.242-.679,0-1.1-.812-1.1-1.805a2.353,2.353,0,0,1,.05-.572,1.7,1.7,0,0,1,.795-.232Zm5.5,1.632c-.248.522-.356.555-.8.555h-1.549l1.176-1.234c.762-.811,1.093-1.3,1.093-2.021a1.36,1.36,0,0,0-1.391-1.4,1.5,1.5,0,0,0-1.118.489l-.472.671.182.166a1.423,1.423,0,0,1,1.126-.77c.613,0,.977.406.977,1.1a3.466,3.466,0,0,1-1.035,2c-.414.48-.878.952-1.342,1.408v.191h3.1c.1-.373.182-.737.29-1.085Z" transform="translate(-238.008 -400.731)"/>
    </g>
    <line class="cls-3" x1="43.653" y1="26.718" x2="119.622" y2="26.718"/>
    <line class="cls-3" x1="43.653" y1="27.385" x2="119.622" y2="27.385"/>
  </g>
</svg>
