<svg id="Warstwa_1" data-name="Warstwa 1" xmlns="http://www.w3.org/2000/svg" viewBox="0 0 544.558 207.597">
  <defs>
    <style>
      .cls-1 {
        fill: #a41111;
        fill-rule: evenodd;
      }
    </style>
  </defs>
  <title>mtd_logo_</title>
  <g>
    <path class="cls-1" d="M65.239,317.757H443.717V318h.24c.288,2.734,1.754,5.328,2.64,7.68,2.092,5.553,3.51,10.9,5.76,16.32,1.168,2.815,2.835,5.747,3.6,8.88H270.678v.48c-.588.944-.365,2.114-.72,3.36-.884,3.105-1.205,6.468-2.16,9.84-2.586,9.135-3.587,18.965-6.24,28.32-3.594,12.673-5.307,26.434-8.88,39.119-1.058,3.756-1.095,7.27-2.16,11.04-2.19,7.748-3.033,15.99-5.28,24a158.879,158.879,0,0,0-4.56,20.16h-57.36q15.118-67.673,30.24-135.358H59.239Q62.238,334.8,65.239,317.757Z" transform="translate(-26.359 -317.757)"/>
    <path class="cls-1" d="M169.4,487.434c-9.323-.011-19.141.178-28.08.24-.008-3.345,1.343-6.748,2.16-9.6,1.59-5.55,2.322-11.241,3.84-16.56,2-7,2.562-13.867,4.56-20.88,3.381-11.868,6.038-24.488,8.64-36.719h-.24v.24c-1.163,1.314-1.455,3.245-2.4,4.8-2.731,4.49-4.64,9.556-7.44,14.159-8.326,13.69-14.461,29.034-22.8,42.72-.846,1.389-1.076,2.93-1.92,4.32-2.166,3.564-4.3,7.571-6.24,11.28-.567,1.083-2.321,5.605-3.12,6h-25.2q-4.68-42.6-9.36-85.2h-.24a32.615,32.615,0,0,1-1.68,7.92c-1.323,4.676-1.675,9.471-2.88,13.919q-.84,4.679-1.68,9.36c-2.928,10.353-4.05,21.8-6.96,32.16-1.425,5.074-1.812,10.263-3.12,15.12-.558,2.072-.268,4.969-1.44,6.48-1.522.946-6.059.24-8.16.24H34.279c.005-3.985,1.244-8.441,2.16-12,1.51-5.867,1.679-11.915,3.12-17.52.725-2.819.472-5.342,1.2-8.16,2.9-11.218,3.608-23.583,6.48-34.8.85-3.322.588-6.278,1.44-9.6,1.53-5.965,2.073-12.754,3.6-18.72q.36-2.76.72-5.52a78.165,78.165,0,0,0,2.64-14.64h52.32q3,36.836,6,73.678h.24v-.48c1.14-1.291,1.569-3.2,2.4-4.8,2.08-4,3.91-8.051,6-12.24,6.366-12.756,12.841-25.76,19.44-38.4,2.344-4.489,4.429-9.05,6.72-13.44.472-.905,1.814-4.864,2.4-5.28h45.36V366c-1.554,2.377-1.524,7.717-2.4,10.8-2.265,7.966-3.186,16.489-5.52,24.72-3.464,12.212-5.2,25.46-8.64,37.679-.952,3.379-.966,6.462-1.92,9.84-1.968,6.966-2.771,14.39-4.8,21.6A128.538,128.538,0,0,0,169.4,487.434Z" transform="translate(-26.359 -317.757)"/>
    <path class="cls-1" d="M281.478,366H320.6c11.9,0,22.929.018,31.2,3.6,9.2,3.985,18.322,13.371,22.32,22.56a97.008,97.008,0,0,1,3.12,9.36c2.306,7.163,3.812,19.613,1.68,28.319-1.852,7.564-3.4,14.789-6.96,20.64-10.388,17.06-25.94,29.317-47.519,35.28-7.811,2.158-17.739,1.68-27.359,1.68H253.4c.057-3.823,1.838-9.064,2.88-12.48,1.964-6.439,2.779-13.2,4.56-19.44,1.127-3.951,1.271-7.569,2.4-11.52,3.224-11.285,5.185-23.5,8.4-34.8.831-2.921.847-5.469,1.68-8.4,1.984-6.975,2.992-14.363,5.04-21.6,1.149-4.062,2.742-8.73,3.12-13.2Zm12,94.8h0c19.691.247,37.23-3.171,44.639-15.36,6.562-10.8,9.165-41.327-1.44-49.2-7.006-5.2-16.756-4.847-29.04-4.8v.48c-.959,1.529-.671,3.813-1.2,5.76-1.34,4.939-1.715,10.185-3.12,15.36-2.564,9.446-3.4,19.608-6,29.279-1.009,3.752-1.326,7.761-2.4,11.76A38.01,38.01,0,0,0,293.478,460.795Z" transform="translate(-26.359 -317.757)"/>
    <path class="cls-1" d="M389,396a14.358,14.358,0,0,0-1.44-4.08c-2.559-6.136-4.725-11.64-8.16-16.8-1.3-1.951-3.541-3.931-4.32-6.24h88.8c4.1,9.307,9.068,18.125,13.44,27.12Z" transform="translate(-26.359 -317.757)"/>
    <path class="cls-1" d="M392.357,410.636h93.12c.742,2.9,3.3,5.765,4.8,8.16,2.9,4.64,5.166,9.388,8.16,13.919,1.451,2.2,4.252,4.874,4.8,7.68H390.2a43.9,43.9,0,0,1,1.68-8.64c.543-2.2.246-4.654.72-6.72C393.528,420.978,392.134,413.987,392.357,410.636Z" transform="translate(-26.359 -317.757)"/>
    <path class="cls-1" d="M384.677,455.035h128.88c1.267,2.59,3.437,4.683,5.04,6.96,3.973,5.642,7.939,11.026,12,16.56,1.92,2.616,4.453,4.913,6.24,7.68H361.4v-.24h.24c.526-.8,1.254-1.046,1.92-1.68a61.232,61.232,0,0,0,6.48-6.72C375.428,470.468,380.576,463.584,384.677,455.035Z" transform="translate(-26.359 -317.757)"/>
    <path class="cls-1" d="M26.359,525.354a29.806,29.806,0,0,1,1.2-6.96c.921-3.719,1.06-7.563,1.92-11.04.545-2.2.052-5.265,1.2-6.96,1.322-.816,8.169-.24,10.32-.24H548.357c1.238,1.887,3.228,3.276,4.56,5.04,4.13,5.47,9.327,9.916,13.44,15.36,1.325,1.753,3.328,2.875,4.56,4.8Z" transform="translate(-26.359 -317.757)"/>
  </g>
</svg>
