<svg id="Warstwa_1" data-name="Warstwa 1" xmlns="http://www.w3.org/2000/svg" viewBox="0 0 16.165 13.602">
  <defs>
    <style>
      .cls-1 {
        fill: #a41111;
        fill-rule: evenodd;
      }
    </style>
  </defs>
  <title>tel_fax_czer_icon</title>
  <g>
    <path class="cls-1" d="M1.929,13l-.561-.85A9.756,9.756,0,0,1,.659,5.729a5.623,5.623,0,0,1,.888-2.354,2.7,2.7,0,0,1,2.5-1.11l.992.815-.034.345c-.294.647-.6,1.3-.892,1.941l-.3.237-.993.1-.431.335a6.608,6.608,0,0,0,.149,4.3l.435.3L4.1,10.567l.47.3c.171.486.315.977.469,1.473l.107.323c.142.515.136.507-.277.835A2.028,2.028,0,0,1,2.39,13.41Z" transform="translate(-0.422 -0.285)"/>
    <path class="cls-1" d="M15.589,3.918V.285H9.325L6.972,2.6V3.918H6.047v9.97h10.54V3.918ZM8.4,3.221V3.195L9.913,1.71h4.252V7.194H8.4V3.221Zm.855,9.456H7.613v-1.5H9.251v1.5Zm0-2.706H7.613v-1.5H9.251v1.5ZM12.1,12.677H10.462v-1.5H12.1v1.5Zm0-2.706H10.462v-1.5H12.1v1.5Zm2.848,2.706H13.31v-1.5h1.638v1.5Zm0-2.706H13.31v-1.5h1.638Z" transform="translate(-0.422 -0.285)"/>
  </g>
</svg>
