<svg id="Warstwa_1" data-name="Warstwa 1" xmlns="http://www.w3.org/2000/svg" viewBox="0 0 11.542 10.882">
  <defs>
    <style>
      .cls-1 {
        fill: #fefefe;
        fill-rule: evenodd;
      }
    </style>
  </defs>
  <title>tel_icon</title>
  <g>
    <path class="cls-1" d="M325.059,200.713l-1.188-.194a11.531,11.531,0,0,1-6.15-4.532,6.646,6.646,0,0,1-1.334-2.658,3.188,3.188,0,0,1,1.04-3.064l1.5-.208.272.305c.327.774.65,1.557.971,2.33l-.035.451-.707.945-.054.643a7.816,7.816,0,0,0,3.859,3.319l.611-.136.837-1.044.64-.166c.56.241,1.1.509,1.656.773l.366.166c.561.289.55.289.5.91a2.4,2.4,0,0,1-2.068,2.084Z" transform="translate(-316.327 -189.831)"/>
    <path class="cls-1" d="M326.1,191.4a4.338,4.338,0,0,1,1.006,1.395l.407,1.331-.039.282-.753.041-.134-.1a3.929,3.929,0,0,0-1.063-2.251,4.063,4.063,0,0,0-3.211-1.352h-.146l-.034-.829.238-.092a5.344,5.344,0,0,1,1.537.205l1.175.53.305.231.337.286Z" transform="translate(-316.327 -189.831)"/>
    <path class="cls-1" d="M324.867,192.1a3.7,3.7,0,0,1,1.262,2.266l-.12.154-.668.061-.1-.1a2.773,2.773,0,0,0-2.793-2.365l-.136-.115-.056-.678.09-.095A3.625,3.625,0,0,1,324.867,192.1Z" transform="translate(-316.327 -189.831)"/>
    <path class="cls-1" d="M323.928,194.693a1.409,1.409,0,0,0-1.391-1.265l-.1-.079-.067-.686.079-.088a2.324,2.324,0,0,1,2.34,1.972l-.079.074Z" transform="translate(-316.327 -189.831)"/>
  </g>
</svg>
