<svg id="Warstwa_1" data-name="Warstwa 1" xmlns="http://www.w3.org/2000/svg" viewBox="0 0 11.542 10.656">
  <defs>
    <style>
      .cls-1 {
        fill: #a41111;
        fill-rule: evenodd;
      }
    </style>
  </defs>
  <title>tel_czer_icon</title>
  <path class="cls-1" d="M11.464,12.528l-1.188-.194A11.53,11.53,0,0,1,4.127,7.8,6.642,6.642,0,0,1,2.793,5.144,3.188,3.188,0,0,1,3.833,2.08l1.5-.208.272.305c.327.774.65,1.557.972,2.33l-.035.451L5.838,5.9l-.054.643A7.813,7.813,0,0,0,9.643,9.866l.611-.136.837-1.044.639-.166c.56.241,1.1.509,1.656.773l.366.166c.561.289.549.289.5.91a2.4,2.4,0,0,1-2.068,2.084Z" transform="translate(-2.733 -1.872)"/>
</svg>
