<svg id="Warstwa_1" data-name="Warstwa 1" xmlns="http://www.w3.org/2000/svg" viewBox="0 0 11.542 10.882">
  <defs>
    <style>
      .cls-1 {
        fill: #a41111;
        fill-rule: evenodd;
      }
    </style>
  </defs>
  <title>tel_mobile_czer_icon</title>
  <g>
    <path class="cls-1" d="M11.464,12.528l-1.188-.194A11.53,11.53,0,0,1,4.127,7.8,6.642,6.642,0,0,1,2.793,5.144,3.188,3.188,0,0,1,3.833,2.08l1.5-.208.272.305c.327.774.65,1.557.972,2.33l-.035.451L5.838,5.9l-.054.643A7.813,7.813,0,0,0,9.643,9.866l.611-.136.837-1.044.639-.166c.56.241,1.1.509,1.656.773l.366.166c.561.289.549.289.5.91a2.4,2.4,0,0,1-2.068,2.084Z" transform="translate(-2.733 -1.645)"/>
    <path class="cls-1" d="M12.5,3.218a4.338,4.338,0,0,1,1.006,1.395l.406,1.331-.039.282-.753.041-.135-.1a3.927,3.927,0,0,0-1.063-2.251A4.063,4.063,0,0,0,8.716,2.566H8.57l-.034-.829.237-.092a5.342,5.342,0,0,1,1.538.205l1.175.53.3.231.336.286Z" transform="translate(-2.733 -1.645)"/>
    <path class="cls-1" d="M11.272,3.918a3.7,3.7,0,0,1,1.262,2.266l-.12.154-.668.061-.1-.1A2.773,2.773,0,0,0,8.852,3.936l-.136-.115L8.66,3.144l.091-.095A3.625,3.625,0,0,1,11.272,3.918Z" transform="translate(-2.733 -1.645)"/>
    <path class="cls-1" d="M10.334,6.508A1.409,1.409,0,0,0,8.943,5.242l-.1-.079-.068-.686.079-.088a2.324,2.324,0,0,1,2.34,1.972l-.079.074Z" transform="translate(-2.733 -1.645)"/>
  </g>
</svg>
