<svg id="Warstwa_1" data-name="Warstwa 1" xmlns="http://www.w3.org/2000/svg" viewBox="0 0 501 209.077">
  <defs>
    <style>
      .cls-1 {
        fill: #fff;
        fill-rule: evenodd;
      }
    </style>
  </defs>
  <title>YT_logo_duze</title>
  <g>
    <path class="cls-1" d="M330.168,995.19h-19v-11c-7.2,8.256-13.309,12.426-19.965,12.426-5.84,0-9.895-2.755-11.926-7.732-1.234-3.027-2.109-7.752-2.109-14.694v-80h19v82c.443,2.807,1.635,3.832,4.051,3.832,3.637,0,6.928-3.16,10.949-8.832v-77h19Z" transform="translate(-143.168 -825.994)"/>
    <path class="cls-1" d="M244.168,965.19c1,10-2.1,14.962-8,14.962s-9-4.962-8-14.962v-40c-1-10,2.1-14.687,8-14.687s9.01,4.687,8.01,14.687l-.01,40Zm19-38c0-10.793-2.168-18.9-6-24-5.062-6.908-13-9.736-21-9.736-9.055,0-15.946,2.828-21,9.736-3.893,5.1-5.981,13.3-5.981,24.088l-.019,35.912c0,10.733,1.857,18.149,5.75,23.2a26.471,26.471,0,0,0,21.25,10.536,26.762,26.762,0,0,0,21.4-10.536c3.832-5.052,5.6-12.468,5.6-23.2Z" transform="translate(-143.168 -825.994)"/>
    <path class="cls-1" d="M188.168,940.19v55h-20v-55s-20.725-67.431-25-80h21L178.2,912.866l13.965-52.676h21Z" transform="translate(-143.168 -825.994)"/>
    <path class="cls-1" d="M525.589,910.254c-2.981,0-6.395,1.573-9.422,4.561l-.021,60.645c3.028,3.027,6.462,4.562,9.443,4.562,5.221,0,7.578-3.832,7.578-13.832v-43C533.167,913.19,530.81,910.254,525.589,910.254Z" transform="translate(-143.168 -825.994)"/>
    <path class="cls-1" d="M600.167,922.274c0-9.243-2.389-12.02-8.391-12.02-6.046,0-8.609,2.549-8.609,11.9v11.06l17-.019Z" transform="translate(-143.168 -825.994)"/>
    <path class="cls-1" d="M591.944,980.022c4.457,0,7.055-2.424,8.088-7.263.168-.987.136-5.3.136-12.569h19v2.834a113.55,113.55,0,0,1-.643,11.776,25.783,25.783,0,0,1-4.234,10.847c-5.008,7.256-12.437,10.832-21.9,10.832s-16.68-3.408-21.914-10.236c-3.846-5-6.313-12.434-6.313-23.053v-35c0-10.68,2.244-18.936,6.09-23.99,5.236-6.838,12.445-10.458,21.687-10.458,9.082,0,16.291,3.62,21.366,10.458,3.785,5.054,5.888,12.867,5.888,23.547l0,20.443H583.167v17.958c-.062,9.228,2.563,13.874,8.777,13.874Zm52.223-34.571v-29.93c-.275-22.766-2.959-44.423-2.959-44.423s-2.918-20.485-11.871-29.506c-11.354-11.839-24.084-11.9-29.92-12.591-40.479-2.913-100.568-3-104.284-3.007h-.493c-3.716,0-63.805.094-104.285,3.007-5.838.692-18.563.752-29.92,12.591-8.954,9.021-11.868,29.506-11.868,29.506a447.6,447.6,0,0,0-2.986,48.112v22.553a447.59,447.59,0,0,0,2.986,48.11s2.914,20.484,11.868,29.506c11.357,11.842,26.281,11.465,32.925,12.7,23.889,2.283,101.526,2.988,101.526,2.988h.046c1.91,0,63.353-.141,104.485-3.1,5.836-.694,18.566-.752,29.92-12.594,8.953-9.022,11.871-29.506,11.871-29.506s2.684-21.657,2.959-44.421Zm-92,19.739c0,9.242-.791,15.764-2,20-2.416,7.43-7.684,11.289-14.893,11.289-6.437,0-13.033-3.872-19.082-11.356l-.025,10.068h-18v-134h18l-.021,43.688c5.848-7.2,12.468-11.292,19.128-11.292,7.209,0,12.055,4.164,14.471,11.649,1.209,4.019,2.422,10.49,2.422,19.955v40Zm-69,30h-19v-11c-7.2,8.256-13.309,12.426-19.965,12.426-5.84,0-9.895-2.755-11.926-7.732-1.234-3.027-2.109-7.752-2.109-14.694v-79h19v81c.443,2.807,1.635,3.832,4.051,3.832,3.637,0,6.928-3.16,10.949-8.832v-76h19v100Zm-72,0h-20v-115h-21V861.211l63-.021v19h-22Z" transform="translate(-143.168 -825.994)"/>
  </g>
</svg>
